<?xml version="1.0" encoding="UTF-8"?>
<svg width="24px" height="24px" viewBox="0 0 24 24" version="1.1" xmlns="http://www.w3.org/2000/svg" xmlns:xlink="http://www.w3.org/1999/xlink">
    <!-- Generator: Sketch 63.1 (92452) - https://sketch.com -->
    <title>add_edge</title>
    <desc>Created with Sketch.</desc>
    <g id="add_edge" stroke="none" stroke-width="1" fill="none" fill-rule="evenodd">
        <path d="M5.75,17 C6.44035594,17 7,17.5596441 7,18.25 C7,18.9403559 6.44035594,19.5 5.75,19.5 C5.05964406,19.5 4.5,18.9403559 4.5,18.25 C4.5,17.5596441 5.05964406,17 5.75,17 L5.75,17 Z M5.75,15.75 C4.36928813,15.75 3.25,16.8692881 3.25,18.25 C3.25,19.6307119 4.36928813,20.75 5.75,20.75 C7.13071187,20.75 8.25,19.6307119 8.25,18.25 C8.25,16.8692881 7.13071187,15.75 5.75,15.75 Z M12,4.5 C12.6903559,4.5 13.25,5.05964406 13.25,5.75 C13.25,6.44035594 12.6903559,7 12,7 C11.3096441,7 10.75,6.44035594 10.75,5.75 C10.75,5.05964406 11.3096441,4.5 12,4.5 L12,4.5 Z M12,3.25 C10.6192881,3.25 9.5,4.36928813 9.5,5.75 C9.5,7.13071187 10.6192881,8.25 12,8.25 C13.3807119,8.25 14.5,7.13071187 14.5,5.75 C14.5,4.36928813 13.3807119,3.25 12,3.25 Z M18.25,4.5 C18.9403559,4.5 19.5,5.05964406 19.5,5.75 C19.5,6.44035594 18.9403559,7 18.25,7 C17.5596441,7 17,6.44035594 17,5.75 C17,5.05964406 17.5596441,4.5 18.25,4.5 L18.25,4.5 Z M18.25,3.25 C16.8692881,3.25 15.75,4.36928813 15.75,5.75 C15.75,7.13071187 16.8692881,8.25 18.25,8.25 C19.6307119,8.25 20.75,7.13071187 20.75,5.75 C20.75,4.36928813 19.6307119,3.25 18.25,3.25 Z M13.25,17 L13.25,19.5 L10.75,19.5 L10.75,17 L13.25,17 L13.25,17 Z M14.5,15.75 L9.5,15.75 L9.5,20.75 L14.5,20.75 L14.5,15.75 Z M18.875,15.8375 L18.875,12.625 C18.875,11.9346441 18.3153559,11.375 17.625,11.375 L6.375,11.375 L6.375,8.25 L8.25,8.25 L8.25,3.25 L3.25,3.25 L3.25,8.25 L5.125,8.25 L5.125,11.375 C5.125,12.0653559 5.68464406,12.625 6.375,12.625 L17.625,12.625 L17.625,15.8375 C16.4060583,16.1522294 15.6112967,17.3242417 15.7699258,18.5731253 C15.9285548,19.8220089 16.9910824,20.7581146 18.25,20.7581146 C19.5089176,20.7581146 20.5714452,19.8220089 20.7300742,18.5731253 C20.8887033,17.3242417 20.0939417,16.1522294 18.875,15.8375 Z M4.5,4.5 L7,4.5 L7,7 L4.5,7 L4.5,4.5 Z M18.25,19.5 C17.5596441,19.5 17,18.9403559 17,18.25 C17,17.5596441 17.5596441,17 18.25,17 C18.9403559,17 19.5,17.5596441 19.5,18.25 C19.5,18.9403559 18.9403559,19.5 18.25,19.5 Z" id="Fill" fill="#000000"></path>
    </g>
</svg>