<?xml version="1.0" encoding="UTF-8"?>
<svg width="24px" height="24px" viewBox="0 0 24 24" version="1.1" xmlns="http://www.w3.org/2000/svg" xmlns:xlink="http://www.w3.org/1999/xlink">
    <!-- Generator: Sketch 63.1 (92452) - https://sketch.com -->
    <title>agv</title>
    <desc>Created with Sketch.</desc>
    <g id="agv" stroke="none" stroke-width="1" fill="none" fill-rule="evenodd">
        <path d="M20.25,12 C20.8972087,12 21.4295339,12.4918747 21.4935464,13.1221948 L21.5,13.25 L21.5,17 C21.5,17.6472087 21.0081253,18.1795339 20.3778052,18.2435464 L20.25,18.25 L19.4862059,18.2505597 C19.3615904,19.3752778 18.4079464,20.25 17.25,20.25 C16.0920536,20.25 15.1384096,19.3752778 15.0137941,18.2505597 L8.98620587,18.2505597 C8.8615904,19.3752778 7.90794636,20.25 6.75,20.25 C5.59205364,20.25 4.6384096,19.3752778 4.51379413,18.2505597 L3.75,18.25 C3.10279131,18.25 2.5704661,17.7581253 2.50645361,17.1278052 L2.5,17 L2.5,13.25 C2.5,12.6027913 2.99187466,12.0704661 3.62219476,12.0064536 L3.75,12 L20.25,12 Z M6.75,17 C6.19771525,17 5.75,17.4477153 5.75,18 C5.75,18.5522847 6.19771525,19 6.75,19 C7.30228475,19 7.75,18.5522847 7.75,18 C7.75,17.4477153 7.30228475,17 6.75,17 Z M17.25,17 C16.6977153,17 16.25,17.4477153 16.25,18 C16.25,18.5522847 16.6977153,19 17.25,19 C17.8022847,19 18.25,18.5522847 18.25,18 C18.25,17.4477153 17.8022847,17 17.25,17 Z M20.25,13.25 L3.75,13.25 L3.75,17 L4.73353347,17.0006974 C5.10157582,16.2594603 5.86629249,15.75 6.75,15.75 C7.63370751,15.75 8.39842418,16.2594603 8.76646653,17.0006974 L15.2335335,17.0006974 C15.6015758,16.2594603 16.3662925,15.75 17.25,15.75 C18.1337075,15.75 18.8984242,16.2594603 19.2664665,17.0006974 L20.25,17 L20.25,13.25 Z M12,6.62116316 C13.24578,6.62116316 14.4324793,7.15225403 15.2625,8.08125 L14.33125,8.91875 C13.7383516,8.25457868 12.8903101,7.87483107 12,7.87483107 C11.1096899,7.87483107 10.2616484,8.25457868 9.66875,8.91875 L8.7375,8.08125 C9.56752071,7.15225403 10.75422,6.62116316 12,6.62116316 Z M12,3.5 C14.1639565,3.5 16.2016261,4.51883483 17.5,6.25 L16.5,7 C15.4376941,5.58359214 13.7705098,4.75 12,4.75 C10.2294902,4.75 8.5623059,5.58359214 7.5,7 L6.5,6.25 C7.79837388,4.51883483 9.83604354,3.5 12,3.5 Z" id="Combined-Shape" fill="#000000"></path>
    </g>
</svg>