<?xml version="1.0" encoding="UTF-8"?>
<svg width="24px" height="24px" viewBox="0 0 24 24" version="1.1" xmlns="http://www.w3.org/2000/svg" xmlns:xlink="http://www.w3.org/1999/xlink">
    <!-- Generator: Sketch 63.1 (92452) - https://sketch.com -->
    <title>alert_filled</title>
    <desc>Created with Sketch.</desc>
    <g id="alert_filled" stroke="none" stroke-width="1" fill="none" fill-rule="evenodd">
        <path d="M20.675,19.2 L12.55,3.575 C12.4408967,3.3728605 12.229704,3.24685855 12,3.24685855 C11.770296,3.24685855 11.5591033,3.3728605 11.45,3.575 L3.325,19.2 C3.2133545,19.3933757 3.2133545,19.6316243 3.325,19.825 C3.44135932,20.0163006 3.65116416,20.1307396 3.875,20.125 L20.125,20.125 C20.3456671,20.1249615 20.5499598,20.0085622 20.6625,19.81875 C20.7756557,19.6291834 20.7804073,19.393982 20.675,19.2 Z M11.3,8.25 L12.70625,8.25 L12.70625,14.5 L11.3,14.5 L11.3,8.25 Z M12,18.25 C11.482233,18.25 11.0625,17.830267 11.0625,17.3125 C11.0625,16.794733 11.482233,16.375 12,16.375 C12.517767,16.375 12.9375,16.794733 12.9375,17.3125 C12.9375,17.830267 12.517767,18.25 12,18.25 Z" id="Fill" fill="#FF5C49"></path>
    </g>
</svg>