<?xml version="1.0" encoding="UTF-8"?>
<svg width="24px" height="24px" viewBox="0 0 24 24" version="1.1" xmlns="http://www.w3.org/2000/svg" xmlns:xlink="http://www.w3.org/1999/xlink">
    <!-- Generator: Sketch 63.1 (92452) - https://sketch.com -->
    <title>analytics</title>
    <desc>Created with Sketch.</desc>
    <g id="analytics" stroke="none" stroke-width="1" fill="none" fill-rule="evenodd">
        <path d="M4.5,3.25 L3.25,3.25 L3.25,19.5 C3.25,20.1903559 3.80964406,20.75 4.5,20.75 L20.75,20.75 L20.75,19.5 L4.5,19.5 L4.5,3.25 Z M20.75,7.625 L16.375,7.625 L16.375,8.875 L18.61875,8.875 L13.875,13.61875 L11.19375,10.93125 C11.0763959,10.8129296 10.9166485,10.746376 10.75,10.746376 C10.5833515,10.746376 10.4236041,10.8129296 10.30625,10.93125 L5.75,15.49375 L6.63125,16.375 L10.75,12.25625 L13.43125,14.94375 C13.5486041,15.0620704 13.7083515,15.128624 13.875,15.128624 C14.0416485,15.128624 14.2013959,15.0620704 14.31875,14.94375 L19.5,9.75625 L19.5,12 L20.75,12 L20.75,7.625 Z" id="Fill" fill="#000000"></path>
    </g>
</svg>