<?xml version="1.0" encoding="UTF-8"?>
<svg width="24px" height="24px" viewBox="0 0 24 24" version="1.1" xmlns="http://www.w3.org/2000/svg" xmlns:xlink="http://www.w3.org/1999/xlink">
    <!-- Generator: Sketch 63.1 (92452) - https://sketch.com -->
    <title>apc</title>
    <desc>Created with Sketch.</desc>
    <g id="apc" stroke="none" stroke-width="1" fill="none" fill-rule="evenodd">
        <path d="M19.5,3.875 C18.7077212,3.87660473 18.0025025,4.37747027 17.74,5.125 L15.66125,5.125 C15.3815461,4.02148495 14.3884111,3.24867075 13.25,3.24867075 C12.1115889,3.24867075 11.1184539,4.02148495 10.83875,5.125 L8.16125,5.125 C7.85898,3.94543004 6.74938577,3.15635801 5.53595715,3.25806063 C4.32252853,3.35976324 3.35976324,4.32252853 3.25806063,5.53595715 C3.15635801,6.74938577 3.94543004,7.85898 5.125,8.16125 L5.125,10.83875 C4.02148495,11.1184539 3.24867075,12.1115889 3.24867075,13.25 C3.24867075,14.3884111 4.02148495,15.3815461 5.125,15.66125 L5.125,17.74 C4.26403332,18.0443977 3.74757995,18.9247914 3.9020027,19.8248332 C4.05642545,20.7248749 4.83680694,21.382767 5.75,21.382767 C6.66319306,21.382767 7.44357455,20.7248749 7.5979973,19.8248332 C7.75242005,18.9247914 7.23596668,18.0443977 6.375,17.74 L6.375,15.66125 C6.76403336,15.5604006 7.12282063,15.3667455 7.420625,15.096875 L9.523125,16.148125 C9.51076312,16.2232031 9.50304014,16.2989717 9.5,16.375 C9.49646091,17.2705065 10.1242588,18.0445518 11.0012127,18.2259248 C11.8781666,18.4072978 12.7615041,17.945788 13.1134807,17.1223459 C13.4654573,16.2989039 13.1886333,15.3414882 12.4515292,14.8329393 C11.7144251,14.3243905 10.721098,14.4054932 10.07625,15.026875 L8.10875,14.043125 C8.19894224,13.7882673 8.24666077,13.5203256 8.25,13.25 C8.24661793,12.1131902 7.47593756,11.1220952 6.375,10.83875 L6.375,8.16125 C7.24991293,7.93316416 7.93316416,7.24991293 8.16125,6.375 L10.83875,6.375 C10.9945779,7.01117832 11.3976152,7.55897624 11.9585966,7.89706664 C12.519578,8.23515704 13.1922038,8.33563625 13.8275,8.17625 L14.959375,10.1575 C14.351353,10.8595968 14.3389293,11.898031 14.9299802,12.6144734 C15.521031,13.3309157 16.5428991,13.5160795 17.3477574,13.0525777 C18.1526156,12.589076 18.5053495,11.6123064 18.1823386,10.7415052 C17.8593278,9.87070405 16.9549298,9.36024903 16.0425,9.53375 L14.930625,7.5875 C15.2863457,7.26253267 15.5401457,6.84134183 15.66125,6.375 L17.74,6.375 C18.0593869,7.27161346 19.0007578,7.78580554 19.9277688,7.56999488 C20.8547799,7.35418421 21.4722552,6.47708851 21.3627966,5.53160319 C21.2533379,4.58611787 20.4517987,3.87330122 19.5,3.875 Z M7,13.25 C7,13.9403559 6.44035594,14.5 5.75,14.5 C5.05964406,14.5 4.5,13.9403559 4.5,13.25 C4.5,12.5596441 5.05964406,12 5.75,12 C6.44007033,12.000689 6.99931096,12.5599297 7,13.25 L7,13.25 Z M5.75,7 C5.05964406,7 4.5,6.44035594 4.5,5.75 C4.5,5.05964406 5.05964406,4.5 5.75,4.5 C6.44035594,4.5 7,5.05964406 7,5.75 C6.99931096,6.44007033 6.44007033,6.99931096 5.75,7 L5.75,7 Z M12,5.75 C12,5.05964406 12.5596441,4.5 13.25,4.5 C13.9403559,4.5 14.5,5.05964406 14.5,5.75 C14.5,6.44035594 13.9403559,7 13.25,7 C12.5599297,6.99931096 12.000689,6.44007033 12,5.75 L12,5.75 Z" id="primary" fill="#000000"></path>
    </g>
</svg>