<?xml version="1.0" encoding="UTF-8"?>
<svg width="24px" height="24px" viewBox="0 0 24 24" version="1.1" xmlns="http://www.w3.org/2000/svg" xmlns:xlink="http://www.w3.org/1999/xlink">
    <!-- Generator: Sketch 63.1 (92452) - https://sketch.com -->
    <title>area</title>
    <desc>Created with Sketch.</desc>
    <g id="area" stroke="none" stroke-width="1" fill="none" fill-rule="evenodd">
        <path d="M11.375,15.125 C11.375,16.1605339 10.5355339,17 9.5,17 L9.4375,17 C9.11664705,15.428148 7.65768831,14.3545815 6.06154732,14.5158245 C4.46540632,14.6770675 3.25063782,16.0207353 3.25063782,17.625 C3.25063782,19.2292647 4.46540632,20.5729325 6.06154732,20.7341755 C7.65768831,20.8954185 9.11664705,19.821852 9.4375,18.25 L9.5,18.25 C10.3288015,18.25 11.1236575,17.9207599 11.7097087,17.3347087 C12.2957599,16.7486575 12.625,15.9538015 12.625,15.125 L11.375,15.125 Z M6.375,19.5 C5.33946609,19.5 4.5,18.6605339 4.5,17.625 C4.5,16.5894661 5.33946609,15.75 6.375,15.75 C7.41053391,15.75 8.25,16.5894661 8.25,17.625 C8.25,18.6605339 7.41053391,19.5 6.375,19.5 L6.375,19.5 Z M11.375,10.125 L12.625,10.125 L12.625,13.875 L11.375,13.875 L11.375,10.125 Z M17.625,3.24999993 C16.1397856,3.24969687 14.8595429,4.29479296 14.5625,5.74999993 L14.5,5.74999993 C12.7741102,5.74999993 11.375,7.14911016 11.375,8.875 L12.625,8.875 C12.625,7.83946609 13.4644661,7 14.5,7 L14.5625,7 C14.8913909,8.61122938 16.4127137,9.69189038 18.0423884,9.47191437 C19.6720632,9.25193837 20.8524227,7.80660015 20.7423542,6.1658338 C20.6322857,4.52506744 19.2694541,3.25033564 17.625,3.24999993 Z M17.625,8.25 C16.5894661,8.25 15.75,7.41053391 15.75,6.375 C15.75,5.33946609 16.5894661,4.5 17.625,4.5 C18.6605339,4.5 19.5,5.33946609 19.5,6.375 C19.5,7.41053391 18.6605339,8.25 17.625,8.25 L17.625,8.25 Z" id="Fill" fill="#000000"></path>
    </g>
</svg>