<?xml version="1.0" encoding="UTF-8"?>
<svg width="24px" height="24px" viewBox="0 0 24 24" version="1.1" xmlns="http://www.w3.org/2000/svg" xmlns:xlink="http://www.w3.org/1999/xlink">
    <!-- Generator: Sketch 63.1 (92452) - https://sketch.com -->
    <title>assembly_worker</title>
    <desc>Created with Sketch.</desc>
    <g id="assembly_worker" stroke="none" stroke-width="1" fill="none" fill-rule="evenodd">
        <path d="M21.375,20.75 L20.125,20.75 L20.125,18.875 C20.125,17.8394661 19.2855339,17 18.25,17 L15.75,17 C14.7144661,17 13.875,17.8394661 13.875,18.875 L13.875,20.75 L12.625,20.75 L12.625,18.875 C12.625,17.1491102 14.0241102,15.75 15.75,15.75 L18.25,15.75 C19.9758898,15.75 21.375,17.1491102 21.375,18.875 L21.375,20.75 Z M17,9.5 C18.0355339,9.5 18.875,10.3394661 18.875,11.375 C18.875,12.4105339 18.0355339,13.25 17,13.25 C15.9644661,13.25 15.125,12.4105339 15.125,11.375 C15.125,10.3394661 15.9644661,9.5 17,9.5 L17,9.5 Z M17,8.25 C15.2741102,8.25 13.875,9.64911016 13.875,11.375 C13.875,13.1008898 15.2741102,14.5 17,14.5 C18.7258898,14.5 20.125,13.1008898 20.125,11.375 C20.125,9.64911016 18.7258898,8.25 17,8.25 L17,8.25 Z M11.375,15.75 L10.125,15.75 L10.125,13.875 C10.125,12.8394661 9.28553391,12 8.25,12 L5.75,12 C4.71446609,12 3.875,12.8394661 3.875,13.875 L3.875,15.75 L2.625,15.75 L2.625,13.875 C2.625,12.1491102 4.02411016,10.75 5.75,10.75 L8.25,10.75 C9.97588984,10.75 11.375,12.1491102 11.375,13.875 L11.375,15.75 Z M7,4.5 C8.03553391,4.5 8.875,5.33946609 8.875,6.375 C8.875,7.41053391 8.03553391,8.25 7,8.25 C5.96446609,8.25 5.125,7.41053391 5.125,6.375 C5.125,5.33946609 5.96446609,4.5 7,4.5 L7,4.5 Z M7,3.25 C5.27411016,3.25 3.875,4.64911016 3.875,6.375 C3.875,8.10088984 5.27411016,9.5 7,9.5 C8.72588984,9.5 10.125,8.10088984 10.125,6.375 C10.125,5.54619847 9.79575987,4.75134249 9.20970869,4.16529131 C8.62365751,3.57924013 7.82880153,3.25 7,3.25 Z" id="primary" fill="#000000"></path>
    </g>
</svg>