<?xml version="1.0" encoding="UTF-8"?>
<svg width="24px" height="24px" viewBox="0 0 24 24" version="1.1" xmlns="http://www.w3.org/2000/svg" xmlns:xlink="http://www.w3.org/1999/xlink">
    <!-- Generator: Sketch 63.1 (92452) - https://sketch.com -->
    <title>attach</title>
    <desc>Created with Sketch.</desc>
    <g id="attach" stroke="none" stroke-width="1" fill="none" fill-rule="evenodd">
        <path d="M12.625,15.125 L12.625,20 L17.5,20 L17.5,21.25 L6.5,21.25 L6.5,20 L11.375,20 L11.375,15.125 L12.625,15.125 Z M21,20 L21,21.25 L19,21.25 L19,20 L21,20 Z M5,20 L5,21.25 L3,21.25 L3,20 L5,20 Z M17,4 L7,4 C6.30964406,4 5.75,4.55964406 5.75,5.25 L5.75,14 C5.75,14.6903559 6.30964406,15.25 7,15.25 L17,15.25 C17.6903559,15.25 18.25,14.6903559 18.25,14 L18.25,5.25 C18.25,4.55964406 17.6903559,4 17,4 Z M17,5.25 L17,9 L7,9 L7,5.25 L17,5.25 Z M17,10.25 L17,14 L7,14 L7,10.25 L17,10.25 Z M8.875,6.5 C9.22017797,6.5 9.5,6.77982203 9.5,7.125 C9.5,7.47017797 9.22017797,7.75 8.875,7.75 C8.52982203,7.75 8.25,7.47017797 8.25,7.125 C8.25,6.77982203 8.52982203,6.5 8.875,6.5 Z" id="primary" fill="#000000"></path>
    </g>
</svg>