<?xml version="1.0" encoding="UTF-8"?>
<svg width="24px" height="24px" viewBox="0 0 24 24" version="1.1" xmlns="http://www.w3.org/2000/svg" xmlns:xlink="http://www.w3.org/1999/xlink">
    <!-- Generator: Sketch 63.1 (92452) - https://sketch.com -->
    <title>autolayout</title>
    <desc>Created with Sketch.</desc>
    <g id="autolayout" stroke="none" stroke-width="1" fill="none" fill-rule="evenodd">
        <path d="M15.125,19.5 C15.8153559,19.5 16.375,18.9403559 16.375,18.25 C16.375,17.5596441 15.8153559,17 15.125,17 C14.4346441,17 13.875,17.5596441 13.875,18.25 C13.875,18.9403559 14.4346441,19.5 15.125,19.5 Z M15.125,7 C15.8153559,7 16.375,6.44035594 16.375,5.75 C16.375,5.05964406 15.8153559,4.5 15.125,4.5 C14.4346441,4.5 13.875,5.05964406 13.875,5.75 C13.875,6.44035594 14.4346441,7 15.125,7 Z M4.5,13.25 C5.19035594,13.25 5.75,12.6903559 5.75,12 C5.75,11.3096441 5.19035594,10.75 4.5,10.75 C3.80964406,10.75 3.25,11.3096441 3.25,12 C3.25,12.6903559 3.80964406,13.25 4.5,13.25 Z M19.5,9.5 C18.3631902,9.50338207 17.3720952,10.2740624 17.08875,11.375 L14.41125,11.375 C14.2320488,10.6614391 13.7451273,10.0643554 13.0822049,9.74526895 C12.4192826,9.42618249 11.6488699,9.41806963 10.979375,9.723125 L8.99375,7.241875 C9.32037013,6.81293421 9.49811489,6.28913575 9.5,5.75 C9.5,4.36928813 8.38071187,3.25 7,3.25 C5.61928813,3.25 4.5,4.36928813 4.5,5.75 C4.5,7.13071187 5.61928813,8.25 7,8.25 C7.35241985,8.24918229 7.70060142,8.17311079 8.02125,8.026875 L10.00625,10.508125 C9.33165285,11.3883184 9.33165285,12.6116816 10.00625,13.491875 L8.02125,15.973125 C7.70060142,15.8268892 7.35241985,15.7508177 7,15.75 C5.61928813,15.75 4.5,16.8692881 4.5,18.25 C4.5,19.6307119 5.61928813,20.75 7,20.75 C8.38071187,20.75 9.5,19.6307119 9.5,18.25 C9.49816052,17.7108566 9.32041096,17.1870441 8.99375,16.758125 L10.97875,14.276875 C11.6483091,14.5821607 12.4188981,14.5741692 13.0819818,14.2550632 C13.7450655,13.9359571 14.2320872,13.3387292 14.41125,12.625 L17.08875,12.625 C17.4157571,13.8797455 18.6491889,14.6750362 19.9270536,14.4550782 C21.2049184,14.2351202 22.1014566,13.0731992 21.9901169,11.7813311 C21.8787772,10.4894629 20.7966557,9.49807282 19.5,9.5 Z M5.75,5.75 C5.75,5.05964406 6.30964406,4.5 7,4.5 C7.69035594,4.5 8.25,5.05964406 8.25,5.75 C8.25,6.44035594 7.69035594,7 7,7 C6.30992967,6.99931096 5.75068904,6.44007033 5.75,5.75 L5.75,5.75 Z M7,19.5 C6.30964406,19.5 5.75,18.9403559 5.75,18.25 C5.75,17.5596441 6.30964406,17 7,17 C7.69035594,17 8.25,17.5596441 8.25,18.25 C8.24931096,18.9400703 7.69007033,19.499311 7,19.5 Z M12,13.25 C11.3096441,13.25 10.75,12.6903559 10.75,12 C10.75,11.3096441 11.3096441,10.75 12,10.75 C12.6903559,10.75 13.25,11.3096441 13.25,12 C13.249311,12.6900703 12.6900703,13.249311 12,13.25 L12,13.25 Z M19.5,13.25 C18.8096441,13.25 18.25,12.6903559 18.25,12 C18.25,11.3096441 18.8096441,10.75 19.5,10.75 C20.1903559,10.75 20.75,11.3096441 20.75,12 C20.749311,12.6900703 20.1900703,13.249311 19.5,13.25 L19.5,13.25 Z" id="Fill" fill="#000000"></path>
    </g>
</svg>