<?xml version="1.0" encoding="UTF-8"?>
<svg width="24px" height="24px" viewBox="0 0 24 24" version="1.1" xmlns="http://www.w3.org/2000/svg" xmlns:xlink="http://www.w3.org/1999/xlink">
    <!-- Generator: Sketch 63.1 (92452) - https://sketch.com -->
    <title>axes_yz</title>
    <desc>Created with Sketch.</desc>
    <g id="axes_yz" stroke="none" stroke-width="1" fill="none" fill-rule="evenodd">
        <path d="M5.1,8 L8.225,11.125 L7.34125,12.00875 L5.749,10.417 L5.75,18.5 L13.1075,18.5 L11.49125,16.88375 L12.375,16 L15.5,19.125 L12.375,22.25 L11.49125,21.36625 L13.1075,19.75 L5.75,19.75 C5.10305907,19.749354 4.57110517,19.2577936 4.5065703,18.6277506 L4.5,18.5 L4.499,10.392 L4.475,10.3925 L2.85875,12.00875 L1.975,11.125 L5.1,8 Z M17.9815,16.614 L19.0315,18.56 L19.0455,18.56 L20.0535,16.614 L21.2085,16.614 L19.5355,19.582 L19.5355,21.5 L18.4645,21.5 L18.4645,19.589 L16.7915,16.614 L17.9815,16.614 Z M6.9455,2.114 L6.9455,3.059 L4.5305,6.055 L7.0015,6.055 L7.0015,7 L3.2985,7 L3.2985,6.055 L5.7065,3.059 L3.4175,3.059 L3.4175,2.114 L6.9455,2.114 Z" id="primary" fill="#000000"></path>
    </g>
</svg>