<?xml version="1.0" encoding="UTF-8"?>
<svg width="24px" height="24px" viewBox="0 0 24 24" version="1.1" xmlns="http://www.w3.org/2000/svg" xmlns:xlink="http://www.w3.org/1999/xlink">
    <!-- Generator: Sketch 63.1 (92452) - https://sketch.com -->
    <title>axes_xy</title>
    <desc>Created with Sketch.</desc>
    <g id="axes_xy" stroke="none" stroke-width="1" fill="none" fill-rule="evenodd">
        <path d="M5.1,8 L8.225,11.125 L7.34125,12.00875 L5.749,10.417 L5.75,18.5 L13.1075,18.5 L11.49125,16.88375 L12.375,16 L15.5,19.125 L12.375,22.25 L11.49125,21.36625 L13.1075,19.75 L5.75,19.75 C5.10305907,19.749354 4.57110517,19.2577936 4.5065703,18.6277506 L4.5,18.5 L4.499,10.392 L4.475,10.3925 L2.85875,12.00875 L1.975,11.125 L5.1,8 Z M18.0725,16.614 L19.0245,18.266 L19.0455,18.266 L20.0115,16.614 L21.1595,16.614 L19.6545,18.994 L21.2435,21.5 L20.0115,21.5 L18.9545,19.701 L18.9335,19.701 L17.9045,21.5 L16.7565,21.5 L18.3245,18.973 L16.8335,16.614 L18.0725,16.614 Z M4.1315,2.114 L5.1815,4.06 L5.1955,4.06 L6.2035,2.114 L7.3585,2.114 L5.6855,5.082 L5.6855,7 L4.6145,7 L4.6145,5.089 L2.9415,2.114 L4.1315,2.114 Z" id="primary" fill="#000000"></path>
    </g>
</svg>