<?xml version="1.0" encoding="UTF-8"?>
<svg width="24px" height="24px" viewBox="0 0 24 24" version="1.1" xmlns="http://www.w3.org/2000/svg" xmlns:xlink="http://www.w3.org/1999/xlink">
    <!-- Generator: Sketch 63.1 (92452) - https://sketch.com -->
    <title>battery_full</title>
    <desc>Created with Sketch.</desc>
    <g id="battery_full" stroke="none" stroke-width="1" fill="none" fill-rule="evenodd">
        <path d="M17,17 L5.75,17 C5.05964406,17 4.5,16.4403559 4.5,15.75 L4.5,8.25 C4.5,7.55964406 5.05964406,7 5.75,7 L17,7 C17.6903559,7 18.25,7.55964406 18.25,8.25 L18.25,8.875 L18.875,8.875 C19.5653559,8.875 20.125,9.43464406 20.125,10.125 L20.125,13.875 C20.125,14.5653559 19.5653559,15.125 18.875,15.125 L18.25,15.125 L18.25,15.75 C18.25,16.4403559 17.6903559,17 17,17 Z M5.75,8.25 L5.75,15.75 L17,15.75 L17,13.875 L18.875,13.875 L18.875,10.125 L17,10.125 L17,8.25 L5.75,8.25 Z M15.75,9.5 L15.75,14.5 L7,14.5 L7,9.5 L15.75,9.5 Z" id="Fill" fill="#000000"></path>
    </g>
</svg>