<?xml version="1.0" encoding="UTF-8"?>
<svg width="24px" height="24px" viewBox="0 0 24 24" version="1.1" xmlns="http://www.w3.org/2000/svg" xmlns:xlink="http://www.w3.org/1999/xlink">
    <!-- Generator: Sketch 63.1 (92452) - https://sketch.com -->
    <title>battery_empty</title>
    <desc>Created with Sketch.</desc>
    <g id="battery_empty" stroke="none" stroke-width="1" fill="none" fill-rule="evenodd">
        <path d="M17,17 L5.75,17 C5.05992967,16.999311 4.50068904,16.4400703 4.5,15.75 L4.5,8.25 C4.50068904,7.55992967 5.05992967,7.00068904 5.75,7 L17,7 C17.6900703,7.00068904 18.249311,7.55992967 18.25,8.25 L18.25,8.875 L18.875,8.875 C19.5650703,8.87568904 20.124311,9.43492967 20.125,10.125 L20.125,13.875 C20.1239674,14.5649278 19.5649278,15.1239674 18.875,15.125 L18.25,15.125 L18.25,15.75 C18.2489674,16.4399278 17.6899278,16.9989674 17,17 L17,17 Z M5.75,8.25 L5.75,15.75 L17,15.75 L17,13.875 L18.875,13.875 L18.875,10.125 L17,10.125 L17,8.25 L5.75,8.25 Z" id="primary" fill="#000000"></path>
    </g>
</svg>