<?xml version="1.0" encoding="UTF-8"?>
<svg width="24px" height="24px" viewBox="0 0 24 24" version="1.1" xmlns="http://www.w3.org/2000/svg" xmlns:xlink="http://www.w3.org/1999/xlink">
    <!-- Generator: Sketch 63.1 (92452) - https://sketch.com -->
    <title>battery.error</title>
    <desc>Created with Sketch.</desc>
    <g id="battery.error" stroke="none" stroke-width="1" fill="none" fill-rule="evenodd">
        <path d="M18.875,8.875 L18.25,8.875 L18.25,8.25 C18.25,7.55964406 17.6903559,7 17,7 L15.875,7 L15.875,8.25 L17,8.25 L17,10.125 L18.875,10.125 L18.875,13.875 L17,13.875 L17,15.75 L15.875,15.75 L15.875,17 L17,17 C17.6903559,17 18.25,16.4403559 18.25,15.75 L18.25,15.125 L18.875,15.125 C19.5653559,15.125 20.125,14.5653559 20.125,13.875 L20.125,10.125 C20.125,9.43464406 19.5653559,8.875 18.875,8.875 Z M7.5,15.75 L5.75,15.75 L5.75,8.25 L7.5,8.25 L7.5,7 L5.75,7 C5.05964406,7 4.5,7.55964406 4.5,8.25 L4.5,15.75 C4.5,16.4403559 5.05964406,17 5.75,17 L7.5,17 L7.5,15.75 Z" id="primary" fill="#000000"></path>
        <polygon id="secondary" fill="#FF5C49" points="14.2965729 8.41421356 11.5857864 11.125 8.875 8.41421356 8 9.28921356 10.7107864 12 8 14.7107864 8.875 15.5857864 11.5857864 12.875 14.2965729 15.5857864 15.1715729 14.7107864 12.4607864 12 15.1715729 9.28921356"></polygon>
    </g>
</svg>