<?xml version="1.0" encoding="UTF-8"?>
<svg width="24px" height="24px" viewBox="0 0 24 24" version="1.1" xmlns="http://www.w3.org/2000/svg" xmlns:xlink="http://www.w3.org/1999/xlink">
    <!-- Generator: Sketch 63.1 (92452) - https://sketch.com -->
    <title>buffer_shelf</title>
    <desc>Created with Sketch.</desc>
    <g id="buffer_shelf" stroke="none" stroke-width="1" fill="none" fill-rule="evenodd">
        <path d="M18.875,2.875 C19.5222087,2.875 20.0545339,3.36687466 20.1185464,3.99719476 L20.125,4.125 L20.125,17.875 C20.125,17.9174678 20.1228822,17.9594409 20.1187465,18.0008195 L20.125,18 L20.125,21 L18.875,21 L18.875,19.125 L5.125,19.125 L5.125,21 L3.875,21 L3.875,18 L3.881,18 L3.875,17.875 L3.875,13 L5.125,13 L5.125,14.125 L8,14.125 L8,15.375 L5.125,15.375 L5.125,17.875 L18.875,17.875 L18.875,15.375 L15,15.375 L15,14.125 L18.875,14.125 L18.875,7.875 L15,7.875 L15,6.625 L18.875,6.625 L18.875,4.125 L5.125,4.125 L5.125,6.625 L8,6.625 L8,7.875 L5.125,7.875 L5.125,9 L3.875,9 L3.875,4.125 C3.875,3.47779131 4.36687466,2.9454661 4.99719476,2.88145361 L5.125,2.875 L18.875,2.875 Z" id="Combined-Shape" fill="#000000"></path>
        <polygon id="Path" fill="#000000" points="10.11875 13.86875 12.35625 11.625 4 11.625 4 10.375 12.35625 10.375 10.11875 8.13125 11 7.25 14.75 11 11 14.75"></polygon>
    </g>
</svg>