<?xml version="1.0" encoding="UTF-8"?>
<svg width="24px" height="24px" viewBox="0 0 24 24" version="1.1" xmlns="http://www.w3.org/2000/svg" xmlns:xlink="http://www.w3.org/1999/xlink">
    <!-- Generator: Sketch 63.1 (92452) - https://sketch.com -->
    <title>bulb</title>
    <desc>Created with Sketch.</desc>
    <g id="bulb" stroke="none" stroke-width="1" fill="none" fill-rule="evenodd">
        <path d="M8.875,17 L15.125,17 L15.125,18.25 L8.875,18.25 L8.875,17 Z M10.125,19.5 L13.875,19.5 L13.875,20.75 L10.125,20.75 L10.125,19.5 Z M12,3.25 C8.54822031,3.25 5.75,6.04822031 5.75,9.5 C5.66425905,11.3426483 6.46873364,13.1143524 7.9125,14.2625 C8.5375,14.84375 8.875,15.175 8.875,15.75 L10.125,15.75 C10.125,14.6 9.43125,13.95625 8.75625,13.3375 C7.57011206,12.4291746 6.91210443,10.9913928 7,9.5 C7.00000004,6.73857628 9.23857628,4.50000007 12,4.50000007 C14.7614237,4.50000007 17,6.73857628 17,9.5 C17.0864375,10.9925239 16.4259864,12.4305275 15.2375,13.3375 C14.56875,13.9625 13.875,14.5875 13.875,15.75 L15.125,15.75 C15.125,15.175 15.45625,14.84375 16.0875,14.25625 C17.5302629,13.110065 18.3347376,11.3406859 18.25,9.5 C18.25,7.84239694 17.5915197,6.25268498 16.4194174,5.08058262 C15.247315,3.90848025 13.6576031,3.25 12,3.25 Z" id="primary" fill="#000000"></path>
    </g>
</svg>