<?xml version="1.0" encoding="UTF-8"?>
<svg width="24px" height="24px" viewBox="0 0 24 24" version="1.1" xmlns="http://www.w3.org/2000/svg" xmlns:xlink="http://www.w3.org/1999/xlink">
    <!-- Generator: Sketch 63.1 (92452) - https://sketch.com -->
    <title>configure</title>
    <desc>Created with Sketch.</desc>
    <g id="configure" stroke="none" stroke-width="1" fill="none" fill-rule="evenodd">
        <path d="M20.75,6.375 L17.5625,6.375 C17.2667547,4.91854751 15.986176,3.87186715 14.5,3.87186715 C13.013824,3.87186715 11.7332453,4.91854751 11.4375,6.375 L3.25,6.375 L3.25,7.625 L11.4375,7.625 C11.7332453,9.08145249 13.013824,10.1281329 14.5,10.1281329 C15.986176,10.1281329 17.2667547,9.08145249 17.5625,7.625 L20.75,7.625 L20.75,6.375 Z M14.5,8.875 C13.4644661,8.875 12.625,8.03553391 12.625,7 C12.625,5.96446609 13.4644661,5.125 14.5,5.125 C15.5355339,5.125 16.375,5.96446609 16.375,7 C16.375,8.03553391 15.5355339,8.875 14.5,8.875 L14.5,8.875 Z M3.25,17.625 L6.4375,17.625 C6.73324529,19.0814525 8.01382399,20.1281329 9.5,20.1281329 C10.986176,20.1281329 12.2667547,19.0814525 12.5625,17.625 L20.75,17.625 L20.75,16.375 L12.5625,16.375 C12.2667547,14.9185475 10.986176,13.8718671 9.5,13.8718671 C8.01382399,13.8718671 6.73324529,14.9185475 6.4375,16.375 L3.25,16.375 L3.25,17.625 Z M7.625,17 C7.625,15.9644661 8.46446609,15.125 9.5,15.125 C10.5355339,15.125 11.375,15.9644661 11.375,17 C11.375,18.0355339 10.5355339,18.875 9.5,18.875 C8.46446609,18.875 7.625,18.0355339 7.625,17 Z" id="Fill" fill="#000000"></path>
    </g>
</svg>