<?xml version="1.0" encoding="UTF-8"?>
<svg width="24px" height="24px" viewBox="0 0 24 24" version="1.1" xmlns="http://www.w3.org/2000/svg" xmlns:xlink="http://www.w3.org/1999/xlink">
    <!-- Generator: Sketch 63.1 (92452) - https://sketch.com -->
    <title>connection</title>
    <desc>Created with Sketch.</desc>
    <g id="connection" stroke="none" stroke-width="1" fill="none" fill-rule="evenodd">
        <path d="M11.375,9.5 L12.625,9.5 L12.625,20.75 L11.375,20.75 L11.375,9.5 Z M9.08125,13.3875 C8.15225403,12.5574793 7.62116316,11.37078 7.62116316,10.125 C7.62116316,8.87921997 8.15225403,7.69252071 9.08125,6.8625 L9.91875,7.79375 C9.25457868,8.38664838 8.87483107,9.23468993 8.87483107,10.125 C8.87483107,11.0153101 9.25457868,11.8633516 9.91875,12.45625 L9.08125,13.3875 Z M14.91875,13.3875 L14.08125,12.45625 C14.7454213,11.8633516 15.1251689,11.0153101 15.1251689,10.125 C15.1251689,9.23468993 14.7454213,8.38664838 14.08125,7.79375 L14.91875,6.8625 C15.847746,7.69252071 16.3788368,8.87921997 16.3788368,10.125 C16.3788368,11.37078 15.847746,12.5574793 14.91875,13.3875 Z M7.25,15.625 C5.51883483,14.3266261 4.5,12.2889565 4.5,10.125 C4.5,7.96104354 5.51883483,5.92337388 7.25,4.625 L8,5.625 C6.58359214,6.6873059 5.75,8.35449017 5.75,10.125 C5.75,11.8955098 6.58359214,13.5626941 8,14.625 L7.25,15.625 Z M16.75,15.625 L16,14.625 C17.4164079,13.5626941 18.25,11.8955098 18.25,10.125 C18.25,8.35449017 17.4164079,6.6873059 16,5.625 L16.75,4.625 C18.4811652,5.92337388 19.5,7.96104354 19.5,10.125 C19.5,12.2889565 18.4811652,14.3266261 16.75,15.625 Z" id="Fill" fill="#000000"></path>
    </g>
</svg>