<?xml version="1.0" encoding="UTF-8"?>
<svg width="24px" height="24px" viewBox="0 0 24 24" version="1.1" xmlns="http://www.w3.org/2000/svg" xmlns:xlink="http://www.w3.org/1999/xlink">
    <!-- Generator: Sketch 63.1 (92452) - https://sketch.com -->
    <title>container</title>
    <desc>Created with Sketch.</desc>
    <g id="container" stroke="none" stroke-width="1" fill="none" fill-rule="evenodd">
        <path d="M19.5,4.5 L4.5,4.5 C3.80964406,4.5 3.25,5.05964406 3.25,5.75 L3.25,8.25 C3.25,8.94035594 3.80964406,9.5 4.5,9.5 L4.5,19.5 C4.5,20.1903559 5.05964406,20.75 5.75,20.75 L18.25,20.75 C18.9403559,20.75 19.5,20.1903559 19.5,19.5 L19.5,9.5 C20.1903559,9.5 20.75,8.94035594 20.75,8.25 L20.75,5.75 C20.75,5.05964406 20.1903559,4.5 19.5,4.5 Z M18.25,19.5 L5.75,19.5 L5.75,9.5 L18.25,9.5 L18.25,19.5 Z M19.5,8.25 L4.5,8.25 L4.5,5.75 L19.5,5.75 L19.5,8.25 Z" id="primary" fill="#000000"></path>
    </g>
</svg>