<?xml version="1.0" encoding="UTF-8"?>
<svg width="24px" height="24px" viewBox="0 0 24 24" version="1.1" xmlns="http://www.w3.org/2000/svg" xmlns:xlink="http://www.w3.org/1999/xlink">
    <!-- Generator: Sketch 63.1 (92452) - https://sketch.com -->
    <title>copy</title>
    <desc>Created with Sketch.</desc>
    <g id="copy" stroke="none" stroke-width="1" fill="none" fill-rule="evenodd">
        <path d="M19.146875,11.186875 L15.360625,7.36125 C15.1327864,7.13103732 14.8226439,7.00104287 14.49875,7 L9.5,7 C8.80992967,7.00068904 8.25068904,7.55992967 8.25,8.25 L8.25,20.125 C8.25068904,20.8150703 8.80992967,21.374311 9.5,21.375 L18.25,21.375 C18.9400703,21.374311 19.499311,20.8150703 19.5,20.125 L19.5,12.048125 C19.4991267,11.7259729 19.3724078,11.4169134 19.146875,11.186875 Z M14.5,8.26875 L18.2025,12 L14.5,12 L14.5,8.26875 Z M9.5,20.125 L9.5,8.25 L13.25,8.25 L13.25,12 C13.250689,12.6900703 13.8099297,13.249311 14.5,13.25 L18.25,13.25 L18.250625,20.125 L9.5,20.125 Z M5.75,13.25 L4.5,13.25 L4.5,4.5 C4.50068904,3.80992967 5.05992967,3.25068904 5.75,3.25 L14.5,3.25 L14.5,4.5 L5.75,4.5 L5.75,13.25 Z" id="Fill" fill="#000000"></path>
    </g>
</svg>