<?xml version="1.0" encoding="UTF-8"?>
<svg width="24px" height="24px" viewBox="0 0 24 24" version="1.1" xmlns="http://www.w3.org/2000/svg" xmlns:xlink="http://www.w3.org/1999/xlink">
    <!-- Generator: Sketch 63.1 (92452) - https://sketch.com -->
    <title>cut</title>
    <desc>Created with Sketch.</desc>
    <g id="cut" stroke="none" stroke-width="1" fill="none" fill-rule="evenodd">
        <path d="M18.5625,14.26875 L14.65,12 L18.5625,9.73125 C19.674509,9.10519394 20.2941323,7.86589196 20.1277264,6.60065704 C19.9613205,5.33542213 19.042322,4.29848236 17.80625,3.98125 C17.5430212,3.91215184 17.272143,3.87645471 17,3.8749811 C15.8777335,3.87110565 14.8395579,4.4692995 14.2801128,5.44219133 C13.7206676,6.41508316 13.725873,7.61325568 14.29375,8.58125 C14.6354812,9.16971929 15.15996,9.63055834 15.7875,9.89375 L13.4,11.275 L4.5,6.125 L3.875,7.2125 L12.15,12 L3.875,16.8 L4.5,17.8875 L13.4,12.725 L15.7875,14.10625 C15.15996,14.3694417 14.6354812,14.8302807 14.29375,15.41875 C13.725873,16.3867443 13.7206676,17.5849168 14.2801128,18.5578087 C14.8395579,19.5307005 15.8777335,20.1288943 17,20.1250189 C17.272143,20.1235453 17.5430212,20.0878482 17.80625,20.01875 C19.042322,19.7015176 19.9613205,18.6645779 20.1277264,17.399343 C20.2941323,16.134108 19.674509,14.8948061 18.5625,14.26875 L18.5625,14.26875 Z M15.375,7.95625 C15.1220909,7.5242231 15.0524481,7.00899931 15.1815827,6.52533154 C15.3107173,6.04166377 15.6279049,5.62971995 16.0625,5.38125 C16.4941704,5.13284443 17.0069336,5.06638589 17.487668,5.19653595 C17.9684024,5.326686 18.3776047,5.64274983 18.625,6.075 C18.8759114,6.50647205 18.9444342,7.02017842 18.8153906,7.50233234 C18.686347,7.98448626 18.3703883,8.39529004 17.9375,8.64375 C17.506588,8.89267226 16.9943961,8.96008137 16.5137522,8.83112814 C16.0331084,8.70217491 15.6234433,8.38743832 15.375,7.95625 Z M18.625,17.95625 C18.3776047,18.3885002 17.9684024,18.704564 17.487668,18.8347141 C17.0069336,18.9648641 16.4941704,18.8984056 16.0625,18.65 C15.6279049,18.4015301 15.3107173,17.9895862 15.1815827,17.5059185 C15.0524481,17.0222507 15.1220909,16.5070269 15.375,16.075 C15.6234433,15.6438117 16.0331084,15.3290751 16.5137522,15.2001219 C16.9943961,15.0711686 17.506588,15.1385777 17.9375,15.3875 C18.8205786,15.9041112 19.1265044,17.0332554 18.625,17.925 L18.625,17.95625 Z" id="primary" fill="#000000"></path>
    </g>
</svg>