<?xml version="1.0" encoding="UTF-8"?>
<svg width="24px" height="24px" viewBox="0 0 24 24" version="1.1" xmlns="http://www.w3.org/2000/svg" xmlns:xlink="http://www.w3.org/1999/xlink">
    <!-- Generator: Sketch 63.1 (92452) - https://sketch.com -->
    <title>dashboard</title>
    <desc>Created with Sketch.</desc>
    <g id="dashboard" stroke="none" stroke-width="1" fill="none" fill-rule="evenodd">
        <path d="M17,15.125 L18.25,15.125 L18.25,18.25 L17,18.25 L17,15.125 Z M14.5,12 L15.75,12 L15.75,18.25 L14.5,18.25 L14.5,12 Z M8.875,18.25 C7.14996678,18.2479337 5.75206632,16.8500332 5.75,15.125 L7,15.125 C7,16.1605339 7.83946609,17 8.875,17 C9.91053391,17 10.75,16.1605339 10.75,15.125 C10.75,14.0894661 9.91053391,13.25 8.875,13.25 L8.875,12 C10.6008898,12 12,13.3991102 12,15.125 C12,16.8508898 10.6008898,18.25 8.875,18.25 Z M19.5,3.25 L4.5,3.25 C3.80992967,3.25068904 3.25068904,3.80992967 3.25,4.5 L3.25,19.5 C3.25068904,20.1900703 3.80992967,20.749311 4.5,20.75 L19.5,20.75 C20.1899278,20.7489674 20.7489674,20.1899278 20.75,19.5 L20.75,4.5 C20.749311,3.80992967 20.1900703,3.25068904 19.5,3.25 Z M19.5,8.875 L10.75,8.875 L10.75,4.5 L19.5,4.5 L19.5,8.875 Z M9.5,4.5 L9.5,8.875 L4.5,8.875 L4.5,4.5 L9.5,4.5 Z M4.5,19.5 L4.5,10.125 L19.5,10.125 L19.50125,19.5 L4.5,19.5 Z" id="primary" fill="#000000"></path>
    </g>
</svg>