<?xml version="1.0" encoding="UTF-8"?>
<svg width="24px" height="24px" viewBox="0 0 24 24" version="1.1" xmlns="http://www.w3.org/2000/svg" xmlns:xlink="http://www.w3.org/1999/xlink">
    <!-- Generator: Sketch 63.1 (92452) - https://sketch.com -->
    <title>delete</title>
    <desc>Created with Sketch.</desc>
    <g id="delete" stroke="none" stroke-width="1" fill="none" fill-rule="evenodd">
        <path d="M9.5,9.5 L10.75,9.5 L10.75,17 L9.5,17 L9.5,9.5 Z M13.25,9.5 L14.5,9.5 L14.5,17 L13.25,17 L13.25,9.5 Z M4.5,5.75 L4.5,7 L5.75,7 L5.75,19.5 C5.75,20.1903559 6.30964406,20.75 7,20.75 L17,20.75 C17.6903559,20.75 18.25,20.1903559 18.25,19.5 L18.25,7 L19.5,7 L19.5,5.75 L4.5,5.75 Z M7,19.5 L7,7 L17,7 L17,19.5 L7,19.5 Z M9.5,3.25 L14.5,3.25 L14.5,4.5 L9.5,4.5 L9.5,3.25 Z" id="Fill" fill="#000000"></path>
    </g>
</svg>