<?xml version="1.0" encoding="UTF-8"?>
<svg width="24px" height="24px" viewBox="0 0 24 24" version="1.1" xmlns="http://www.w3.org/2000/svg" xmlns:xlink="http://www.w3.org/1999/xlink">
    <!-- Generator: Sketch 63.1 (92452) - https://sketch.com -->
    <title>dependency</title>
    <desc>Created with Sketch.</desc>
    <g id="dependency" stroke="none" stroke-width="1" fill="none" fill-rule="evenodd">
        <path d="M19.5,9.5 C20.1903559,9.5 20.75,8.94035594 20.75,8.25 L20.75,4.5 C20.75,3.80964406 20.1903559,3.25 19.5,3.25 L4.5,3.25 C3.80964406,3.25 3.25,3.80964406 3.25,4.5 L3.25,8.25 C3.25,8.94035594 3.80964406,9.5 4.5,9.5 L11.375,9.5 L11.375,12 L7.625,12 C6.93464406,12 6.375,12.5596441 6.375,13.25 L6.375,15.75 L4.5,15.75 C3.80964406,15.75 3.25,16.3096441 3.25,17 L3.25,19.5 C3.25,20.1903559 3.80964406,20.75 4.5,20.75 L9.5,20.75 C10.1903559,20.75 10.75,20.1903559 10.75,19.5 L10.75,17 C10.75,16.3096441 10.1903559,15.75 9.5,15.75 L7.625,15.75 L7.625,13.25 L16.375,13.25 L16.375,15.75 L14.5,15.75 C13.8096441,15.75 13.25,16.3096441 13.25,17 L13.25,19.5 C13.25,20.1903559 13.8096441,20.75 14.5,20.75 L19.5,20.75 C20.1903559,20.75 20.75,20.1903559 20.75,19.5 L20.75,17 C20.75,16.3096441 20.1903559,15.75 19.5,15.75 L17.625,15.75 L17.625,13.25 C17.625,12.5596441 17.0653559,12 16.375,12 L12.625,12 L12.625,9.5 L19.5,9.5 Z M9.5,19.5 L4.5,19.5 L4.5,17 L9.5,17 L9.5,19.5 Z M19.5,19.5 L14.5,19.5 L14.5,17 L19.5,17 L19.5,19.5 Z M4.5,4.5 L19.5,4.5 L19.5,8.25 L4.5,8.25 L4.5,4.5 Z" id="Fill" fill="#000000"></path>
    </g>
</svg>