<?xml version="1.0" encoding="UTF-8"?>
<svg width="24px" height="24px" viewBox="0 0 24 24" version="1.1" xmlns="http://www.w3.org/2000/svg" xmlns:xlink="http://www.w3.org/1999/xlink">
    <!-- Generator: Sketch 63.1 (92452) - https://sketch.com -->
    <title>document_open</title>
    <desc>Created with Sketch.</desc>
    <g id="document_open" stroke="none" stroke-width="1" fill="none" fill-rule="evenodd">
        <path d="M18.0625,7.8125 L13.6875,3.4375 C13.5760899,3.31404716 13.4162314,3.2455364 13.25,3.25 L7,3.25 C6.30964406,3.25 5.75,3.80964406 5.75,4.5 L5.75,19.5 C5.75,20.1903559 6.30964406,20.75 7,20.75 L17,20.75 C17.6903559,20.75 18.25,20.1903559 18.25,19.5 L18.25,8.25 C18.2544636,8.08376855 18.1859528,7.92391012 18.0625,7.8125 L18.0625,7.8125 Z M13.25,4.75 L16.75,8.25 L13.25,8.25 L13.25,4.75 Z M17,19.5 L7,19.5 L7,4.5 L12,4.5 L12,8.25 C12,8.94035594 12.5596441,9.5 13.25,9.5 L17,9.5 L17,19.5 Z M15.125,13.875 L12.625,13.875 L12.625,11.375 L11.375,11.375 L11.375,13.875 L8.875,13.875 L8.875,15.125 L11.375,15.125 L11.375,17.625 L12.625,17.625 L12.625,15.125 L15.125,15.125 L15.125,13.875 Z" id="Fill" fill="#000000"></path>
    </g>
</svg>