<?xml version="1.0" encoding="UTF-8"?>
<svg width="24px" height="24px" viewBox="0 0 24 24" version="1.1" xmlns="http://www.w3.org/2000/svg" xmlns:xlink="http://www.w3.org/1999/xlink">
    <!-- Generator: Sketch 63.1 (92452) - https://sketch.com -->
    <title>driveway</title>
    <desc>Created with Sketch.</desc>
    <g id="driveway" stroke="none" stroke-width="1" fill="none" fill-rule="evenodd">
        <path d="M18.25,5.75 L5.64375,5.75 L7.88125,3.50625 L7,2.625 L3.25,6.375 L7,10.125 L7.88125,9.24375 L5.64375,7 L18.25,7 L18.25,11.375 L19.5,11.375 L19.5,7 C19.5,6.30964406 18.9403559,5.75 18.25,5.75 Z M16.11875,14.75625 L18.35625,17 L5.75,17 L5.75,12.625 L4.5,12.625 L4.5,17 C4.5,17.6903559 5.05964406,18.25 5.75,18.25 L18.35625,18.25 L16.11875,20.49375 L17,21.375 L20.75,17.625 L17,13.875 L16.11875,14.75625 Z" id="Fill" fill="#000000"></path>
    </g>
</svg>