<?xml version="1.0" encoding="UTF-8"?>
<svg width="24px" height="24px" viewBox="0 0 24 24" version="1.1" xmlns="http://www.w3.org/2000/svg" xmlns:xlink="http://www.w3.org/1999/xlink">
    <!-- Generator: Sketch 63.1 (92452) - https://sketch.com -->
    <title>event</title>
    <desc>Created with Sketch.</desc>
    <g id="event" stroke="none" stroke-width="1" fill="none" fill-rule="evenodd">
        <path d="M15.125,20.75 C12.3635763,20.75 10.125,18.5114237 10.125,15.75 C10.125,12.9885763 12.3635763,10.75 15.125,10.75 C17.8864237,10.75 20.125,12.9885763 20.125,15.75 C20.125,18.5114237 17.8864237,20.75 15.125,20.75 L15.125,20.75 Z M15.125,12 C13.0539322,12 11.375,13.6789322 11.375,15.75 C11.375,17.8210678 13.0539322,19.5 15.125,19.5 C17.1960678,19.5 18.875,17.8210678 18.875,15.75 C18.875,13.6789322 17.1960678,12 15.125,12 Z M16.11875,17.625 L14.5,16.00625 L14.5,13.25 L15.75,13.25 L15.75,15.49375 L17,16.74375 L16.11875,17.625 Z M19.5,5.75 C19.5,5.05964406 18.9403559,4.5 18.25,4.5 L15.75,4.5 L15.75,3.25 L14.5,3.25 L14.5,4.5 L9.5,4.5 L9.5,3.25 L8.25,3.25 L8.25,4.5 L5.75,4.5 C5.05964406,4.5 4.5,5.05964406 4.5,5.75 L4.5,18.25 C4.5,18.9403559 5.05964406,19.5 5.75,19.5 L8.25,19.5 L8.25,18.25 L5.75,18.25 L5.75,5.75 L8.25,5.75 L8.25,7 L9.5,7 L9.5,5.75 L14.5,5.75 L14.5,7 L15.75,7 L15.75,5.75 L18.25,5.75 L18.25,9.5 L19.5,9.5 L19.5,5.75 Z" id="primary" fill="#000000"></path>
    </g>
</svg>