<?xml version="1.0" encoding="UTF-8"?>
<svg width="24px" height="24px" viewBox="0 0 24 24" version="1.1" xmlns="http://www.w3.org/2000/svg" xmlns:xlink="http://www.w3.org/1999/xlink">
    <!-- Generator: Sketch 63.1 (92452) - https://sketch.com -->
    <title>exit</title>
    <desc>Created with Sketch.</desc>
    <g id="exit" stroke="none" stroke-width="1" fill="none" fill-rule="evenodd">
        <path d="M5.75,20.75 L13.25,20.75 C13.9400703,20.749311 14.499311,20.1900703 14.5,19.5 L14.5,17.625 L13.25,17.625 L13.25,19.5 L5.75,19.5 L5.75,4.5 L13.25,4.5 L13.25,6.375 L14.5,6.375 L14.5,4.5 C14.499311,3.80992967 13.9400703,3.25068904 13.25,3.25 L5.75,3.25 C5.05992967,3.25068904 4.50068904,3.80992967 4.5,4.5 L4.5,19.5 C4.50068904,20.1900703 5.05992967,20.749311 5.75,20.75 Z M14.86625,14.86625 L17.1075,12.625 L8.25,12.625 L8.25,11.375 L17.1075,11.375 L14.86625,9.13375 L15.75,8.25 L19.5,12 L15.75,15.75 L14.86625,14.86625 Z" id="primary" fill="#000000"></path>
    </g>
</svg>