<?xml version="1.0" encoding="UTF-8"?>
<svg width="24px" height="24px" viewBox="0 0 24 24" version="1.1" xmlns="http://www.w3.org/2000/svg" xmlns:xlink="http://www.w3.org/1999/xlink">
    <!-- Generator: Sketch 63.1 (92452) - https://sketch.com -->
    <title>export</title>
    <desc>Created with Sketch.</desc>
    <g id="export" stroke="none" stroke-width="1" fill="none" fill-rule="evenodd">
        <path d="M10.125,15.125 L18.35625,15.125 L16.74375,16.74375 L17.625,17.625 L20.75,14.5 L17.625,11.375 L16.74375,12.25625 L18.35625,13.875 L10.125,13.875 L10.125,15.125 Z M15.7500105,10.75 L15.7500105,8.25 C15.7509605,8.08387313 15.6857416,7.92419927 15.56875,7.80625 L11.19375,3.43125 C11.0758007,3.31425843 10.9161269,3.24903953 10.75,3.24998954 L4.5,3.24998954 C3.80964406,3.24998954 3.25,3.80964406 3.25,4.5 L3.25,19.5 C3.25,20.1903559 3.80964406,20.75 4.5,20.75 L14.5,20.75 C15.1903559,20.75 15.7500105,20.1903559 15.7500105,19.5 L15.7500105,18.25 L14.5,18.25 L14.5,19.5 L4.5,19.5 L4.5,4.5 L9.5,4.5 L9.5,8.25 C9.5,8.94035594 10.0596441,9.5 10.75,9.5 L14.5,9.5 L14.5,10.75 L15.7500105,10.75 Z M10.75,8.25 L10.75,4.75625 L14.24375,8.25 L10.75,8.25 Z" id="primary" fill="#000000"></path>
    </g>
</svg>