<?xml version="1.0" encoding="UTF-8"?>
<svg width="24px" height="24px" viewBox="0 0 24 24" version="1.1" xmlns="http://www.w3.org/2000/svg" xmlns:xlink="http://www.w3.org/1999/xlink">
    <!-- Generator: Sketch 63.1 (92452) - https://sketch.com -->
    <title>filter</title>
    <desc>Created with Sketch.</desc>
    <g id="filter" stroke="none" stroke-width="1" fill="none" fill-rule="evenodd">
        <path d="M13.25,19.5 L10.75,19.5 C10.0596441,19.5 9.5,18.9403559 9.5,18.25 L9.5,13.50625 L4.86875,8.875 C4.63400763,8.64165607 4.50139549,8.32473553 4.5,7.99375 L4.5,5.75 C4.5,5.05964406 5.05964406,4.5 5.75,4.5 L18.25,4.5 C18.9403559,4.5 19.5,5.05964406 19.5,5.75 L19.5,7.99375 C19.4986045,8.32473553 19.3659924,8.64165607 19.13125,8.875 L14.5,13.50625 L14.5,18.25 C14.5,18.9403559 13.9403559,19.5 13.25,19.5 Z M5.75,5.75 L5.75,7.99375 L10.75,12.99375 L10.75,18.25 L13.25,18.25 L13.25,12.99375 L18.25,7.99375 L18.25,5.75 L5.75,5.75 Z" id="Fill" fill="#000000"></path>
    </g>
</svg>