<?xml version="1.0" encoding="UTF-8"?>
<svg width="24px" height="24px" viewBox="0 0 24 24" version="1.1" xmlns="http://www.w3.org/2000/svg" xmlns:xlink="http://www.w3.org/1999/xlink">
    <!-- Generator: Sketch 63.1 (92452) - https://sketch.com -->
    <title>fork</title>
    <desc>Created with Sketch.</desc>
    <g id="fork" stroke="none" stroke-width="1" fill="none" fill-rule="evenodd">
        <path d="M18.25,20.75 L5.75,20.75 C5.05964406,20.75 4.5,20.1903559 4.5,19.5 L4.5,12 C4.5,11.3096441 5.05964406,10.75 5.75,10.75 L7.625,10.75 L7.625,12 L5.75,12 L5.75,19.5 L18.25,19.5 L18.25,12 L16.375,12 L16.375,10.75 L18.25,10.75 C18.9403559,10.75 19.5,11.3096441 19.5,12 L19.5,19.5 C19.5,20.1903559 18.9403559,20.75 18.25,20.75 Z M10.125,14.5 L13.875,14.5 L13.875,15.75 L10.125,15.75 L10.125,14.5 Z M14.86875,7.88125 L12.625,5.64375 L12.625,12 L11.375,12 L11.375,5.64375 L9.13125,7.88125 L8.25,7 L12,3.25 L15.75,7 L14.86875,7.88125 Z" id="primary" fill="#000000"></path>
    </g>
</svg>