<?xml version="1.0" encoding="UTF-8"?>
<svg width="24px" height="24px" viewBox="0 0 24 24" version="1.1" xmlns="http://www.w3.org/2000/svg" xmlns:xlink="http://www.w3.org/1999/xlink">
    <!-- Generator: Sketch 63.1 (92452) - https://sketch.com -->
    <title>fork_lift_event@3x</title>
    <desc>Created with Sketch.</desc>
    <g id="fork_lift_event" stroke="none" stroke-width="1" fill="none" fill-rule="evenodd">
        <path d="M9.86113658,4.21 C10.1582713,4.21 10.4273894,4.38541597 10.5473249,4.65726985 L14.8850651,14.4870258 C16.0829565,14.6722175 17,15.7077919 17,16.9575532 C17,18.3382651 15.8807119,19.4575532 14.5,19.4575532 C13.6820708,19.4575532 12.9558841,19.0647571 12.4997831,18.4575081 L6.50021694,18.4575081 C6.04411586,19.0647571 5.31792915,19.4575532 4.5,19.4575532 C3.11928813,19.4575532 2,18.3382651 2,16.9575532 C2,16.139624 2.39279608,15.4134373 3.00004507,14.9573363 L3,4.96 C3,4.54578644 3.33578644,4.21 3.75,4.21 L9.86113658,4.21 Z M4.5,15.7075532 C3.80964406,15.7075532 3.25,16.2671973 3.25,16.9575532 C3.25,17.6479091 3.80964406,18.2075532 4.5,18.2075532 C5.19035594,18.2075532 5.75,17.6479091 5.75,16.9575532 C5.75,16.2671973 5.19035594,15.7075532 4.5,15.7075532 Z M14.5,15.7075532 C13.8096441,15.7075532 13.25,16.2671973 13.25,16.9575532 C13.25,17.6479091 13.8096441,18.2075532 14.5,18.2075532 C15.1903559,18.2075532 15.75,17.6479091 15.75,16.9575532 C15.75,16.2671973 15.1903559,15.7075532 14.5,15.7075532 Z M21.75,16 C21.75,16.6903559 21.1903559,17.25 20.5,17.25 L20.5,17.25 L18.4922577,17.2509202 C18.4973938,17.1679397 18.5,17.0842742 18.5,17 C18.5,16.6547881 18.4562692,16.3197901 18.3740452,16.0002435 Z M12.732,12.707 L4.25,12.707 L4.24996633,14.4699004 C4.33220379,14.4617342 4.41561363,14.4575532 4.5,14.4575532 C5.88071187,14.4575532 7,15.5768413 7,16.9575532 C7,17.0421005 6.99580304,17.1256675 6.98760608,17.2080573 L12.0123939,17.2080573 C12.004197,17.1256675 12,17.0421005 12,16.9575532 C12,15.9010738 12.6553267,14.9976541 13.5816604,14.6316139 L12.732,12.707 Z M15.75,4 L15.7507265,13.1994281 C15.3572432,13.0700127 14.9367978,13 14.5,13 L14.5,5.25 C14.5,4.55964406 15.0596441,4 15.75,4 L15.75,4 Z M9.534,5.4595532 L4.25,5.4595532 L4.25,11.457 L12.181,11.457 L9.534,5.4595532 Z" id="Fill" fill="#000000"></path>
    </g>
</svg>