<?xml version="1.0" encoding="UTF-8"?>
<svg width="24px" height="24px" viewBox="0 0 24 24" version="1.1" xmlns="http://www.w3.org/2000/svg" xmlns:xlink="http://www.w3.org/1999/xlink">
    <!-- Generator: Sketch 63.1 (92452) - https://sketch.com -->
    <title>freeze</title>
    <desc>Created with Sketch.</desc>
    <g id="freeze" stroke="none" stroke-width="1" fill="none" fill-rule="evenodd">
        <path d="M12,2.75 C12.3137982,2.75 12.5735831,2.98125788 12.6182234,3.28264208 L12.625,3.375 L12.625,5.617 L14.1830583,4.05805826 C14.4000162,3.84110032 14.7367967,3.81699388 14.9803819,3.98573895 L15.0669417,4.05805826 C15.2838997,4.2750162 15.3080061,4.6117967 15.1392611,4.85538188 L15.0669417,4.94194174 L12.625,7.382 L12.625,10.492 L17.6570583,5.45905826 C17.9011359,5.21498058 18.2968641,5.21498058 18.5409417,5.45905826 C18.7578997,5.6760162 18.7820061,6.0127967 18.6132611,6.25638188 L18.5409417,6.34294174 L13.507,11.375 L16.616,11.375 L19.0580583,8.93305826 C19.3021359,8.68898058 19.6978641,8.68898058 19.9419417,8.93305826 C20.1588997,9.1500162 20.1830061,9.4867967 20.0142611,9.73038188 L19.9419417,9.81694174 L18.382,11.375 L20.625,11.375 C20.970178,11.375 21.25,11.654822 21.25,12 C21.25,12.3137982 21.0187421,12.5735831 20.7173579,12.6182234 L20.625,12.625 L18.382,12.625 L19.9419417,14.1830583 C20.1588997,14.4000162 20.1830061,14.7367967 20.0142611,14.9803819 L19.9419417,15.0669417 C19.7249838,15.2838997 19.3882033,15.3080061 19.1446181,15.1392611 L19.0580583,15.0669417 L16.617,12.625 L13.508,12.625 L18.5409417,17.6570583 C18.7850194,17.9011359 18.7850194,18.2968641 18.5409417,18.5409417 C18.3239838,18.7578997 17.9872033,18.7820061 17.7436181,18.6132611 L17.6570583,18.5409417 L12.625,13.508 L12.625,16.617 L15.0669417,19.0580583 C15.3110194,19.3021359 15.3110194,19.6978641 15.0669417,19.9419417 C14.8499838,20.1588997 14.5132033,20.1830061 14.2696181,20.0142611 L14.1830583,19.9419417 L12.625,18.382 L12.625,20.625 C12.625,20.970178 12.345178,21.25 12,21.25 C11.6862018,21.25 11.4264169,21.0187421 11.3817766,20.7173579 L11.375,20.625 L11.375,18.382 L9.81694174,19.9419417 C9.5999838,20.1588997 9.2632033,20.1830061 9.01961812,20.0142611 L8.93305826,19.9419417 C8.71610032,19.7249838 8.69199388,19.3882033 8.86073895,19.1446181 L8.93305826,19.0580583 L11.375,16.616 L11.375,13.508 L6.34294174,18.5409417 C6.09886406,18.7850194 5.70313594,18.7850194 5.45905826,18.5409417 C5.24210032,18.3239838 5.21799388,17.9872033 5.38673895,17.7436181 L5.45905826,17.6570583 L10.491,12.625 L7.382,12.625 L4.94194174,15.0669417 C4.69786406,15.3110194 4.30213594,15.3110194 4.05805826,15.0669417 C3.84110032,14.8499838 3.81699388,14.5132033 3.98573895,14.2696181 L4.05805826,14.1830583 L5.617,12.625 L3.375,12.625 C3.02982203,12.625 2.75,12.345178 2.75,12 C2.75,11.6862018 2.98125788,11.4264169 3.28264208,11.3817766 L3.375,11.375 L5.617,11.375 L4.05805826,9.81694174 C3.84110032,9.5999838 3.81699388,9.2632033 3.98573895,9.01961812 L4.05805826,8.93305826 C4.2750162,8.71610032 4.6117967,8.69199388 4.85538188,8.86073895 L4.94194174,8.93305826 L7.383,11.375 L10.492,11.375 L5.45905826,6.34294174 C5.21498058,6.09886406 5.21498058,5.70313594 5.45905826,5.45905826 C5.6760162,5.24210032 6.0127967,5.21799388 6.25638188,5.38673895 L6.34294174,5.45905826 L11.375,10.492 L11.375,7.383 L8.93305826,4.94194174 C8.68898058,4.69786406 8.68898058,4.30213594 8.93305826,4.05805826 C9.1500162,3.84110032 9.4867967,3.81699388 9.73038188,3.98573895 L9.81694174,4.05805826 L11.375,5.617 L11.375,3.375 C11.375,3.02982203 11.654822,2.75 12,2.75 Z" id="Combined-Shape" fill="#000000"></path>
    </g>
</svg>