<?xml version="1.0" encoding="UTF-8"?>
<svg width="24px" height="24px" viewBox="0 0 24 24" version="1.1" xmlns="http://www.w3.org/2000/svg" xmlns:xlink="http://www.w3.org/1999/xlink">
    <!-- Generator: Sketch 63.1 (92452) - https://sketch.com -->
    <title>grab</title>
    <desc>Created with Sketch.</desc>
    <g id="grab" stroke="none" stroke-width="1" fill="none" fill-rule="evenodd">
        <path d="M8.25,5.125 L10.75,5.125 L10.75,7.625 L8.25,7.625 L8.25,5.125 Z M13.25,5.125 L15.75,5.125 L15.75,7.625 L13.25,7.625 L13.25,5.125 Z M8.25,10.75 L10.75,10.75 L10.75,13.25 L8.25,13.25 L8.25,10.75 Z M13.25,10.75 L15.75,10.75 L15.75,13.25 L13.25,13.25 L13.25,10.75 Z M8.25,16.375 L10.75,16.375 L10.75,18.875 L8.25,18.875 L8.25,16.375 Z M13.25,16.375 L15.75,16.375 L15.75,18.875 L13.25,18.875 L13.25,16.375 Z" id="Fill" fill="#000000"></path>
    </g>
</svg>