<?xml version="1.0" encoding="UTF-8"?>
<svg width="24px" height="24px" viewBox="0 0 24 24" version="1.1" xmlns="http://www.w3.org/2000/svg" xmlns:xlink="http://www.w3.org/1999/xlink">
    <!-- Generator: Sketch 63.1 (92452) - https://sketch.com -->
    <title>help</title>
    <desc>Created with Sketch.</desc>
    <g id="help" stroke="none" stroke-width="1" fill="none" fill-rule="evenodd">
        <path d="M12,3.25 C7.16750844,3.25 3.25,7.16750844 3.25,12 C3.25,16.8324916 7.16750844,20.75 12,20.75 C16.8324916,20.75 20.75,16.8324916 20.75,12 C20.75,9.67935571 19.8281276,7.45375898 18.1871843,5.81281566 C16.546241,4.17187235 14.3206443,3.25 12,3.25 Z M12,19.5 C7.85786438,19.5 4.5,16.1421356 4.5,12 C4.5,7.85786438 7.85786438,4.5 12,4.5 C16.1421356,4.5 19.5,7.85786438 19.5,12 C19.5,16.1421356 16.1421356,19.5 12,19.5 L12,19.5 Z M12,17.625 C12.517767,17.625 12.9375,17.205267 12.9375,16.6875 C12.9375,16.169733 12.517767,15.75 12,15.75 C11.482233,15.75 11.0625,16.169733 11.0625,16.6875 C11.0625,17.205267 11.482233,17.625 12,17.625 Z M12.625,6.99999301 L11.6875,6.99999301 C10.9410697,6.99833571 10.2247319,7.29411735 9.69692462,7.82192462 C9.16911735,8.34973189 8.87333571,9.06606966 8.87499301,9.8125 L8.87499301,10.125 L10.125,10.125 L10.125,9.8125 C10.125,8.94955508 10.8245551,8.25 11.6875,8.25 L12.625,8.25 C13.4879449,8.25 14.1875,8.94955508 14.1875,9.8125 C14.1875,10.6754449 13.4879449,11.375 12.625,11.375 L11.374993,11.375 L11.374993,14.1875 L12.625,14.1875 L12.625,12.625 C14.1783009,12.625 15.4375,11.3658009 15.4375,9.8125 C15.4375,8.25919914 14.1783009,6.99999301 12.625,6.99999301 Z" id="primary" fill="#000000"></path>
    </g>
</svg>