<?xml version="1.0" encoding="UTF-8"?>
<svg width="24px" height="24px" viewBox="0 0 24 24" version="1.1" xmlns="http://www.w3.org/2000/svg" xmlns:xlink="http://www.w3.org/1999/xlink">
    <!-- Generator: Sketch 63.1 (92452) - https://sketch.com -->
    <title>import</title>
    <desc>Created with Sketch.</desc>
    <g id="import" stroke="none" stroke-width="1" fill="none" fill-rule="evenodd">
        <path d="M19.5,13.875 L11.26875,13.875 L12.88125,12.25625 L12,11.375 L8.875,14.5 L12,17.625 L12.88125,16.74375 L11.26875,15.125 L19.5,15.125 L19.5,13.875 Z M17.0000105,10.75 L17.0000105,8.25 C17.0009605,8.08387313 16.9357416,7.92419927 16.81875,7.80625 L12.44375,3.43125 C12.3258007,3.31425843 12.1661269,3.24903953 12,3.24998954 L5.75,3.24998954 C5.05964406,3.24998954 4.5,3.80964406 4.5,4.5 L4.5,19.5 C4.5,20.1903559 5.05964406,20.75 5.75,20.75 L15.75,20.75 C16.4403559,20.75 17.0000105,20.1903559 17.0000105,19.5 L17.0000105,18.25 L15.75,18.25 L15.75,19.5 L5.75,19.5 L5.75,4.5 L10.75,4.5 L10.75,8.25 C10.75,8.94035594 11.3096441,9.5 12,9.5 L15.75,9.5 L15.75,10.75 L17.0000105,10.75 Z M12,8.25 L12,4.75625 L15.49375,8.25 L12,8.25 Z" id="Fill" fill="#000000"></path>
    </g>
</svg>