<?xml version="1.0" encoding="UTF-8"?>
<svg width="24px" height="24px" viewBox="0 0 24 24" version="1.1" xmlns="http://www.w3.org/2000/svg" xmlns:xlink="http://www.w3.org/1999/xlink">
    <!-- Generator: Sketch 63.1 (92452) - https://sketch.com -->
    <title>info</title>
    <desc>Created with Sketch.</desc>
    <g id="info" stroke="none" stroke-width="1" fill="none" fill-rule="evenodd">
        <path d="M12.625,15.75 L12.625,10.125 L10.125,10.125 L10.125,11.375 L11.375,11.375 L11.375,15.75 L9.5,15.75 L9.5,17 L14.5,17 L14.5,15.75 L12.625,15.75 Z M12,6.375 C11.482233,6.375 11.0625,6.79473305 11.0625,7.3125 C11.0625,7.83026695 11.482233,8.25 12,8.25 C12.517767,8.25 12.9375,7.83026695 12.9375,7.3125 C12.9375,6.79473305 12.517767,6.375 12,6.375 L12,6.375 Z M12,20.75 C7.16750844,20.75 3.25,16.8324916 3.25,12 C3.25,7.16750844 7.16750844,3.25 12,3.25 C16.8324916,3.25 20.75,7.16750844 20.75,12 C20.75,16.8324916 16.8324916,20.75 12,20.75 L12,20.75 Z M12,4.5 C7.85786438,4.5 4.5,7.85786438 4.5,12 C4.5,16.1421356 7.85786438,19.5 12,19.5 C16.1421356,19.5 19.5,16.1421356 19.5,12 C19.5,7.85786438 16.1421356,4.5 12,4.5 Z" id="Fill" fill="#1550F0"></path>
    </g>
</svg>