<?xml version="1.0" encoding="UTF-8"?>
<svg width="24px" height="24px" viewBox="0 0 24 24" version="1.1" xmlns="http://www.w3.org/2000/svg" xmlns:xlink="http://www.w3.org/1999/xlink">
    <!-- Generator: Sketch 63.1 (92452) - https://sketch.com -->
    <title>intersection_all</title>
    <desc>Created with Sketch.</desc>
    <g id="intersection_all" stroke="none" stroke-width="1" fill="none" fill-rule="evenodd">
        <polygon id="Fill" fill="#000000" points="17.625 8.875 16.74375 9.75625 18.35625 11.375 12.625 11.375 12.625 5.64375 14.24375 7.25625 15.125 6.375 12 3.25 8.875 6.375 9.75625 7.25625 11.375 5.64375 11.375 11.375 5.64375 11.375 7.25625 9.75625 6.375 8.875 3.25 12 6.375 15.125 7.25625 14.24375 5.64375 12.625 11.375 12.625 11.375 18.35625 9.75625 16.74375 8.875 17.625 12 20.75 15.125 17.625 14.24375 16.74375 12.625 18.35625 12.625 12.625 18.35625 12.625 16.74375 14.24375 17.625 15.125 20.75 12"></polygon>
    </g>
</svg>