<?xml version="1.0" encoding="UTF-8"?>
<svg width="24px" height="24px" viewBox="0 0 24 24" version="1.1" xmlns="http://www.w3.org/2000/svg" xmlns:xlink="http://www.w3.org/1999/xlink">
    <!-- Generator: Sketch 63.1 (92452) - https://sketch.com -->
    <title>label</title>
    <desc>Created with Sketch.</desc>
    <g id="label" stroke="none" stroke-width="1" fill="none" fill-rule="evenodd">
        <path d="M10.56875,9.68125 L6.6375,5.75 L10.75,5.75 L10.75,4.5 L4.5,4.5 L4.5,10.74375 L5.75,10.75625 L5.75,6.63125 L9.68125,10.5625 L10.56875,9.68125 L10.56875,9.68125 Z M19.5,8.25 L13.25,8.25 L13.25,9.5 L19.5,9.5 L19.5,19.5 L9.5,19.5 L9.5,13.25 L8.25,13.25 L8.25,19.5 C8.25,20.1903559 8.80964406,20.75 9.5,20.75 L19.5,20.75 C20.1903559,20.75 20.75,20.1903559 20.75,19.5 L20.75,9.5 C20.75,8.80964406 20.1903559,8.25 19.5,8.25 Z M13.875,17.625 L15.125,17.625 L15.125,13.25 L17,13.25 L17,12 L12,12 L12,13.25 L13.875,13.25 L13.875,17.625 Z" id="Fill" fill="#000000"></path>
    </g>
</svg>