<?xml version="1.0" encoding="UTF-8"?>
<svg width="24px" height="24px" viewBox="0 0 24 24" version="1.1" xmlns="http://www.w3.org/2000/svg" xmlns:xlink="http://www.w3.org/1999/xlink">
    <!-- Generator: Sketch 63.1 (92452) - https://sketch.com -->
    <title>launch</title>
    <desc>Created with Sketch.</desc>
    <g id="launch" stroke="none" stroke-width="1" fill="none" fill-rule="evenodd">
        <path d="M18.25,19.5 L5.75,19.5 C5.05964406,19.5 4.5,18.9403559 4.5,18.25 L4.5,5.75 C4.5,5.05964406 5.05964406,4.5 5.75,4.5 L11.375,4.5 L11.375,5.75 L5.75,5.75 L5.75,18.25 L18.25,18.25 L18.25,12.625 L19.5,12.625 L19.5,18.25 C19.5,18.9403559 18.9403559,19.5 18.25,19.5 Z M15.125,3.25 L15.125,4.5 L18.61875,4.5 L13.25,9.86875 L14.13125,10.75 L19.5,5.38125 L19.5,8.875 L20.75,8.875 L20.75,3.25 L15.125,3.25 Z" id="primary" fill="#000000"></path>
    </g>
</svg>