<?xml version="1.0" encoding="UTF-8"?>
<svg width="24px" height="24px" viewBox="0 0 24 24" version="1.1" xmlns="http://www.w3.org/2000/svg" xmlns:xlink="http://www.w3.org/1999/xlink">
    <!-- Generator: Sketch 63.1 (92452) - https://sketch.com -->
    <title>layout</title>
    <desc>Created with Sketch.</desc>
    <g id="layout" stroke="none" stroke-width="1" fill="none" fill-rule="evenodd">
        <path d="M12,17 L8.19375,11.625 C6.92204203,10.1235123 6.63019117,8.02331364 7.44431613,6.23197138 C8.25844108,4.44062911 10.0325539,3.2793647 12,3.25 C14.781717,3.27748899 17.0173503,5.54945133 17,8.33125 C17.0005113,9.49683445 16.6036898,10.6277756 15.875,11.5375 L12,17 Z M12,4.5 C9.90717724,4.52403267 8.22917377,6.23839287 8.25,8.33125 C8.25418513,9.248639 8.58423867,10.1346888 9.18125,10.83125 L12,14.825 L14.89375,10.75 C15.4438072,10.0634038 15.745563,9.21099856 15.75,8.33125 C15.7708262,6.23839287 14.0928228,4.52403267 12,4.5 Z M12,8.875 C12.6903559,8.875 13.25,8.31535594 13.25,7.625 C13.25,6.93464406 12.6903559,6.375 12,6.375 C11.3096441,6.375 10.75,6.93464406 10.75,7.625 C10.75,8.31535594 11.3096441,8.875 12,8.875 Z M19.5,9.5 L18.25,9.5 L18.25,10.75 L19.5,10.75 L19.5,19.5 L4.5,19.5 L4.5,10.75 L5.75,10.75 L5.75,9.5 L4.5,9.5 C3.80964406,9.5 3.25,10.0596441 3.25,10.75 L3.25,19.5 C3.25,20.1903559 3.80964406,20.75 4.5,20.75 L19.5,20.75 C20.1903559,20.75 20.75,20.1903559 20.75,19.5 L20.75,10.75 C20.75,10.0596441 20.1903559,9.5 19.5,9.5 Z" id="Fill" fill="#000000"></path>
    </g>
</svg>