<?xml version="1.0" encoding="UTF-8"?>
<svg width="24px" height="24px" viewBox="0 0 24 24" version="1.1" xmlns="http://www.w3.org/2000/svg" xmlns:xlink="http://www.w3.org/1999/xlink">
    <!-- Generator: Sketch 63.1 (92452) - https://sketch.com -->
    <title>lightmode</title>
    <desc>Created with Sketch.</desc>
    <g id="lightmode" stroke="none" stroke-width="1" fill="none" fill-rule="evenodd">
        <path d="M11.375,3.25 L12.625,3.25 L12.625,5.125 L11.375,5.125 L11.375,3.25 Z M18.875,11.375 L20.75,11.375 L20.75,12.625 L18.875,12.625 L18.875,11.375 Z M11.375,18.875 L12.625,18.875 L12.625,20.75 L11.375,20.75 L11.375,18.875 Z M3.25,11.375 L5.125,11.375 L5.125,12.625 L3.25,12.625 L3.25,11.375 Z M5.40625,6.301875 L6.29,5.41875 L7.61625,6.74375 L6.73125,7.6275 L5.40625,6.301875 Z M16.375,6.738125 L17.7,5.4125 L18.58375,6.29625 L17.258125,7.6225 L16.375,6.738125 Z M16.37625,17.26 L17.26,16.37625 L18.58625,17.7025 L17.7025,18.58625 L16.37625,17.26 Z M5.41875,17.70625 L6.74375,16.375 L7.625,17.2625 L6.3,18.5875 L5.41875,17.70625 L5.41875,17.70625 Z M12,7 C9.23857625,7 7,9.23857625 7,12 C7,14.7614237 9.23857625,17 12,17 C14.7614237,17 17,14.7614237 17,12 C17,9.23857625 14.7614237,7 12,7 L12,7 Z M12,15.75 C9.92893219,15.75 8.25,14.0710678 8.25,12 C8.25,9.92893219 9.92893219,8.25 12,8.25 L12,15.75 Z" id="primary" fill="#000000"></path>
    </g>
</svg>