<?xml version="1.0" encoding="UTF-8"?>
<svg width="24px" height="24px" viewBox="0 0 24 24" version="1.1" xmlns="http://www.w3.org/2000/svg" xmlns:xlink="http://www.w3.org/1999/xlink">
    <!-- Generator: Sketch 63.1 (92452) - https://sketch.com -->
    <title>link</title>
    <desc>Created with Sketch.</desc>
    <g id="link" stroke="none" stroke-width="1" fill="none" fill-rule="evenodd">
        <path d="M20.28125,6.225 C19.577618,5.51892056 18.621818,5.12204287 17.625,5.12204287 C16.628182,5.12204287 15.672382,5.51892056 14.96875,6.225 L15.85625,7.1125 C16.48928,6.47947002 17.4119413,6.23224366 18.2766763,6.46394871 C19.1414113,6.69565376 19.8168462,7.3710887 20.0485513,8.23582372 C20.2802563,9.10055875 20.03303,10.02322 19.4,10.65625 L14.4,15.65625 C13.7680865,16.28928 12.8464569,16.5371019 11.9822801,16.3063638 C11.1181033,16.0756256 10.4426683,15.4013819 10.2104051,14.5376138 C9.97814179,13.6738456 10.2243365,12.75178 10.85625,12.11875 L11.7375,11.23125 L10.85625,10.34375 L9.96875,11.23125 C9.26267056,11.934882 8.86579287,12.890682 8.86579287,13.8875 C8.86579287,14.884318 9.26267056,15.840118 9.96875,16.54375 C10.6759318,17.2418735 11.6312951,17.6307626 12.625,17.6250631 C13.6257218,17.6291146 14.5865758,17.2330717 15.29375,16.525 L20.29375,11.525 C21.7525696,10.0574659 21.7469757,7.6856366 20.28125,6.225 L20.28125,6.225 Z M4.61875,17.5125 C4.14739087,17.0433291 3.88239934,16.405682 3.88239934,15.740625 C3.88239934,15.075568 4.14739087,14.4379209 4.61875,13.96875 L9.61875,8.96875 C10.0879209,8.49739087 10.725568,8.23239934 11.390625,8.23239934 C12.055682,8.23239934 12.6933291,8.49739087 13.1625,8.96875 C13.6310316,9.44176713 13.8880628,10.0843451 13.875,10.75 C13.8788519,11.4175684 13.6155485,12.0589486 13.14375,12.53125 L11.81875,13.875 L12.70625,14.7625 L14.03125,13.4375 C15.4999822,11.9687677 15.4999822,9.58748228 14.03125,8.11875004 C12.5625177,6.6500178 10.1812323,6.65001778 8.7125,8.11875 L3.7125,13.11875 C3.00450105,13.82263 2.60640329,14.7797716 2.60640329,15.778125 C2.60640329,16.7764784 3.00450105,17.73362 3.7125,18.4375 C4.42426363,19.1302999 5.38181075,19.5124196 6.375,19.5 C7.37693904,19.5009566 8.3385739,19.105518 9.05,18.4 L8.1625,17.5125 C7.69332908,17.9838591 7.05568198,18.2488507 6.390625,18.2488507 C5.72556802,18.2488507 5.08792092,17.9838591 4.61875,17.5125 L4.61875,17.5125 Z" id="Fill" fill="#000000"></path>
    </g>
</svg>