<?xml version="1.0" encoding="UTF-8"?>
<svg width="24px" height="24px" viewBox="0 0 24 24" version="1.1" xmlns="http://www.w3.org/2000/svg" xmlns:xlink="http://www.w3.org/1999/xlink">
    <!-- Generator: Sketch 63.1 (92452) - https://sketch.com -->
    <title>location_shelf</title>
    <desc>Created with Sketch.</desc>
    <g id="location_shelf" stroke="none" stroke-width="1" fill="none" fill-rule="evenodd">
        <path d="M14.8354139,2.87483326 C14.6845155,3.26995166 14.5810867,3.68903106 14.5322179,4.12488568 L5.125,4.125 L5.125,6.625 L14.8731996,6.62597617 C15.0561863,7.0778296 15.3019627,7.49820587 15.6004349,7.87514491 L5.125,7.875 L5.125,10.375 L17.403,10.375 L17.403,11.625 L5.125,11.625 L5.125,14.125 L17.403,14.125 L17.4032258,14.5108936 L17.4154292,14.7274682 L17.4513581,14.9235997 C17.4871421,15.0830239 17.5375952,15.2342699 17.6009803,15.3760268 L5.125,15.375 L5.125,17.875 L18.875,17.875 L18.8750865,16.5389933 C19.0729887,16.6024076 19.2829587,16.636 19.5,16.636 L19.5,16.636 L19.6809177,16.6282 L19.8678061,16.6034148 C19.9559689,16.5876052 20.0422296,16.5662125 20.1262197,16.5396101 L20.125,17.875 C20.125,17.9174678 20.1228822,17.9594409 20.1187465,18.0008195 L20.125,18 L20.125,21 L18.875,21 L18.875,19.125 L5.125,19.125 L5.125,19.125 L5.125,21 L3.875,21 L3.875,18 L3.881,18 L3.875,17.875 L3.875,4.125 C3.875,3.43464406 4.43464406,2.875 5.125,2.875 L5.125,2.875 Z M19.5,2.136 C21.0878187,2.136 22.375,3.42318134 22.375,5.011 C22.375,6.38396298 21.4126001,7.53214541 20.1256086,7.81773886 L20.1256086,7.81773886 L20.125,12.511 L20.1166559,12.6133779 C20.0727436,12.879872 19.860255,13.0895432 19.5923579,13.1292234 L19.5923579,13.1292234 L19.5,13.136 L19.3976221,13.1276559 C19.131128,13.0837436 18.9214568,12.871255 18.8817766,12.6033579 L18.8817766,12.6033579 L18.875,12.511 L18.875382,7.81795849 L18.709342,7.77591257 C17.5059841,7.43244683 16.625,6.32460585 16.625,5.011 C16.625,3.42318134 17.9121813,2.136 19.5,2.136 Z" id="Combined-Shape" fill="#000000"></path>
    </g>
</svg>