<?xml version="1.0" encoding="UTF-8"?>
<svg width="24px" height="24px" viewBox="0 0 24 24" version="1.1" xmlns="http://www.w3.org/2000/svg" xmlns:xlink="http://www.w3.org/1999/xlink">
    <!-- Generator: Sketch 63.1 (92452) - https://sketch.com -->
    <title>location_queue</title>
    <desc>Created with Sketch.</desc>
    <g id="location_queue" stroke="none" stroke-width="1" fill="none" fill-rule="evenodd">
        <path d="M6.8125,4.9375 C6.09562055,5.48761241 5.46381888,6.14047413 4.9375,6.875 L5.9375,7.625 C6.39652935,6.98839236 6.94366116,6.42021702 7.5625,5.9375 L6.8125,4.9375 Z M4.875,9.6875 L3.6875,9.3125 C3.38560165,10.1758494 3.23752336,11.0854732 3.25,12 L4.5,12 C4.49746364,11.2138277 4.62415198,10.432583 4.875,9.6875 L4.875,9.6875 Z M3.6875,14.75 C3.97735132,15.6215221 4.39889972,16.4435415 4.9375,17.1875 L5.9375,16.4375 C5.48567465,15.8048658 5.12779777,15.1101636 4.875,14.375 L3.6875,14.75 Z M6.875,19.0625 C7.61895852,19.6011003 8.44097791,20.0226487 9.3125,20.3125 L9.6875,19.125 C8.95233641,18.8722022 8.25763423,18.5143254 7.625,18.0625 L6.875,19.0625 Z M9.3125,3.6875 L9.6875,4.875 C10.432583,4.62415198 11.2138277,4.49746364 12,4.5 L12,3.25 C11.0854732,3.23752336 10.1758494,3.38560165 9.3125,3.6875 L9.3125,3.6875 Z M17.125,19.0625 C17.8611823,18.5138203 18.5138203,17.8611823 19.0625,17.125 L18.0625,16.375 C17.597698,17.0273791 17.0273791,17.597698 16.375,18.0625 L17.125,19.0625 Z M19.125,14.3125 L20.3125,14.6875 C20.5843754,13.816789 20.7316689,12.9119857 20.75,12 L19.5,12 C19.5025364,12.7861723 19.375848,13.567417 19.125,14.3125 L19.125,14.3125 Z M20.25,9.25 C19.9601487,8.37847791 19.5386003,7.55645852 19,6.8125 L18,7.5625 C18.4518254,8.19513423 18.8097022,8.88983641 19.0625,9.625 L20.25,9.25 Z M17.0625,4.875 C16.3185415,4.33639972 15.4965221,3.91485132 14.625,3.625 L14.25,4.8125 C14.9851636,5.06529777 15.6798658,5.42317465 16.3125,5.875 L17.0625,4.875 Z M14.6875,20.3125 L14.3125,19.125 C13.567417,19.375848 12.7861723,19.5025364 12,19.5 L12,20.75 C12.9083742,20.695884 13.8088639,20.5492927 14.6875,20.3125 L14.6875,20.3125 Z" id="primary" fill="#000000"></path>
    </g>
</svg>