<?xml version="1.0" encoding="UTF-8"?>
<svg width="24px" height="24px" viewBox="0 0 24 24" version="1.1" xmlns="http://www.w3.org/2000/svg" xmlns:xlink="http://www.w3.org/1999/xlink">
    <!-- Generator: Sketch 63.1 (92452) - https://sketch.com -->
    <title>log</title>
    <desc>Created with Sketch.</desc>
    <g id="log" stroke="none" stroke-width="1" fill="none" fill-rule="evenodd">
        <path d="M18.25,3.25 L7,3.25 C6.30964406,3.25 5.75,3.80964406 5.75,4.5 L5.75,7 L4.5,7 L4.5,8.25 L5.75,8.25 L5.75,11.375 L4.5,11.375 L4.5,12.625 L5.75,12.625 L5.75,15.75 L4.5,15.75 L4.5,17 L5.75,17 L5.75,19.5 C5.75,20.1903559 6.30964406,20.75 7,20.75 L18.25,20.75 C18.9403559,20.75 19.5,20.1903559 19.5,19.5 L19.5,4.5 C19.5,3.80964406 18.9403559,3.25 18.25,3.25 Z M18.25,19.5 L7,19.5 L7,17 L8.25,17 L8.25,15.75 L7,15.75 L7,12.625 L8.25,12.625 L8.25,11.375 L7,11.375 L7,8.25 L8.25,8.25 L8.25,7 L7,7 L7,4.5 L18.25,4.5 L18.25,19.5 Z M10.75,7 L15.75,7 L15.75,8.25 L10.75,8.25 L10.75,7 Z M10.75,11.375 L15.75,11.375 L15.75,12.625 L10.75,12.625 L10.75,11.375 Z M10.75,15.75 L15.75,15.75 L15.75,17 L10.75,17 L10.75,15.75 Z" id="primary" fill="#000000"></path>
    </g>
</svg>