<?xml version="1.0" encoding="UTF-8"?>
<svg width="24px" height="24px" viewBox="0 0 24 24" version="1.1" xmlns="http://www.w3.org/2000/svg" xmlns:xlink="http://www.w3.org/1999/xlink">
    <!-- Generator: Sketch 63.1 (92452) - https://sketch.com -->
    <title>logo_small</title>
    <desc>Created with Sketch.</desc>
    <g id="logo_small" stroke="none" stroke-width="1" fill="none" fill-rule="evenodd">
        <path d="M13.4256597,24 L11.9418637,23.9922516 C8.7355,23.9767548 5.72759592,22.7137662 3.47321832,20.438837 C1.21729026,18.1592587 -0.0168806982,15.1404834 0,11.938846 C0.0141286223,8.73410914 1.27775843,5.72928097 3.55539302,3.47294789 C5.83457807,1.21971418 8.89364754,-0.0525725309 12.0581487,0.00166624491 C18.6770881,0.0357591897 24.0339483,5.44259029 24,12.0550719 L24,23.9922516 L21.032246,23.9922516 L21.032246,12.0488732 C21.0570535,7.06355485 17.0258418,2.99409699 12.045745,2.96775244 C9.64872449,2.99719635 7.36023664,3.88516259 5.64387075,5.58206143 C3.9306058,7.27896027 2.97861966,9.54149206 2.9677664,11.9527931 C2.95536267,14.3656437 3.88409182,16.6359239 5.58185211,18.3498692 C7.27961241,20.0638146 9.5432928,21.013768 11.9558179,21.0261654 L13.4411644,21.0339138 L13.4256597,24 Z" id="Fill-1" fill="#009C98"></path>
    </g>
</svg>