<?xml version="1.0" encoding="UTF-8"?>
<svg width="165px" height="24px" viewBox="0 0 165 24" version="1.1" xmlns="http://www.w3.org/2000/svg" xmlns:xlink="http://www.w3.org/1999/xlink">
    <!-- Generator: Sketch 63.1 (92452) - https://sketch.com -->
    <title>logo_large</title>
    <desc>Created with Sketch.</desc>
    <g id="logo_large" stroke="none" stroke-width="1" fill="none" fill-rule="evenodd">
        <path d="M119.382609,2.76521739 L119.382609,11.7913043 C119.369822,13.6833663 120.118816,15.5010085 121.46087,16.8347826 C122.805651,18.1858578 124.632867,18.9461548 126.53913,18.9478261 L126.53913,18.9478261 L126.83687,18.9426259 C128.618922,18.8744625 130.315809,18.1435217 131.591304,16.8869565 C132.948541,15.5699043 133.716714,13.7607801 133.721739,11.8695652 L133.721739,11.8695652 L133.747826,2.76521739 L136.104348,2.76521739 L136.104348,11.9217391 C136.051763,17.1558817 131.773395,21.3603506 126.53913,21.3217391 L126.53913,21.3217391 L126.486957,21.3217391 C123.959923,21.3229374 121.537037,20.314967 119.756522,18.5217391 C117.972993,16.7402562 116.987829,14.3118583 117.026087,11.7913043 L117.026087,11.7913043 L117.026087,2.76521739 L119.382609,2.76521739 Z M10.9043478,2.4173913 C11.2521739,2.42608696 11.6086957,2.49565217 11.9565217,2.49565217 L11.9565217,2.49565217 L12.0869565,2.49565217 C12.9881939,2.62671597 13.8664213,2.88432934 14.6956522,3.26086957 L14.6956522,3.26086957 L14.8086957,3.31304348 C15.0782609,3.44347826 15.3478261,3.5826087 15.6086957,3.73913043 L15.6086957,3.73913043 L15.8434783,3.87826087 C16.0608696,4.0173913 16.2782609,4.16521739 16.4869565,4.32173913 C16.5746317,4.38059312 16.6588303,4.44446786 16.7391304,4.51304348 C16.9579787,4.68680427 17.1669969,4.87259824 17.3652174,5.06956522 C17.4213743,5.1112574 17.4737506,5.15781405 17.5217391,5.20869565 L17.5217391,5.20869565 L17.7463221,5.44382749 C19.3603511,7.19367355 20.2474173,9.4983934 20.2173913,11.8869565 L20.2173913,11.8869565 L20.2173913,20.9217391 L17.8608696,20.9217391 L17.8608696,11.8782609 C17.8722983,9.98901689 17.1233336,8.17457938 15.7826087,6.84347826 C14.8593465,5.92312709 13.7014409,5.27349691 12.4347826,4.96521739 C12.2210405,4.90515128 12.0030115,4.86154547 11.7826087,4.83478261 L11.7826087,4.83478261 L11.5826087,4.83478261 C11.294249,4.79694912 11.0038619,4.77662202 10.7130435,4.77391304 L10.7130435,4.77391304 L10.1391304,4.77391304 C9.11900543,4.86223256 8.12770026,5.15814455 7.22608696,5.64347826 C6.6527346,5.95374048 6.12584074,6.3430565 5.66086957,6.8 C4.3081552,8.11560875 3.54068809,9.91950617 3.53087728,11.8064525 C3.52106647,13.6933987 4.26973456,15.505179 5.60869565,16.8347826 C6.95223259,18.1813468 8.77607106,18.9384118 10.6782609,18.9391304 L10.6782609,18.9391304 L11.9478261,18.9391304 L11.9478261,21.2347826 C11.5384994,21.2899923 11.1260679,21.3190368 10.7130435,21.3217391 L10.7130435,21.3217391 L10.6695652,21.3217391 C8.14143149,21.3156761 5.71851269,20.3089924 3.93043478,18.5217391 L3.93043478,18.5217391 L3.71112205,18.2964319 C2.06188595,16.5437066 1.15526422,14.2145925 1.19130435,11.8 L1.19130435,11.8 L1.19856064,11.4737173 C1.29334389,9.08619477 2.29964486,6.82058459 4.0173913,5.14782609 C5.8172989,3.37068167 8.25337657,2.38748323 10.7826087,2.4173913 L10.7826087,2.4173913 Z M48.4434783,5.13043478 C52.1923379,1.44671414 58.2111037,1.47777874 61.9217391,5.2 L61.9217391,5.2 L60.2434783,6.84347826 C58.9031573,5.49742356 57.0821671,4.74024207 55.1826087,4.73913043 L55.1826087,4.73913043 L55.1913043,4.71304348 C52.3086951,4.67896956 49.6912786,6.39022868 48.5662788,9.04446539 C47.4412791,11.6987021 48.0317623,14.7696314 50.0608696,16.8173913 C51.4022768,18.1618255 53.2225636,18.9187146 55.1217391,18.9217391 C57.0268597,18.9538871 58.8631511,18.2099536 60.2086957,16.8608696 L60.2086957,16.8608696 L61.8695652,18.5217391 C60.0736676,20.3121841 57.640276,21.3161927 55.1043478,21.3130509 L55.1043478,21.3130509 L54.7756044,21.3074491 C52.3697705,21.2248436 50.0799512,20.2316104 48.373913,18.5217391 C46.5879511,16.7469421 45.5894562,14.3293248 45.6024089,11.8115095 C45.6156154,9.29369422 46.6391737,6.88658113 48.4434783,5.13043478 Z M101.704348,2.76521739 L101.704348,11.8695652 C101.709373,13.7607801 102.477546,15.5699043 103.834783,16.8869565 C105.181138,18.2133309 106.997008,18.9540559 108.886957,18.9478261 L108.886957,18.9478261 L110.121739,18.9478261 L110.121739,21.1913043 C109.729906,21.246535 109.334828,21.2755849 108.93913,21.278328 L108.93913,21.278328 L108.886957,21.278328 C103.664785,21.2976867 99.4051244,17.1001545 99.3478261,11.8782609 L99.3478261,11.8782609 L99.3478261,2.76521739 L101.704348,2.76521739 Z M72.9652174,2.76521739 L72.9652174,11.8 C72.9491491,13.6909905 73.6950856,15.508819 75.0347826,16.8434783 C76.3761898,18.1879125 78.1964767,18.9448015 80.0956522,18.9478261 L80.0956522,18.9478261 L80.3927564,18.9427971 C82.1710329,18.8757719 83.8648314,18.1479506 85.1391304,16.8956522 C86.4955375,15.5780311 87.2635541,13.7692737 87.2695652,11.8782609 L87.2695652,11.8782609 L87.2695652,2.76521739 L89.626087,2.76521739 L89.626087,11.8521739 C89.6249509,14.3643617 88.608943,16.769541 86.8086957,18.5217391 C85.0092648,20.2973101 82.5801181,21.288352 80.0521739,21.2783372 L80.0521739,21.2783372 L79.7234305,21.2727268 C77.3175966,21.190061 75.0277773,20.1968278 73.3217391,18.4869565 C71.540695,16.7160257 70.5472294,14.3028757 70.5652174,11.7913043 L70.5652174,11.7913043 L70.5652174,2.76521739 L72.9652174,2.76521739 Z M163.252174,11.826087 C163.247665,14.3512168 162.234819,16.7699618 160.438698,18.5448561 C158.642576,20.3197504 156.211962,21.3037713 153.686957,21.2782609 C152.448106,21.2707766 151.222506,21.0227034 150.078261,20.5478261 L150.078261,20.5478261 L150.947826,18.3913043 L150.965217,18.3913043 C153.169871,19.3043111 155.684013,19.0628081 157.674554,17.7468199 C159.665095,16.4308316 160.872114,14.2121978 160.895652,11.826087 L160.895652,11.826087 Z M38.7130435,2.39985068 L39.110467,2.42636477 C39.373913,2.45217391 39.6347826,2.48695652 39.8956522,2.48695652 L39.8956522,2.48695652 L39.9217391,4.73913043 L38.6956522,4.73913043 C36.8028794,4.73154955 34.9838091,5.47230499 33.6347826,6.8 C32.2758788,8.11590889 31.507393,9.9257712 31.5043478,11.8173913 L31.5043478,11.8173913 L31.5043478,20.9217391 L29.1478261,20.9217391 L29.1478261,11.8086957 C29.205155,6.57518547 33.4792998,2.37098131 38.7130435,2.39985068 L38.7130435,2.39985068 Z M153.686957,2.40869565 C154.928736,2.41505331 156.157396,2.66314819 157.304348,3.13913043 L157.304348,3.13913043 L156.434783,5.28695652 C155.562209,4.93061587 154.629471,4.74465871 153.686957,4.73913043 C151.784528,4.72058646 149.95339,5.46215953 148.599968,6.79925585 C147.246545,8.13635216 146.482805,9.95835603 146.478261,11.8608696 L146.478261,11.8608696 L144.121739,11.8608696 C144.126248,9.33573973 145.139094,6.91699469 146.935215,5.1421004 C148.731337,3.36720611 151.161952,2.38318522 153.686957,2.40869565 Z" id="Combined-Shape" fill="#009C98"></path>
    </g>
</svg>