<?xml version="1.0" encoding="UTF-8"?>
<svg width="24px" height="24px" viewBox="0 0 24 24" version="1.1" xmlns="http://www.w3.org/2000/svg" xmlns:xlink="http://www.w3.org/1999/xlink">
    <!-- Generator: Sketch 63.1 (92452) - https://sketch.com -->
    <title>material_qstatus</title>
    <desc>Created with Sketch.</desc>
    <g id="material_qstatus" stroke="none" stroke-width="1" fill="none" fill-rule="evenodd">
        <path d="M12.5048804,2.2953051 L20.2005326,6.79650064 C20.5071803,6.97585926 20.6956522,7.30444023 20.6956522,7.65968995 L20.6956522,16.34031 C20.6956522,16.6955598 20.5071803,17.0241407 20.2005326,17.2034994 L12.5048804,21.7046949 C12.1930084,21.8871091 11.8069916,21.8871091 11.4951196,21.7046949 L3.79946743,17.2034994 C3.49281967,17.0241407 3.30434783,16.6955598 3.30434783,16.34031 L3.30434783,7.65968995 C3.30434783,7.30444023 3.49281967,6.97585926 3.79946743,6.79650064 L11.4951196,2.2953051 C11.8069916,2.11289085 12.1930084,2.11289085 12.5048804,2.2953051 Z M12,3.44811802 L4.55434783,7.80308828 L4.55434783,16.1969117 L12,20.551882 L19.4456522,16.1969117 L19.4456522,7.80308828 L12,3.44811802 Z M12,6.375 C14.0020322,6.375 15.625,7.99796778 15.625,10 L15.625,12 C15.625,13.7889829 14.3290742,15.275286 12.6247709,15.5713612 L12.625,16.375 L14,16.375 L14,17.625 L12.5,17.625 C11.8786797,17.625 11.375,17.1213203 11.375,16.5 L11.375,16.5 L11.374226,15.5711868 C9.67041733,15.2747028 8.375,13.7886319 8.375,12 L8.375,10 C8.375,7.99796778 9.99796778,6.375 12,6.375 Z M12,7.625 C10.6883237,7.625 9.625,8.68832372 9.625,10 L9.625,12 C9.625,13.0952068 10.3663179,14.0172696 11.374547,14.2917818 L11.375,14 L12.625,14 L12.6244664,14.2920502 C13.6331985,14.0178711 14.375,13.095564 14.375,12 L14.375,10 C14.375,8.68832372 13.3116763,7.625 12,7.625 Z" id="primary" fill="#000000"></path>
    </g>
</svg>