<?xml version="1.0" encoding="UTF-8"?>
<svg width="24px" height="24px" viewBox="0 0 24 24" version="1.1" xmlns="http://www.w3.org/2000/svg" xmlns:xlink="http://www.w3.org/1999/xlink">
    <!-- Generator: Sketch 63.1 (92452) - https://sketch.com -->
    <title>material_mapping</title>
    <desc>Created with Sketch.</desc>
    <g id="material_mapping" stroke="none" stroke-width="1" fill="none" fill-rule="evenodd">
        <path d="M10.4375,21.259375 C10.3295004,21.259375 10.2233487,21.2313497 10.129375,21.178125 L4.816875,18.16875 C4.62104351,18.0577826 4.5,17.8500861 4.5,17.625 L4.5,11.375 C4.5,11.1499139 4.62104351,10.9422174 4.816875,10.83125 L10.129375,7.821875 C10.3205476,7.71369043 10.5544524,7.71369043 10.745625,7.821875 L16.058125,10.83125 C16.2539565,10.9422174 16.375,11.1499139 16.375,11.375 L16.375,17.625 C16.375,17.8500861 16.2539565,18.0577826 16.058125,18.16875 L10.745625,21.178125 C10.6516513,21.2313497 10.5454996,21.259375 10.4375,21.259375 Z M5.75,17.260625 L10.4375,19.915625 L15.125,17.260625 L15.125,11.739375 L10.4375,9.084375 L5.75,11.73875 L5.75,17.260625 Z M10.5,13 C11.325,13 12,13.675 12,14.5 C12,15.325 11.325,16 10.5,16 C9.675,16 9,15.325 9,14.5 C9,13.675 9.675,13 10.5,13 Z M13.870625,2.821875 L19.183125,5.83125 C19.3789565,5.94221744 19.5,6.14991392 19.5,6.375 L19.5,12.625 L18.25,12.625 L18.25,6.739375 L13.5625,4.084375 L8.558125,6.91875 L7.941875,5.83125 L13.254375,2.821875 C13.4455476,2.71369043 13.6794524,2.71369043 13.870625,2.821875 Z" id="Fill" fill="#000000"></path>
    </g>
</svg>