<?xml version="1.0" encoding="UTF-8"?>
<svg width="24px" height="24px" viewBox="0 0 24 24" version="1.1" xmlns="http://www.w3.org/2000/svg" xmlns:xlink="http://www.w3.org/1999/xlink">
    <!-- Generator: Sketch 63.1 (92452) - https://sketch.com -->
    <title>material</title>
    <desc>Created with Sketch.</desc>
    <g id="material" stroke="none" stroke-width="1" fill="none" fill-rule="evenodd">
        <path d="M12.5048804,2.2953051 L20.2005326,6.79650064 C20.5071803,6.97585926 20.6956522,7.30444023 20.6956522,7.65968995 L20.6956522,16.34031 C20.6956522,16.6955598 20.5071803,17.0241407 20.2005326,17.2034994 L12.5048804,21.7046949 C12.1930084,21.8871091 11.8069916,21.8871091 11.4951196,21.7046949 L3.79946743,17.2034994 C3.49281967,17.0241407 3.30434783,16.6955598 3.30434783,16.34031 L3.30434783,7.65968995 C3.30434783,7.30444023 3.49281967,6.97585926 3.79946743,6.79650064 L11.4951196,2.2953051 C11.8069916,2.11289085 12.1930084,2.11289085 12.5048804,2.2953051 Z M12,3.44811802 L4.55434783,7.80308828 L4.55434783,16.1969117 L12,20.551882 L19.4456522,16.1969117 L19.4456522,7.80308828 L12,3.44811802 Z M12,7.375 C14.554317,7.375 16.625,9.44568303 16.625,12 C16.625,14.554317 14.554317,16.625 12,16.625 C9.44568303,16.625 7.375,14.554317 7.375,12 C7.375,9.44568303 9.44568303,7.375 12,7.375 Z M12,8.625 C10.136039,8.625 8.625,10.136039 8.625,12 C8.625,13.863961 10.136039,15.375 12,15.375 C13.863961,15.375 15.375,13.863961 15.375,12 C15.375,10.136039 13.863961,8.625 12,8.625 Z" id="Combined-Shape" fill="#000000"></path>
    </g>
</svg>