<?xml version="1.0" encoding="UTF-8"?>
<svg width="24px" height="24px" viewBox="0 0 24 24" version="1.1" xmlns="http://www.w3.org/2000/svg" xmlns:xlink="http://www.w3.org/1999/xlink">
    <!-- Generator: Sketch 63.1 (92452) - https://sketch.com -->
    <title>material_visualcontrol</title>
    <desc>Created with Sketch.</desc>
    <g id="material_visualcontrol" stroke="none" stroke-width="1" fill="none" fill-rule="evenodd">
        <path d="M12.5048804,2.2953051 L20.2005326,6.79650064 C20.5071803,6.97585926 20.6956522,7.30444023 20.6956522,7.65968995 L20.6956522,16.34031 C20.6956522,16.6955598 20.5071803,17.0241407 20.2005326,17.2034994 L12.5048804,21.7046949 C12.1930084,21.8871091 11.8069916,21.8871091 11.4951196,21.7046949 L3.79946743,17.2034994 C3.49281967,17.0241407 3.30434783,16.6955598 3.30434783,16.34031 L3.30434783,7.65968995 C3.30434783,7.30444023 3.49281967,6.97585926 3.79946743,6.79650064 L11.4951196,2.2953051 C11.8069916,2.11289085 12.1930084,2.11289085 12.5048804,2.2953051 Z M12,3.44811802 L4.55434783,7.80308828 L4.55434783,16.1969117 L12,20.551882 L19.4456522,16.1969117 L19.4456522,7.80308828 L12,3.44811802 Z M12,7.4375 C14.5626863,7.4375 17.174875,9.28306806 18.2595719,11.7482884 L18.370325,12 L18.2595719,12.2517116 C17.1882832,14.6864587 14.504101,16.5625 12,16.5625 C9.43731368,16.5625 6.82512504,14.7169319 5.7404281,12.2517116 L5.63474515,12.0115231 L5.73220207,11.7678808 C6.71123004,9.3203109 9.40509794,7.4375 12,7.4375 Z M12,8.6875 C10.0092882,8.6875 7.86888611,10.1261571 6.99792778,11.9896288 C7.9507072,13.8961409 10.0341998,15.3125 12,15.3125 C13.8369858,15.3125 15.8897099,13.9777439 16.8863723,12.2058188 L16.9966128,11.9994769 L16.8859102,11.7903169 C15.887491,9.99588543 13.8893854,8.6875 12,8.6875 Z M12,10.25 C12.9625,10.25 13.75,11.0375 13.75,12 C13.75,12.9625 12.9625,13.75 12,13.75 C11.0375,13.75 10.25,12.9625 10.25,12 C10.25,11.0375 11.0375,10.25 12,10.25 Z" id="Combined-Shape" fill="#000000"></path>
    </g>
</svg>