<?xml version="1.0" encoding="UTF-8"?>
<svg width="24px" height="24px" viewBox="0 0 24 24" version="1.1" xmlns="http://www.w3.org/2000/svg" xmlns:xlink="http://www.w3.org/1999/xlink">
    <!-- Generator: Sketch 63.1 (92452) - https://sketch.com -->
    <title>material_retreive</title>
    <desc>Created with Sketch.</desc>
    <g id="material_retreive" stroke="none" stroke-width="1" fill="none" fill-rule="evenodd">
        <path d="M12.5048804,2.2953051 L20.2005326,6.79650064 C20.5071803,6.97585926 20.6956522,7.30444023 20.6956522,7.65968995 L20.6956522,16.34031 C20.6956522,16.6955598 20.5071803,17.0241407 20.2005326,17.2034994 L12.5048804,21.7046949 C12.1930084,21.8871091 11.8069916,21.8871091 11.4951196,21.7046949 L3.79946743,17.2034994 C3.49281967,17.0241407 3.30434783,16.6955598 3.30434783,16.34031 L3.30434783,7.65968995 C3.30434783,7.30444023 3.49281967,6.97585926 3.79946743,6.79650064 L11.4951196,2.2953051 C11.8069916,2.11289085 12.1930084,2.11289085 12.5048804,2.2953051 Z M12,3.44811802 L4.55434783,7.80308828 L4.55434783,16.1969117 L12,20.551882 L19.4456522,16.1969117 L19.4456522,7.80308828 L12,3.44811802 Z M12,7.5 L15.75,11.25 L14.86625,12.13375 L12.625,9.8925 L12.625,16 L11.375,16 L11.375,9.8925 L9.13375,12.13375 L8.25,11.25 L12,7.5 Z" id="Combined-Shape" fill="#000000"></path>
    </g>
</svg>