<?xml version="1.0" encoding="UTF-8"?>
<svg width="24px" height="24px" viewBox="0 0 24 24" version="1.1" xmlns="http://www.w3.org/2000/svg" xmlns:xlink="http://www.w3.org/1999/xlink">
    <!-- Generator: Sketch 63.1 (92452) - https://sketch.com -->
    <title>network_disconnect</title>
    <desc>Created with Sketch.</desc>
    <g id="network_disconnect" stroke="none" stroke-width="1" fill="none" fill-rule="evenodd">
        <path d="M8.875,7.625 C9.22017797,7.625 9.5,7.34517797 9.5,7 C9.5,6.65482203 9.22017797,6.375 8.875,6.375 C8.52982203,6.375 8.25,6.65482203 8.25,7 C8.25,7.34517797 8.52982203,7.625 8.875,7.625 Z M8.875,12.625 C9.22017797,12.625 9.5,12.345178 9.5,12 C9.5,11.654822 9.22017797,11.375 8.875,11.375 C8.52982203,11.375 8.25,11.654822 8.25,12 C8.25,12.345178 8.52982203,12.625 8.875,12.625 Z M8.875,17.625 C9.22017797,17.625 9.5,17.345178 9.5,17 C9.5,16.654822 9.22017797,16.375 8.875,16.375 C8.52982203,16.375 8.25,16.654822 8.25,17 C8.25,17.345178 8.52982203,17.625 8.875,17.625 Z M17,3.875 L7,3.875 C6.30964406,3.875 5.75,4.43464406 5.75,5.125 L5.75,18.875 C5.75,19.5653559 6.30964406,20.125 7,20.125 L12,20.125 L12,18.875 L7,18.875 L7,15.125 L18.25,15.125 L18.25,5.125 C18.25,4.43464406 17.6903559,3.875 17,3.875 Z M17,13.875 L7,13.875 L7,10.125 L17,10.125 L17,13.875 Z M17,8.875 L7,8.875 L7,5.125 L17,5.125 L17,8.875 Z" id="Fill" fill="#000000"></path>
        <polygon id="Path" fill="#FF5C49" points="20.275 20.4875 18.50625 18.71875 20.275 16.95 19.39375 16.06875 17.625 17.83125 15.85625 16.06875 14.975 16.95 16.74375 18.71875 14.975 20.4875 15.85625 21.36875 17.625 19.6 19.39375 21.36875 20.275 20.4875"></polygon>
    </g>
</svg>