<?xml version="1.0" encoding="UTF-8"?>
<svg width="24px" height="24px" viewBox="0 0 24 24" version="1.1" xmlns="http://www.w3.org/2000/svg" xmlns:xlink="http://www.w3.org/1999/xlink">
    <!-- Generator: Sketch 63.1 (92452) - https://sketch.com -->
    <title>overflow menue</title>
    <desc>Created with Sketch.</desc>
    <g id="overflow-menue" stroke="none" stroke-width="1" fill="none" fill-rule="evenodd">
        <path d="M12,7 C12.6903559,7 13.25,6.44035594 13.25,5.75 C13.25,5.05964406 12.6903559,4.5 12,4.5 C11.3096441,4.5 10.75,5.05964406 10.75,5.75 C10.75,6.44035594 11.3096441,7 12,7 Z M12,13.25 C12.6903559,13.25 13.25,12.6903559 13.25,12 C13.25,11.3096441 12.6903559,10.75 12,10.75 C11.3096441,10.75 10.75,11.3096441 10.75,12 C10.75,12.6903559 11.3096441,13.25 12,13.25 Z M12,19.5 C12.6903559,19.5 13.25,18.9403559 13.25,18.25 C13.25,17.5596441 12.6903559,17 12,17 C11.3096441,17 10.75,17.5596441 10.75,18.25 C10.75,18.9403559 11.3096441,19.5 12,19.5 Z" id="primary" fill="#000000"></path>
    </g>
</svg>