<?xml version="1.0" encoding="UTF-8"?>
<svg width="24px" height="24px" viewBox="0 0 24 24" version="1.1" xmlns="http://www.w3.org/2000/svg" xmlns:xlink="http://www.w3.org/1999/xlink">
    <!-- Generator: Sketch 63.1 (92452) - https://sketch.com -->
    <title>paste</title>
    <desc>Created with Sketch.</desc>
    <g id="paste" stroke="none" stroke-width="1" fill="none" fill-rule="evenodd">
        <path d="M18.25,14.5 L13.14375,14.5 L14.75625,12.88125 L13.875,12 L10.75,15.125 L13.875,18.25 L14.75625,17.36875 L13.14375,15.75 L18.25,15.75 L18.25,20.75 L19.5,20.75 L19.5,15.75 C19.5,15.0596441 18.9403559,14.5 18.25,14.5 Z M16.81875,7.80625 L12.44375,3.43125 C12.3258007,3.31425843 12.1661269,3.24903953 12,3.24998954 L5.75,3.24998954 C5.05964406,3.24998954 4.5,3.80964406 4.5,4.5 L4.5,19.5 C4.5,20.1903559 5.05964406,20.75 5.75,20.75 L10.75,20.75 L10.75,19.5 L5.75,19.5 L5.75,4.5 L10.75,4.5 L10.75,8.25 C10.75,8.94035594 11.3096441,9.5 12,9.5 L15.75,9.5 L15.75,10.75 L17.0000105,10.75 L17.0000105,8.25 C17.0009605,8.08387313 16.9357416,7.92419927 16.81875,7.80625 Z M12,4.75625 L15.49375,8.25 L12,8.25 L12,4.75625 Z" id="Fill" fill="#000000"></path>
    </g>
</svg>