<?xml version="1.0" encoding="UTF-8"?>
<svg width="24px" height="24px" viewBox="0 0 24 24" version="1.1" xmlns="http://www.w3.org/2000/svg" xmlns:xlink="http://www.w3.org/1999/xlink">
    <!-- Generator: Sketch 63.1 (92452) - https://sketch.com -->
    <title>pause</title>
    <desc>Created with Sketch.</desc>
    <g id="pause" stroke="none" stroke-width="1" fill="none" fill-rule="evenodd">
        <path d="M9.5,5.75 L8.25,5.75 C7.55964406,5.75 7,6.30964406 7,7 L7,17 C7,17.6903559 7.55964406,18.25 8.25,18.25 L9.5,18.25 C10.1903559,18.25 10.75,17.6903559 10.75,17 L10.75,7 C10.75,6.30964406 10.1903559,5.75 9.5,5.75 Z M15.75,5.75 L14.5,5.75 C13.8096441,5.75 13.25,6.30964406 13.25,7 L13.25,17 C13.25,17.6903559 13.8096441,18.25 14.5,18.25 L15.75,18.25 C16.4403559,18.25 17,17.6903559 17,17 L17,7 C17,6.30964406 16.4403559,5.75 15.75,5.75 Z" id="primary" fill="#000000"></path>
    </g>
</svg>