<?xml version="1.0" encoding="UTF-8"?>
<svg width="24px" height="24px" viewBox="0 0 24 24" version="1.1" xmlns="http://www.w3.org/2000/svg" xmlns:xlink="http://www.w3.org/1999/xlink">
    <!-- Generator: Sketch 63.1 (92452) - https://sketch.com -->
    <title>physical merge</title>
    <desc>Created with Sketch.</desc>
    <g id="physical-merge" stroke="none" stroke-width="1" fill="none" fill-rule="evenodd">
        <path d="M19.5,5.75 L13.25,5.75 L13.25,4.5 C13.25,3.80964406 12.6903559,3.25 12,3.25 L4.5,3.25 C3.80964406,3.25 3.25,3.80964406 3.25,4.5 L3.25,17 C3.25,17.6903559 3.80964406,18.25 4.5,18.25 L10.75,18.25 L10.75,19.5 C10.75,20.1903559 11.3096441,20.75 12,20.75 L19.5,20.75 C20.1903559,20.75 20.75,20.1903559 20.75,19.5 L20.75,7 C20.75,6.30964406 20.1903559,5.75 19.5,5.75 Z M4.5,11.375 L8.35625,11.375 L6.74375,12.99375 L7.625,13.875 L10.75,10.75 L7.625,7.625 L6.74375,8.50625 L8.35625,10.125 L4.5,10.125 L4.5,4.5 L12,4.5 L12,17 L4.5,17 L4.5,11.375 Z M12,19.5 L12,18.25 C12.6903559,18.25 13.25,17.6903559 13.25,17 L13.25,7 L19.5,7 L19.5,12.625 L15.64375,12.625 L17.25625,11.00625 L16.375,10.125 L13.25,13.25 L16.375,16.375 L17.25625,15.49375 L15.64375,13.875 L19.5,13.875 L19.5,19.5 L12,19.5 Z" id="Fill" fill="#000000"></path>
    </g>
</svg>