<?xml version="1.0" encoding="UTF-8"?>
<svg width="24px" height="24px" viewBox="0 0 24 24" version="1.1" xmlns="http://www.w3.org/2000/svg" xmlns:xlink="http://www.w3.org/1999/xlink">
    <!-- Generator: Sketch 63.1 (92452) - https://sketch.com -->
    <title>production_modprod</title>
    <desc>Created with Sketch.</desc>
    <g id="production_modprod" stroke="none" stroke-width="1" fill="none" fill-rule="evenodd">
        <path d="M10.498,3.125 C11.7325228,3.125 12.7680022,3.97720628 13.0482417,5.12542236 L18,5.125 C18.8502278,5.125 19.5479464,5.77796975 19.6190353,6.60978878 L19.625,6.75 L19.625,11.625 L22,11.625 L22,12.875 L19.625,12.875 L19.625,14.75 C19.625,15.6002278 18.9720303,16.2979464 18.1402112,16.3690353 L18,16.375 L16.125,16.375 L16.125,17.75 C16.125,18.6002278 15.4720303,19.2979464 14.6402112,19.3690353 L14.5,19.375 L13.0479996,19.3755685 C12.7674064,20.523284 11.7321677,21.375 10.498,21.375 C9.26383232,21.375 8.22859358,20.523284 7.94800036,19.3755685 L6,19.375 C5.14977216,19.375 4.45205358,18.7220303 4.38096472,17.8902112 L4.375,17.75 L4.375,12.875 L2,12.875 L2,11.625 L4.375,11.625 L4.375,6.75 C4.375,5.89977216 5.02796975,5.20205358 5.85978878,5.13096472 L6,5.125 L7.94775831,5.12542236 C8.22799778,3.97720628 9.26347717,3.125 10.498,3.125 Z M10.498,17.375 C9.73860847,17.375 9.123,17.9906085 9.123,18.75 C9.123,19.5093915 9.73860847,20.125 10.498,20.125 C11.2573915,20.125 11.873,19.5093915 11.873,18.75 C11.873,17.9906085 11.2573915,17.375 10.498,17.375 Z M14.5,12.875 L12.3980338,12.8761295 C12.1352483,13.6740265 11.3838871,14.25 10.498,14.25 C9.61211295,14.25 8.86075171,13.6740265 8.59796625,12.8761295 L5.625,12.875 L5.625,17.75 C5.625,17.9312184 5.75354325,18.082414 5.92442442,18.1173813 L6,18.125 L7.94775831,18.1254224 C8.22799778,16.9772063 9.26347717,16.125 10.498,16.125 C11.7325228,16.125 12.7680022,16.9772063 13.0482417,18.1254224 L14.5,18.125 C14.6812184,18.125 14.832414,17.9964568 14.8673813,17.8255756 L14.875,17.75 L14.875,13.2 C14.875,13.0128224 14.7269512,12.875 14.5,12.875 Z M7.94800036,6.37556855 L6,6.375 C5.81878157,6.375 5.66758602,6.50354325 5.63261867,6.67442442 L5.625,6.75 L5.625,11.625 L8.59763554,11.6248756 C8.86012087,10.8264572 9.61174104,10.25 10.498,10.25 C11.384259,10.25 12.1358791,10.8264572 12.3983645,11.6248756 L14.5,11.625 C15.3482131,11.625 16.0437058,12.228584 16.1183648,13.0524106 L16.125,13.2 L16.125,15.125 L18,15.125 C18.1812184,15.125 18.332414,14.9964568 18.3673813,14.8255756 L18.375,14.75 L18.375,6.75 C18.375,6.56878157 18.2464568,6.41758602 18.0755756,6.38261867 L18,6.375 L13.0479996,6.37556855 C12.7674064,7.52328399 11.7321677,8.375 10.498,8.375 C9.26383232,8.375 8.22859358,7.52328399 7.94800036,6.37556855 Z M10.498,4.375 C9.73860847,4.375 9.123,4.99060847 9.123,5.75 C9.123,6.50939153 9.73860847,7.125 10.498,7.125 C11.2573915,7.125 11.873,6.50939153 11.873,5.75 C11.873,4.99060847 11.2573915,4.375 10.498,4.375 Z" id="primary" fill="#000000"></path>
    </g>
</svg>