<?xml version="1.0" encoding="UTF-8"?>
<svg width="24px" height="24px" viewBox="0 0 24 24" version="1.1" xmlns="http://www.w3.org/2000/svg" xmlns:xlink="http://www.w3.org/1999/xlink">
    <!-- Generator: Sketch 63.1 (92452) - https://sketch.com -->
    <title>production_warehouse</title>
    <desc>Created with Sketch.</desc>
    <g id="production_warehouse" stroke="none" stroke-width="1" fill="none" fill-rule="evenodd">
        <path d="M11.4745294,2.14918827 C11.7966054,1.95027058 12.2033946,1.95027058 12.5254706,2.14918827 L12.5254706,2.14918827 L21.1504706,7.4760827 C21.4454356,7.65825631 21.625,7.98020787 21.625,8.32689443 L21.625,8.32689443 L21.625,21.4090638 L20.375,21.4090638 L20.375,8.46632873 L12,3.29383704 L3.625,8.46632873 L3.625,21.4090638 L2.375,21.4090638 L2.375,8.32689443 C2.375,7.98020787 2.55456436,7.65825631 2.84952936,7.4760827 L2.84952936,7.4760827 Z M14.75,10.6590638 C15.1642136,10.6590638 15.5,10.9948503 15.5,11.4090638 L15.5,15.409 L17.25,15.4090638 C17.6642136,15.4090638 18,15.7448503 18,16.1590638 L18,21.4090638 L6,21.4090638 L6,16.1590638 C6,15.7448503 6.33578644,15.4090638 6.75,15.4090638 L8.5,15.409 L8.5,11.4090638 C8.5,10.9948503 8.83578644,10.6590638 9.25,10.6590638 L14.75,10.6590638 Z M11.375,16.6590638 L7.25,16.6590638 L7.25,20.1590638 L11.375,20.1590638 L11.375,16.6590638 Z M16.75,16.6590638 L12.625,16.6590638 L12.625,20.1590638 L16.75,20.1590638 L16.75,16.6590638 Z M14.25,11.9090638 L9.75,11.9090638 L9.75,15.4090638 L14.25,15.4090638 L14.25,11.9090638 Z" id="primary" fill="#000000"></path>
    </g>
</svg>