<?xml version="1.0" encoding="UTF-8"?>
<svg width="24px" height="24px" viewBox="0 0 24 24" version="1.1" xmlns="http://www.w3.org/2000/svg" xmlns:xlink="http://www.w3.org/1999/xlink">
    <!-- Generator: Sketch 63.1 (92452) - https://sketch.com -->
    <title>product</title>
    <desc>Created with Sketch.</desc>
    <g id="product" stroke="none" stroke-width="1" fill="none" fill-rule="evenodd">
        <path d="M19.5,8.25 L15.75,8.25 L15.75,5.75 C15.75,5.05964406 15.1903559,4.5 14.5,4.5 L9.5,4.5 C8.80964406,4.5 8.25,5.05964406 8.25,5.75 L8.25,8.25 L4.5,8.25 C3.80964406,8.25 3.25,8.80964406 3.25,9.5 L3.25,18.25 C3.25,18.9403559 3.80964406,19.5 4.5,19.5 L19.5,19.5 C20.1903559,19.5 20.75,18.9403559 20.75,18.25 L20.75,9.5 C20.75,8.80964406 20.1903559,8.25 19.5,8.25 Z M9.5,5.75 L14.5,5.75 L14.5,8.25 L9.5,8.25 L9.5,5.75 Z M4.5,18.25 L4.5,9.5 L19.5,9.5 L19.5,18.25 L4.5,18.25 Z" id="primary" fill="#000000"></path>
    </g>
</svg>