<?xml version="1.0" encoding="UTF-8"?>
<svg width="24px" height="24px" viewBox="0 0 24 24" version="1.1" xmlns="http://www.w3.org/2000/svg" xmlns:xlink="http://www.w3.org/1999/xlink">
    <!-- Generator: Sketch 63.1 (92452) - https://sketch.com -->
    <title>queue_direction</title>
    <desc>Created with Sketch.</desc>
    <g id="queue_direction" stroke="none" stroke-width="1" fill="none" fill-rule="evenodd">
        <path d="M7.15,17.7125 L6.375,18.66875 C7.14911774,19.3271266 8.03357119,19.8434104 8.9875,20.19375 L9.41875,19.025 C8.59132266,18.7240603 7.82334775,18.2797773 7.15,17.7125 L7.15,17.7125 Z M4.61875,13.25 L3.36875,13.50625 C3.5470055,14.5159713 3.90022829,15.4868052 4.4125,16.375 L5.49375,15.75 C5.0612399,14.9728471 4.76527953,14.1272461 4.61875,13.25 L4.61875,13.25 Z M9.3875,4.975 L8.95625,3.80625 C8.01334854,4.15988018 7.13971706,4.67602081 6.375,5.33125 L7.15,6.2875 C7.81393804,5.72336025 8.57109413,5.27921841 9.3875,4.975 L9.3875,4.975 Z M5.49375,8.25 L4.4125,7.625 C3.90996679,8.51590515 3.56331452,9.48610876 3.3875,10.49375 L4.6375,10.70625 C4.77829213,9.84403418 5.06802953,9.01288965 5.49375,8.25 L5.49375,8.25 Z M12,3.25 L12,4.5 C16.1421356,4.50000006 19.5,7.85786442 19.5,12 C19.5,16.1421356 16.1421356,19.4999999 12,19.5 L12,20.75 C16.8324915,20.75 20.7499999,16.8324915 20.7499999,12 C20.7499999,7.16750849 16.8324915,3.25 12,3.25 Z" id="Fill" fill="#000000"></path>
        <polygon id="Path" fill="#000000" points="8 12.375 14.1075 12.375 11.86625 14.61625 12.75 15.5 16.5 11.75 12.75 8 11.86625 8.88375 14.1075 11.125 8 11.125"></polygon>
    </g>
</svg>