<?xml version="1.0" encoding="UTF-8"?>
<svg width="24px" height="24px" viewBox="0 0 24 24" version="1.1" xmlns="http://www.w3.org/2000/svg" xmlns:xlink="http://www.w3.org/1999/xlink">
    <!-- Generator: Sketch 63.1 (92452) - https://sketch.com -->
    <title>queue_direction</title>
    <desc>Created with Sketch.</desc>
    <g id="queue_direction" stroke="none" stroke-width="1" fill="none" fill-rule="evenodd">
        <path d="M12,3.25 C16.8324915,3.25 20.7499999,7.16750849 20.7499999,12 C20.7499999,16.8324915 16.8324915,20.75 12,20.75 L12,20.75 L12,19.5 C16.1421356,19.4999999 19.5,16.1421356 19.5,12 C19.5,7.85786442 16.1421356,4.50000006 12,4.5 L12,4.5 Z M7.15,17.7125 C7.82334775,18.2797773 8.59132266,18.7240603 9.41875,19.025 L9.41875,19.025 L8.9875,20.19375 C8.03357119,19.8434104 7.14911774,19.3271266 6.375,18.66875 L6.375,18.66875 Z M4.61875,13.25 C4.76527953,14.1272461 5.0612399,14.9728471 5.49375,15.75 L5.49375,15.75 L4.4125,16.375 C3.90022829,15.4868052 3.5470055,14.5159713 3.36875,13.50625 L3.36875,13.50625 Z M12.75,8 L16.5,11.75 L12.75,15.5 L11.86625,14.61625 L14.1075,12.375 L8,12.375 L8,11.125 L14.1075,11.125 L11.86625,8.88375 L12.75,8 Z M4.4125,7.625 L5.49375,8.25 C5.06802953,9.01288965 4.77829213,9.84403418 4.6375,10.70625 L4.6375,10.70625 L3.3875,10.49375 C3.56331452,9.48610876 3.90996679,8.51590515 4.4125,7.625 L4.4125,7.625 Z M8.95625,3.80625 L9.3875,4.975 C8.57109413,5.27921841 7.81393804,5.72336025 7.15,6.2875 L7.15,6.2875 L6.375,5.33125 C7.13971706,4.67602081 8.01334854,4.15988018 8.95625,3.80625 L8.95625,3.80625 Z" id="primary" fill="#000000"></path>
    </g>
</svg>