<?xml version="1.0" encoding="UTF-8"?>
<svg width="24px" height="24px" viewBox="0 0 24 24" version="1.1" xmlns="http://www.w3.org/2000/svg" xmlns:xlink="http://www.w3.org/1999/xlink">
    <!-- Generator: Sketch 63.1 (92452) - https://sketch.com -->
    <title>reduction</title>
    <desc>Created with Sketch.</desc>
    <g id="reduction" stroke="none" stroke-width="1" fill="none" fill-rule="evenodd">
        <path d="M14.5,16.375 L9.4125,16.375 C9.3506098,16.155819 9.26025685,15.9456959 9.14375,15.75 L15.75,9.14375 C16.1262285,9.37462052 16.5585881,9.49784302 17,9.5 C18.3002091,9.50421852 19.3865996,8.5110904 19.4987876,7.21572348 C19.6109756,5.92035656 18.7115046,4.75523869 17.4299302,4.53585636 C16.1483558,4.31647403 14.9125608,5.11607305 14.5875,6.375 L9.4125,6.375 C9.09777061,5.1560583 7.9257583,4.36129674 6.67687468,4.51992576 C5.42799106,4.67855478 4.49177136,5.74108242 4.49177136,7 C4.49177136,8.25891758 5.42799106,9.32144522 6.67687468,9.48007424 C7.9257583,9.63870326 9.09777061,8.8439417 9.4125,7.625 L14.5875,7.625 C14.6493902,7.84418102 14.7397431,8.05430414 14.85625,8.25 L8.25,14.85625 C7.8737715,14.6253795 7.44141186,14.502157 7,14.5 C5.69979086,14.4957815 4.61340038,15.4889096 4.50121238,16.7842765 C4.38902438,18.0796434 5.28849537,19.2447613 6.5700698,19.4641436 C7.85164422,19.683526 9.08743916,18.8839269 9.4125,17.625 L14.5,17.625 L14.5,19.5 L19.5,19.5 L19.5,14.5 L14.5,14.5 L14.5,16.375 Z M7,8.25 C6.30964406,8.25 5.75,7.69035594 5.75,7 C5.75,6.30964406 6.30964406,5.75 7,5.75 C7.69035594,5.75 8.25,6.30964406 8.25,7 C8.25,7.33152061 8.11830395,7.649463 7.88388348,7.88388348 C7.649463,8.11830395 7.33152061,8.25 7,8.25 Z M17,5.75 C17.6903559,5.75 18.25,6.30964406 18.25,7 C18.25,7.69035594 17.6903559,8.25 17,8.25 C16.3096441,8.25 15.75,7.69035594 15.75,7 C15.75,6.30964406 16.3096441,5.75 17,5.75 Z M7,18.25 C6.30964406,18.25 5.75,17.6903559 5.75,17 C5.75,16.3096441 6.30964406,15.75 7,15.75 C7.69035594,15.75 8.25,16.3096441 8.25,17 C8.25,17.6903559 7.69035594,18.25 7,18.25 Z M15.75,15.75 L18.25,15.75 L18.25,18.25 L15.75,18.25 L15.75,15.75 Z" id="Fill" fill="#000000"></path>
    </g>
</svg>