<?xml version="1.0" encoding="UTF-8"?>
<svg width="24px" height="24px" viewBox="0 0 24 24" version="1.1" xmlns="http://www.w3.org/2000/svg" xmlns:xlink="http://www.w3.org/1999/xlink">
    <!-- Generator: Sketch 63.1 (92452) - https://sketch.com -->
    <title>rename</title>
    <desc>Created with Sketch.</desc>
    <g id="rename" stroke="none" stroke-width="1" fill="none" fill-rule="evenodd">
        <path d="M3.25,18.875 L20.75,18.875 L20.75,20.125 L3.25,20.125 L3.25,18.875 Z M17.88125,7.625 C18.1159713,7.39053968 18.2478583,7.07238656 18.2478583,6.740625 C18.2478583,6.40886344 18.1159713,6.09071032 17.88125,5.85625 L15.64375,3.61875 C15.4092897,3.3840287 15.0911366,3.25214168 14.759375,3.25214168 C14.4276134,3.25214168 14.1094603,3.3840287 13.875,3.61875 L4.5,12.99375 L4.5,17 L8.50625,17 L17.88125,7.625 Z M14.75625,4.5 L17,6.74375 L15.125,8.61875 L12.88125,6.375 L14.75625,4.5 Z M5.75,15.75 L5.75,13.50625 L12,7.25625 L14.24375,9.5 L7.99375,15.75 L5.75,15.75 Z" id="Fill" fill="#000000"></path>
    </g>
</svg>