<?xml version="1.0" encoding="UTF-8"?>
<svg width="24px" height="24px" viewBox="0 0 24 24" version="1.1" xmlns="http://www.w3.org/2000/svg" xmlns:xlink="http://www.w3.org/1999/xlink">
    <!-- Generator: Sketch 63.1 (92452) - https://sketch.com -->
    <title>reserved</title>
    <desc>Created with Sketch.</desc>
    <g id="reserved" stroke="none" stroke-width="1" fill="none" fill-rule="evenodd">
        <path d="M3.25,12 C3.25,16.8324916 7.16750844,20.75 12,20.75 C16.8324916,20.75 20.75,16.8324916 20.75,12 C20.75,7.16750844 16.8324916,3.25 12,3.25 C7.16750844,3.25 3.25,7.16750844 3.25,12 Z M17.71875,16.84375 L7.15625,6.28125 C10.136352,3.80067474 14.5159489,4.00057376 17.2576876,6.74231242 C19.9994262,9.48405107 20.1993253,13.863648 17.71875,16.84375 Z M7.15,17.725 C3.99865341,15.0488675 3.6072795,10.3272208 6.275,7.16875 L16.83125,17.725 C14.0362592,20.0866931 9.94499082,20.0866931 7.15,17.725 L7.15,17.725 Z" id="primary" fill="#FF5C49"></path>
    </g>
</svg>