<?xml version="1.0" encoding="UTF-8"?>
<svg width="24px" height="24px" viewBox="0 0 24 24" version="1.1" xmlns="http://www.w3.org/2000/svg" xmlns:xlink="http://www.w3.org/1999/xlink">
    <!-- Generator: Sketch 63.1 (92452) - https://sketch.com -->
    <title>rotate_clockwise</title>
    <desc>Created with Sketch.</desc>
    <g id="rotate_clockwise" stroke="none" stroke-width="1" fill="none" fill-rule="evenodd">
        <path d="M19,20.5 L11.5,20.5 C10.8099297,20.499311 10.250689,19.9400703 10.25,19.25 L10.25,11.75 C10.250689,11.0599297 10.8099297,10.500689 11.5,10.5 L19,10.5 C19.6900703,10.500689 20.249311,11.0599297 20.25,11.75 L20.25,19.25 C20.249311,19.9400703 19.6900703,20.499311 19,20.5 L19,20.5 Z M11.5,11.75 L11.5,19.25 L19.000625,19.25 L19,11.75 L11.5,11.75 Z M10.875,3 L9.99375,3.88125 L11.60625,5.5 L8.375,5.5 C5.95989646,5.5027554 4.0027554,7.45989646 4,9.875 L4,13 L5.25,13 L5.25,9.875 C5.25206632,8.14996678 6.64996678,6.75206632 8.375,6.75 L11.60625,6.75 L9.99375,8.36875 L10.875,9.25 L14,6.125 L10.875,3 Z" id="primary" fill="#000000"></path>
    </g>
</svg>