<?xml version="1.0" encoding="UTF-8"?>
<svg width="24px" height="24px" viewBox="0 0 24 24" version="1.1" xmlns="http://www.w3.org/2000/svg" xmlns:xlink="http://www.w3.org/1999/xlink">
    <!-- Generator: Sketch 63.1 (92452) - https://sketch.com -->
    <title>route view</title>
    <desc>Created with Sketch.</desc>
    <g id="route-view" stroke="none" stroke-width="1" fill="none" fill-rule="evenodd">
        <path d="M17,14.5 L16.11875,15.38125 L18.35625,17.625 L8.25,17.625 C6.86928813,17.625 5.75,16.5057119 5.75,15.125 C5.75,13.7442881 6.86928813,12.625 8.25,12.625 L15.75,12.625 C17.8210678,12.625 19.4999999,10.9460678 19.4999999,8.875 C19.4999999,6.80393221 17.8210678,5.12500003 15.75,5.125 L5.64375,5.125 L7.88125,2.88125 L7,2 L3.25,5.75 L7,9.5 L7.88125,8.61875 L5.64375,6.375 L15.75,6.375 C17.1307119,6.375 18.25,7.49428813 18.25,8.875 C18.25,10.2557119 17.1307119,11.375 15.75,11.375 L8.25,11.375 C6.17893219,11.375 4.5,13.0539322 4.5,15.125 C4.5,17.1960678 6.17893219,18.875 8.25,18.875 L18.35625,18.875 L16.11875,21.11875 L17,22 L20.75,18.25 L17,14.5 Z" id="Fill" fill="#000000"></path>
    </g>
</svg>