<?xml version="1.0" encoding="UTF-8"?>
<svg width="24px" height="24px" viewBox="0 0 24 24" version="1.1" xmlns="http://www.w3.org/2000/svg" xmlns:xlink="http://www.w3.org/1999/xlink">
    <!-- Generator: Sketch 63.1 (92452) - https://sketch.com -->
    <title>save</title>
    <desc>Created with Sketch.</desc>
    <g id="save" stroke="none" stroke-width="1" fill="none" fill-rule="evenodd">
        <path d="M20.475,7.4375 L17.3,3.71875 C17.0629471,3.42267092 16.7042846,3.25023702 16.325,3.25 L4.5,3.25 C3.80964406,3.25 3.25,3.80964406 3.25,4.5 L3.25,19.5 C3.25,20.1903559 3.80964406,20.75 4.5,20.75 L19.5,20.75 C20.1903559,20.75 20.75,20.1903559 20.75,19.5 L20.75,8.21875 C20.7497784,7.9346491 20.6527847,7.65909868 20.475,7.4375 Z M9.625,4.5 L15.375,4.5 L15.375,7.375 L9.625,7.375 L9.625,4.5 Z M15.375,19.5 L9.625,19.5 L9.625,13.75 L15.375,13.75 L15.375,19.5 Z M16.625,19.5 L16.625,13.75 C16.625,13.0596441 16.0653559,12.5 15.375,12.5 L9.625,12.5 C8.93464406,12.5 8.375,13.0596441 8.375,13.75 L8.375,19.5 L4.5,19.5 L4.5,4.5 L8.375,4.5 L8.375,7.375 C8.375,8.06535594 8.93464406,8.625 9.625,8.625 L15.375,8.625 C16.0653559,8.625 16.625,8.06535594 16.625,7.375 L16.625,4.875 L19.5,8.21875 L19.5,19.5 L16.625,19.5 Z" id="primary" fill="#000000"></path>
    </g>
</svg>