<?xml version="1.0" encoding="UTF-8"?>
<svg width="24px" height="24px" viewBox="0 0 24 24" version="1.1" xmlns="http://www.w3.org/2000/svg" xmlns:xlink="http://www.w3.org/1999/xlink">
    <!-- Generator: Sketch 63.1 (92452) - https://sketch.com -->
    <title>save_as</title>
    <desc>Created with Sketch.</desc>
    <g id="save_as" stroke="none" stroke-width="1" fill="none" fill-rule="evenodd">
        <path d="M15.475,11.4375 L13.3,8.71875 C13.0629471,8.42267092 12.7042846,8.25023702 12.325,8.25 L4.5,8.25 C3.80964406,8.25 3.25,8.80964406 3.25,9.5 L3.25,19.5 C3.25,20.1903559 3.80964406,20.75 4.5,20.75 L14.5,20.75 C15.1903559,20.75 15.75,20.1903559 15.75,19.5 L15.75,12.21875 C15.7497784,11.9346491 15.6527847,11.6590987 15.475,11.4375 Z M7.625,9.5 L11.375,9.5 L11.375,11.375 L7.625,11.375 L7.625,9.5 Z M11.375,19.5 L7.625,19.5 L7.625,15.75 L11.375,15.75 L11.375,19.5 Z M12.625,19.5 L12.625,15.75 C12.625,15.0596441 12.0653559,14.5 11.375,14.5 L7.625,14.5 C6.93464406,14.5 6.375,15.0596441 6.375,15.75 L6.375,19.5 L4.5,19.5 L4.5,9.5 L6.375,9.5 L6.375,11.375 C6.375,12.0653559 6.93464406,12.625 7.625,12.625 L11.375,12.625 C12.0653559,12.625 12.625,12.0653559 12.625,11.375 L12.625,9.875 L14.5,12.21875 L14.5,19.5 L12.625,19.5 Z M19.5,14.5 L17.625,14.5 L17.625,13.25 L19.5,13.25 L19.5,4.5 L10.75,4.5 L10.75,6.375 L9.5,6.375 L9.5,4.5 C9.5,3.80964406 10.0596441,3.25 10.75,3.25 L19.5,3.25 C20.1903559,3.25 20.75,3.80964406 20.75,4.5 L20.75,13.25 C20.75,13.9403559 20.1903559,14.5 19.5,14.5 Z" id="primary" fill="#000000"></path>
    </g>
</svg>