<?xml version="1.0" encoding="UTF-8"?>
<svg width="24px" height="24px" viewBox="0 0 24 24" version="1.1" xmlns="http://www.w3.org/2000/svg" xmlns:xlink="http://www.w3.org/1999/xlink">
    <!-- Generator: Sketch 63.1 (92452) - https://sketch.com -->
    <title>scope</title>
    <desc>Created with Sketch.</desc>
    <g id="scope" stroke="none" stroke-width="1" fill="none" fill-rule="evenodd">
        <path d="M5.125,17.625 L5.125,11.8925 L2.88375,14.13375 L2,13.25 L5.75,9.5 L9.5,13.25 L8.61625,14.13375 L6.375,11.8925 L6.375,17.625 L13.875,17.625 L13.875,18.875 L6.375,18.875 C5.68492967,18.874311 5.12568904,18.3150703 5.125,17.625 Z M17,15.75 L19.5,15.75 C20.1900703,15.750689 20.749311,16.3099297 20.75,17 L20.75,19.5 C20.749311,20.1900703 20.1900703,20.749311 19.5,20.75 L17,20.75 C16.3099297,20.749311 15.750689,20.1900703 15.75,19.5 L15.75,17 C15.750689,16.3099297 16.3099297,15.750689 17,15.75 L17,15.75 Z M19.5,19.5 L19.5,17 L16.99875,17 L17,19.5 L19.5,19.5 Z M18.875,5.75 L18.875,11.4825 L21.11625,9.24125 L22,10.125 L18.25,13.875 L14.5,10.125 L15.38375,9.24125 L17.625,11.4825 L17.625,5.75 L10.125,5.75 L10.125,4.5 L17.625,4.5 C18.3150703,4.50068904 18.874311,5.05992967 18.875,5.75 Z M3.25,5.75 L7,5.75 L7,7 L3.25,7 L3.25,5.75 Z M3.25,3.25 L8.25,3.25 L8.25,4.5 L3.25,4.5 L3.25,3.25 Z" id="primary" fill="#000000"></path>
    </g>
</svg>