<?xml version="1.0" encoding="UTF-8"?>
<svg width="24px" height="24px" viewBox="0 0 24 24" version="1.1" xmlns="http://www.w3.org/2000/svg" xmlns:xlink="http://www.w3.org/1999/xlink">
    <!-- Generator: Sketch 63.1 (92452) - https://sketch.com -->
    <title>search</title>
    <desc>Created with Sketch.</desc>
    <g id="search" stroke="none" stroke-width="1" fill="none" fill-rule="evenodd">
        <path d="M20.75,19.86875 L16.03125,15.125 C18.374581,12.2976003 18.0821769,8.1277481 15.3671855,5.65505497 C12.6521942,3.18236184 8.47324054,3.27990068 5.87657061,5.87657061 C3.27990068,8.47324054 3.18236184,12.6521942 5.65505497,15.3671855 C8.1277481,18.0821769 12.2976003,18.374581 15.125,16.03125 L19.86875,20.75 L20.75,19.86875 Z M5.125,10.75 C5.125,7.64339828 7.64339828,5.125 10.75,5.125 C13.8566017,5.125 16.375,7.64339828 16.375,10.75 C16.375,13.8566017 13.8566017,16.375 10.75,16.375 C7.64339828,16.375 5.125,13.8566017 5.125,10.75 Z" id="Fill" fill="#000000"></path>
    </g>
</svg>