<?xml version="1.0" encoding="UTF-8"?>
<svg width="24px" height="24px" viewBox="0 0 24 24" version="1.1" xmlns="http://www.w3.org/2000/svg" xmlns:xlink="http://www.w3.org/1999/xlink">
    <!-- Generator: Sketch 63.1 (92452) - https://sketch.com -->
    <title>select</title>
    <desc>Created with Sketch.</desc>
    <g id="select" stroke="none" stroke-width="1" fill="none" fill-rule="evenodd">
        <path d="M17.625,10.375 C17.3021037,10.3761612 16.9852146,10.4623896 16.70625,10.625 C16.3637751,10.0818054 15.7671422,9.75165283 15.125,9.75 C14.8021037,9.75116123 14.4852146,9.83738956 14.20625,10 C13.7380106,9.26322406 12.8232495,8.94707433 12,9.2375 L12,6 C12,4.96446609 11.1605339,4.125 10.125,4.125 C9.08946609,4.125 8.25,4.96446609 8.25,6 L8.25,12.9375 L6.85625,11.9875 C6.53674544,11.7495557 6.14836328,11.6222892 5.75,11.625 C4.98939216,11.6231228 4.30300967,12.0809303 4.01251179,12.7838804 C3.72201391,13.4868304 3.88496448,14.2956294 4.425,14.83125 L9.425,19.39375 C10.1328727,20.0273263 11.0500003,20.3768143 12,20.375007 L15.125,20.375007 C17.5412458,20.375007 19.5,18.4162458 19.5,16 L19.5,12.25 C19.5,11.2144661 18.6605339,10.375 17.625,10.375 Z M18.25,16 C18.25,17.7258898 16.8508898,19.125 15.125,19.125 L12,19.125 C11.3682521,19.1326361 10.7552385,18.9105297 10.275,18.5 L5.30625,13.9375 C5.1907849,13.8210871 5.12569039,13.6639624 5.125,13.5 C5.125,13.2632675 5.25875149,13.046853 5.4704915,12.940983 C5.68223152,12.835113 5.93561397,12.8579605 6.125,13 L9.5,15.3125 L9.5,6 C9.5,5.65482203 9.77982203,5.375 10.125,5.375 C10.470178,5.375 10.75,5.65482203 10.75,6 L10.75,12.875 L12,12.875 L12,11 C12,10.654822 12.279822,10.375 12.625,10.375 C12.970178,10.375 13.25,10.654822 13.25,11 L13.25,12.875 L14.5,12.875 L14.5,11.625 C14.5,11.279822 14.779822,11 15.125,11 C15.470178,11 15.75,11.279822 15.75,11.625 L15.75,12.875 L17,12.875 L17,12.25 C17,11.904822 17.279822,11.625 17.625,11.625 C17.970178,11.625 18.25,11.904822 18.25,12.25 L18.25,16 Z" id="primary" fill="#000000"></path>
    </g>
</svg>