<?xml version="1.0" encoding="UTF-8"?>
<svg width="24px" height="24px" viewBox="0 0 24 24" version="1.1" xmlns="http://www.w3.org/2000/svg" xmlns:xlink="http://www.w3.org/1999/xlink">
    <!-- Generator: Sketch 63.1 (92452) - https://sketch.com -->
    <title>shelf</title>
    <desc>Created with Sketch.</desc>
    <g id="shelf" stroke="none" stroke-width="1" fill="none" fill-rule="evenodd">
        <path d="M18.875,2.875 C19.5653559,2.875 20.125,3.43464406 20.125,4.125 L20.125,4.125 L20.125,17.875 C20.125,17.9174678 20.1228822,17.9594409 20.1187465,18.0008195 L20.125,18 L20.125,21 L18.875,21 L18.875,19.125 L5.125,19.125 L5.125,19.125 L5.125,21 L3.875,21 L3.875,18 L3.881,18 L3.875,17.875 L3.875,4.125 C3.875,3.43464406 4.43464406,2.875 5.125,2.875 L5.125,2.875 Z M18.875,15.375 L5.125,15.375 L5.125,17.875 L18.875,17.875 L18.875,15.375 Z M18.875,11.625 L5.125,11.625 L5.125,14.125 L18.875,14.125 L18.875,11.625 Z M18.875,7.875 L5.125,7.875 L5.125,10.375 L18.875,10.375 L18.875,7.875 Z M18.875,4.125 L5.125,4.125 L5.125,6.625 L18.875,6.625 L18.875,4.125 Z" id="Combined-Shape" fill="#000000"></path>
    </g>
</svg>