<?xml version="1.0" encoding="UTF-8"?>
<svg width="24px" height="24px" viewBox="0 0 24 24" version="1.1" xmlns="http://www.w3.org/2000/svg" xmlns:xlink="http://www.w3.org/1999/xlink">
    <!-- Generator: Sketch 63.1 (92452) - https://sketch.com -->
    <title>shuffle</title>
    <desc>Created with Sketch.</desc>
    <g id="shuffle" stroke="none" stroke-width="1" fill="none" fill-rule="evenodd">
        <path d="M16.11875,14.13125 L18.35625,16.375 L14.21875,16.375 L11.4875,12 L14.21875,7.625 L18.35625,7.625 L16.11875,9.86875 L17,10.75 L20.75,7 L17,3.25 L16.11875,4.13125 L18.35625,6.375 L14.21875,6.375 C13.7890961,6.37628916 13.3902156,6.59815168 13.1625,6.9625 L10.75,10.81875 L8.3375,6.9625 C8.10978435,6.59815168 7.71090388,6.37628916 7.28125,6.375 L3.25,6.375 L3.25,7.625 L7.28125,7.625 L10.0125,12 L7.28125,16.375 L3.25,16.375 L3.25,17.625 L7.28125,17.625 C7.71090388,17.6237108 8.10978435,17.4018483 8.3375,17.0375 L10.75,13.18125 L13.1625,17.0375 C13.3902156,17.4018483 13.7890961,17.6237108 14.21875,17.625 L18.35625,17.625 L16.11875,19.86875 L17,20.75 L20.75,17 L17,13.25 L16.11875,14.13125 Z" id="primary" fill="#000000"></path>
    </g>
</svg>