<?xml version="1.0" encoding="UTF-8"?>
<svg width="24px" height="24px" viewBox="0 0 24 24" version="1.1" xmlns="http://www.w3.org/2000/svg" xmlns:xlink="http://www.w3.org/1999/xlink">
    <!-- Generator: Sketch 63.1 (92452) - https://sketch.com -->
    <title>simulate</title>
    <desc>Created with Sketch.</desc>
    <g id="simulate" stroke="none" stroke-width="1" fill="none" fill-rule="evenodd">
        <path d="M19.019375,16.76125 L14.5,10.546875 L14.5,4.5 L15.75,4.5 L15.75,3.25 L8.25,3.25 L8.25,4.5 L9.5,4.5 L9.5,10.546875 L4.980625,16.76125 C4.42477315,17.5251873 4.34471469,18.5364521 4.77343913,19.378335 C5.20216357,20.2202179 6.06711504,20.7502414 7.011875,20.75 L16.9875,20.75 C17.93226,20.7502414 18.7972114,20.2202179 19.2259359,19.378335 C19.6546603,18.5364521 19.5746019,17.5251873 19.01875,16.76125 L19.019375,16.76125 Z M10.75,10.953125 L10.75,4.5 L13.25,4.5 L13.25,10.953125 L14.920625,13.25 L9.079375,13.25 L10.75,10.953125 Z M16.988125,19.5 L7.0125,19.5 C6.53817999,19.499489 6.10416849,19.2331649 5.88888795,18.8105137 C5.67360742,18.3878625 5.71338767,17.880209 5.991875,17.49625 L8.170625,14.5 L15.829375,14.5 L18.00875,17.49625 C18.2872373,17.880209 18.3270176,18.3878625 18.111737,18.8105137 C17.8964565,19.2331649 17.462445,19.499489 16.988125,19.5 Z" id="primary" fill="#000000"></path>
    </g>
</svg>