<?xml version="1.0" encoding="UTF-8"?>
<svg width="24px" height="24px" viewBox="0 0 24 24" version="1.1" xmlns="http://www.w3.org/2000/svg" xmlns:xlink="http://www.w3.org/1999/xlink">
    <!-- Generator: Sketch 63.1 (92452) - https://sketch.com -->
    <title>smartsite3d</title>
    <desc>Created with Sketch.</desc>
    <g id="smartsite3d" stroke="none" stroke-width="1" fill="none" fill-rule="evenodd">
        <path d="M12.5048804,2.2953051 L20.2005326,6.79650064 C20.5071803,6.97585926 20.6956522,7.30444023 20.6956522,7.65968995 L20.6956522,16.34031 C20.6956522,16.6955598 20.5071803,17.0241407 20.2005326,17.2034994 L12.5048804,21.7046949 C12.1930084,21.8871091 11.8069916,21.8871091 11.4951196,21.7046949 L3.79946743,17.2034994 C3.49281967,17.0241407 3.30434783,16.6955598 3.30434783,16.34031 L3.30434783,7.65968995 C3.30434783,7.30444023 3.49281967,6.97585926 3.79946743,6.79650064 L11.4951196,2.2953051 C11.8069916,2.11289085 12.1930084,2.11289085 12.5048804,2.2953051 Z M4.55334783,8.47549442 L4.55434783,16.1969117 L11.3743478,20.1854944 L11.3744915,11.885983 L4.55334783,8.47549442 Z M19.4453478,8.47549442 L12.6244915,11.886983 L12.6243478,20.1854944 L19.4456522,16.1969117 L19.4453478,8.47549442 Z M12,3.44811802 L5.22134783,7.41149442 L12.0004915,10.800983 L18.7773478,7.41149442 L12,3.44811802 Z" id="Combined-Shape" fill="#000000"></path>
    </g>
</svg>