<?xml version="1.0" encoding="UTF-8"?>
<svg width="24px" height="24px" viewBox="0 0 24 24" version="1.1" xmlns="http://www.w3.org/2000/svg" xmlns:xlink="http://www.w3.org/1999/xlink">
    <!-- Generator: Sketch 63.1 (92452) - https://sketch.com -->
    <title>speaker_mute</title>
    <desc>Created with Sketch.</desc>
    <g id="speaker_mute" stroke="none" stroke-width="1" fill="none" fill-rule="evenodd">
        <path d="M13.25,20.75 C13.0829713,20.7493066 12.9231696,20.6817848 12.80625,20.5625 L8.04375,15.75 L3.875,15.75 C3.52982203,15.75 3.25,15.470178 3.25,15.125 L3.25,8.875 C3.25,8.52982203 3.52982203,8.25 3.875,8.25 L8.04375,8.25 L12.80625,3.4375 C13.0500234,3.19517275 13.4437266,3.19517275 13.6875,3.4375 C13.8052589,3.55289404 13.8726518,3.71014421 13.875,3.875 L13.875,20.125 C13.875,20.470178 13.595178,20.75 13.25,20.75 L13.25,20.75 Z M4.5,14.5 L8.25,14.5 C8.4321948,14.4988059 8.60827282,14.565671 8.74375,14.6875 L12.625,18.60625 L12.625,5.39375 L8.74375,9.3125 C8.60827282,9.43432899 8.4321948,9.50119407 8.25,9.5 L4.5,9.5 L4.5,14.5 Z" id="primary" fill="#000000"></path>
        <polygon id="secondary" fill="#FF5C49" points="21.375 9.75625 20.49375 8.875 18.25 11.11875 16.00625 8.875 15.125 9.75625 17.36875 12 15.125 14.24375 16.00625 15.125 18.25 12.88125 20.49375 15.125 21.375 14.24375 19.13125 12"></polygon>
    </g>
</svg>