<?xml version="1.0" encoding="UTF-8"?>
<svg width="24px" height="24px" viewBox="0 0 24 24" version="1.1" xmlns="http://www.w3.org/2000/svg" xmlns:xlink="http://www.w3.org/1999/xlink">
    <!-- Generator: Sketch 63.1 (92452) - https://sketch.com -->
    <title>speaker_loud</title>
    <desc>Created with Sketch.</desc>
    <g id="speaker_loud" stroke="none" stroke-width="1" fill="none" fill-rule="evenodd">
        <path d="M18.975,7.05 L18.01875,7.85625 C20.0514298,10.26409 19.9737359,13.8085421 17.8375,16.125 L18.75625,17 C21.3215629,14.2201916 21.4153457,9.96513465 18.975,7.075 L18.975,7.05 Z M15.4875,9.5 C16.7068039,10.945847 16.6585724,13.0733933 15.375,14.4625 L16.29375,15.3125 C18.0045687,13.4584482 18.0662087,10.6203317 16.4375,8.69375 L15.4875,9.5 Z M13.25,20.75 C13.0829713,20.7493066 12.9231696,20.6817848 12.80625,20.5625 L8.04375,15.75 L3.875,15.75 C3.52982203,15.75 3.25,15.470178 3.25,15.125 L3.25,8.875 C3.25,8.52982203 3.52982203,8.25 3.875,8.25 L8.04375,8.25 L12.80625,3.4375 C13.0500234,3.19517275 13.4437266,3.19517275 13.6875,3.4375 C13.8052589,3.55289404 13.8726518,3.71014421 13.875,3.875 L13.875,20.125 C13.875,20.470178 13.595178,20.75 13.25,20.75 L13.25,20.75 Z M4.5,14.5 L8.3,14.5 C8.46702869,14.5006934 8.62683035,14.5682152 8.74375,14.6875 L12.625,18.60625 L12.625,5.39375 L8.74375,9.3125 C8.62683035,9.43178478 8.46702869,9.49930661 8.3,9.5 L4.5,9.5 L4.5,14.5 Z" id="Fill" fill="#000000"></path>
    </g>
</svg>