<?xml version="1.0" encoding="UTF-8"?>
<svg width="24px" height="24px" viewBox="0 0 24 24" version="1.1" xmlns="http://www.w3.org/2000/svg" xmlns:xlink="http://www.w3.org/1999/xlink">
    <!-- Generator: Sketch 63.1 (92452) - https://sketch.com -->
    <title>split</title>
    <desc>Created with Sketch.</desc>
    <g id="split" stroke="none" stroke-width="1" fill="none" fill-rule="evenodd">
        <path d="M11.375,4.5 L12.625,4.5 L12.625,19.5 L11.375,19.5 L11.375,4.5 Z M8.25,6.375 L8.25,17.625 L4.5,17.625 L4.5,6.375 L8.25,6.375 L8.25,6.375 Z M8.25,5.125 L4.5,5.125 C3.80964406,5.125 3.25,5.68464406 3.25,6.375 L3.25,17.625 C3.25,18.3153559 3.80964406,18.875 4.5,18.875 L8.25,18.875 C8.94035594,18.875 9.5,18.3153559 9.5,17.625 L9.5,6.375 C9.5,5.68464406 8.94035594,5.125 8.25,5.125 Z M19.5,6.375 L19.5,17.625 L15.75,17.625 L15.75,6.375 L19.5,6.375 L19.5,6.375 Z M19.5,5.125 L15.75,5.125 C15.0596441,5.125 14.5,5.68464406 14.5,6.375 L14.5,17.625 C14.5,18.3153559 15.0596441,18.875 15.75,18.875 L19.5,18.875 C20.1903559,18.875 20.75,18.3153559 20.75,17.625 L20.75,6.375 C20.75,5.68464406 20.1903559,5.125 19.5,5.125 Z" id="primary" fill="#000000"></path>
    </g>
</svg>