<?xml version="1.0" encoding="UTF-8"?>
<svg width="24px" height="24px" viewBox="0 0 24 24" version="1.1" xmlns="http://www.w3.org/2000/svg" xmlns:xlink="http://www.w3.org/1999/xlink">
    <!-- Generator: Sketch 63.1 (92452) - https://sketch.com -->
    <title>sqw</title>
    <desc>Created with Sketch.</desc>
    <g id="sqw" stroke="none" stroke-width="1" fill="none" fill-rule="evenodd">
        <path d="M19,3 C19.6903559,3 20.25,3.55964406 20.25,4.25 L20.25,4.25 L20.25,18 C20.25,18.6903559 19.6903559,19.25 19,19.25 L19,19.25 L18.62,19.25 L18.6198092,19.2790488 C18.5406449,20.4498384 17.565864,21.375 16.375,21.375 C15.1743859,21.375 14.1934076,20.4346269 14.1284268,19.2502424 L10.12,19.25 L10.1198092,19.2790488 C10.0406449,20.4498384 9.06586399,21.375 7.875,21.375 C6.67438585,21.375 5.6934076,20.4346269 5.62842683,19.2502424 L5.25,19.25 C4.55964406,19.25 4,18.6903559 4,18 L4,18 L4,4.25 C4,3.55964406 4.55964406,3 5.25,3 L5.25,3 Z M7.875,18.125 C7.32271525,18.125 6.875,18.5727153 6.875,19.125 C6.875,19.6772847 7.32271525,20.125 7.875,20.125 C8.42728475,20.125 8.875,19.6772847 8.875,19.125 C8.875,18.5727153 8.42728475,18.125 7.875,18.125 Z M16.375,18.125 C15.8227153,18.125 15.375,18.5727153 15.375,19.125 C15.375,19.6772847 15.8227153,20.125 16.375,20.125 C16.9272847,20.125 17.375,19.6772847 17.375,19.125 C17.375,18.5727153 16.9272847,18.125 16.375,18.125 Z M11.5,13.75 L5.25,13.75 L5.25,17.75 L6.09381576,17.7500921 C6.50531355,17.217782 7.15012627,16.875 7.875,16.875 C8.59987373,16.875 9.24468645,17.217782 9.65618424,17.7500921 L11.5,17.75 L11.5,13.75 Z M19,13.75 L12.75,13.75 L12.75,17.75 L14.5938158,17.7500921 C15.0053136,17.217782 15.6501263,16.875 16.375,16.875 C17.0998737,16.875 17.7446864,17.217782 18.1561842,17.7500921 L19,17.75 L19,13.75 Z M19,9.5 L12.75,9.5 L12.75,12.5 L19,12.5 L19,9.5 Z M11.5,9.5 L5.25,9.5 L5.25,12.5 L11.5,12.5 L11.5,9.5 Z M19,4.25 L12.75,4.25 L12.75,8.25 L19,8.25 L19,4.25 Z M11.5,4.25 L5.25,4.25 L5.25,8.25 L11.5,8.25 L11.5,4.25 Z" id="Combined-Shape" fill="#000000"></path>
    </g>
</svg>