<?xml version="1.0" encoding="UTF-8"?>
<svg width="24px" height="24px" viewBox="0 0 24 24" version="1.1" xmlns="http://www.w3.org/2000/svg" xmlns:xlink="http://www.w3.org/1999/xlink">
    <!-- Generator: Sketch 63.1 (92452) - https://sketch.com -->
    <title>station_charging</title>
    <desc>Created with Sketch.</desc>
    <g id="station_charging" stroke="none" stroke-width="1" fill="none" fill-rule="evenodd">
        <path d="M5.61751846,13.4602279 L5.568952,13.5394971 C5.35983497,13.9434769 5.6495164,14.4485018 6.12610188,14.4485018 L11.1721019,14.4478496 L9.88555019,20.2422681 C9.73786217,20.9068642 10.6085388,21.2951199 11.0042505,20.7411235 L18.2868592,10.5454713 L18.3354257,10.4662022 C18.5445427,10.0622223 18.2548613,9.55719746 17.7782758,9.55719746 L12.7311019,9.55684964 L14.0188275,3.76343117 C14.1665155,3.0988351 13.2958388,2.71057942 12.9001272,3.26457576 L5.61751846,13.4602279 Z M12.1321019,6.48984964 L11.3420719,10.0466159 L11.3287397,10.1361745 C11.3016366,10.4917092 11.5831035,10.8071975 11.9521888,10.8071975 L16.5631019,10.8068496 L11.7721019,17.5138496 L12.5623058,13.9590833 L12.5756379,13.8695248 C12.6027411,13.51399 12.3212742,13.1985018 11.9521888,13.1985018 L7.34010188,13.1978496 L12.1321019,6.48984964 Z" id="primary" fill="#000000"></path>
    </g>
</svg>