<?xml version="1.0" encoding="UTF-8"?>
<svg width="24px" height="24px" viewBox="0 0 24 24" version="1.1" xmlns="http://www.w3.org/2000/svg" xmlns:xlink="http://www.w3.org/1999/xlink">
    <!-- Generator: Sketch 63.1 (92452) - https://sketch.com -->
    <title>station_product_handling</title>
    <desc>Created with Sketch.</desc>
    <g id="station_product_handling" stroke="none" stroke-width="1" fill="none" fill-rule="evenodd">
        <path d="M12.7517754,4.50026805 C12.7621706,4.92179176 12.8188051,5.34108026 12.9206063,5.75072117 L9.5,5.75 L9.5,8.25 L14.232,8.24994041 L15.144,9.49994041 L4.5,9.5 L4.5,18.25 L19.5,18.25 L19.5,13.4249404 L20.75,11.7149404 L20.75,18.25 C20.75,18.8972087 20.2581253,19.4295339 19.6278052,19.4935464 L19.5,19.5 L4.5,19.5 C3.80964406,19.5 3.25,18.9403559 3.25,18.25 L3.25,18.25 L3.25,9.5 C3.25,8.80964406 3.80964406,8.25 4.5,8.25 L4.5,8.25 L8.25,8.25 L8.25,5.75 C8.25,5.05964406 8.80964406,4.5 9.5,4.5 L9.5,4.5 Z M18.7540593,1.24994041 C20.6989767,1.2689328 22.262084,2.83865224 22.2499531,4.76062222 C22.2503105,5.56593511 21.9728614,6.34731262 21.463377,6.9758495 L18.7540593,10.7499404 L16.0928102,7.03630404 C15.2036591,5.99891253 14.9996031,4.54786619 15.568822,3.31021154 C16.1380409,2.07255688 17.3784628,1.27022874 18.7540593,1.24994041 Z" id="primary" fill="#000000"></path>
    </g>
</svg>