<?xml version="1.0" encoding="UTF-8"?>
<svg width="24px" height="24px" viewBox="0 0 24 24" version="1.1" xmlns="http://www.w3.org/2000/svg" xmlns:xlink="http://www.w3.org/1999/xlink">
    <!-- Generator: Sketch 63.1 (92452) - https://sketch.com -->
    <title>station_service</title>
    <desc>Created with Sketch.</desc>
    <g id="station_service" stroke="none" stroke-width="1" fill="none" fill-rule="evenodd">
        <path d="M9.5625,3.24996452 C8.36388754,3.24592101 7.1904195,3.59361524 6.1875,4.25 L10.1875,8.25 C10.4566262,8.47962231 10.6216602,8.80816435 10.6451929,9.16115381 C10.6687255,9.51414326 10.5487638,9.86168503 10.3125,10.125 C10.049185,10.3612638 9.70164326,10.4812255 9.34865381,10.4576929 C8.99566435,10.4341602 8.66712231,10.2691262 8.4375,10 L4.3125,6 C3.59930817,7.0494594 3.22818103,8.29382686 3.25,9.5625 C3.26370333,13.0431056 6.08189442,15.8612967 9.5625,15.875 C10.1097314,15.877994 10.6553302,15.8150403 11.1875,15.6875 L15.375,19.875 C16.6003818,21.1003818 18.5871182,21.1003817 19.8125,19.875 C21.0378817,18.6496182 21.0378818,16.6628818 19.8125,15.4375 L15.625,11.25 C15.7525403,10.7178302 15.815494,10.1722314 15.8125,9.625 C15.8460898,7.94584614 15.2024682,6.3238316 14.0267054,5.12455356 C12.8509426,3.92527551 11.2419898,3.24966407 9.5625,3.24996452 Z M14.5625,9.5625 C14.5615831,10.0066082 14.49847,10.4483994 14.375,10.875 L14.1875,11.5625 L14.6875,12.0625 L18.875,16.25 C19.2354393,16.5912342 19.4389782,17.0661583 19.4375,17.5625 C19.4517411,18.0613566 19.2460625,18.5412735 18.875,18.875 C18.5329038,19.234201 18.0585394,19.4375 17.5625,19.4375 C17.0664606,19.4375 16.5920962,19.234201 16.25,18.875 L12.0625,14.6875 L11.5625,14.1875 L10.875,14.375 C10.4483994,14.49847 10.0066082,14.5615831 9.5625,14.5625 C8.23442056,14.5588113 6.95872098,14.0440553 6,13.125 C5.01956267,12.2024605 4.47473437,10.9084933 4.5,9.5625 C4.50086195,9.09785319 4.563922,8.6354128 4.6875,8.1875 L7.4375,10.9375 C7.90689457,11.4482944 8.56173832,11.7492121 9.25505629,11.7727144 C9.94837426,11.7962167 10.6220926,11.540335 11.125,11.0625 C11.602835,10.5595926 11.8587167,9.88587426 11.8352144,9.19255629 C11.8117121,8.49923832 11.5107944,7.84439457 11,7.375 L8.25,4.625 C8.65421524,4.49716026 9.0760662,4.43388261 9.5,4.43735324 C10.8280794,4.4411887 12.103779,4.95594467 13.0625,5.875 C14.0221044,6.86292295 14.5599989,8.18524691 14.5625,9.5625 L14.5625,9.5625 Z" id="Fill" fill="#000000"></path>
    </g>
</svg>