<?xml version="1.0" encoding="UTF-8"?>
<svg width="24px" height="24px" viewBox="0 0 24 24" version="1.1" xmlns="http://www.w3.org/2000/svg" xmlns:xlink="http://www.w3.org/1999/xlink">
    <!-- Generator: Sketch 63.1 (92452) - https://sketch.com -->
    <title>station_scanning</title>
    <desc>Created with Sketch.</desc>
    <g id="station_scanning" stroke="none" stroke-width="1" fill="none" fill-rule="evenodd">
        <path d="M15.125,20.125 L5.125,20.125 C4.43464406,20.125 3.875,19.5653559 3.875,18.875 L3.875,5.125 C3.875,4.43464406 4.43464406,3.875 5.125,3.875 L15.125,3.875 L15.125,5.125 L5.125,5.125 L5.125,18.875 L15.125,18.875 L15.125,20.125 Z M11.375,7.625 L12.625,7.625 L12.625,16.375 L11.375,16.375 L11.375,7.625 Z M18.875,7.625 L20.125,7.625 L20.125,16.375 L18.875,16.375 L18.875,7.625 Z M15.125,7.625 L16.375,7.625 L16.375,16.375 L15.125,16.375 L15.125,7.625 Z" id="Fill" fill="#000000"></path>
    </g>
</svg>