<?xml version="1.0" encoding="UTF-8"?>
<svg width="24px" height="24px" viewBox="0 0 24 24" version="1.1" xmlns="http://www.w3.org/2000/svg" xmlns:xlink="http://www.w3.org/1999/xlink">
    <!-- Generator: Sketch 63.1 (92452) - https://sketch.com -->
    <title>station_assembly</title>
    <desc>Created with Sketch.</desc>
    <g id="station_assembly" stroke="none" stroke-width="1" fill="none" fill-rule="evenodd">
        <path d="M20.01875,15.23125 L17.625,12.85625 L18.04375,12.4375 C18.2860772,12.1937266 18.2860772,11.8000234 18.04375,11.55625 L14.29375,7.80625 C14.0499766,7.56392275 13.6562734,7.56392275 13.4125,7.80625 L12.91875,8.3 L8.69375,4.05625 C8.44997659,3.81392275 8.05627341,3.81392275 7.8125,4.05625 L5.3125,6.55625 L5.2375,6.65 L2.7375,10.4 C2.57206166,10.6469384 2.60342275,10.9762298 2.8125,11.1875 L4.6875,13.0625 C4.80485412,13.1808204 4.96460154,13.247374 5.13125,13.247374 C5.29789846,13.247374 5.45764588,13.1808204 5.575,13.0625 L8.25,10.38125 L9.55625,11.6875 L6.55625,14.68125 C6.31392275,14.9250234 6.31392275,15.3187266 6.55625,15.5625 L7.80625,16.8125 C7.92316965,16.9317848 8.08297131,16.9993066 8.25,17 C8.36489107,16.9992164 8.47734299,16.9667783 8.575,16.90625 L11.28125,15.28125 L12.80625,16.8125 C13.0500234,17.0548272 13.4437266,17.0548272 13.6875,16.8125 L14.10625,16.375 L16.475,18.76875 C17.4518537,19.7456037 19.0356463,19.7456037 20.0125,18.76875 C20.9893537,17.7918963 20.9893537,16.2081037 20.0125,15.23125 L20.01875,15.23125 Z M8.25,8.6125 L5.125,11.7375 L4.05625,10.66875 L6.2375,7.39375 L8.25,5.38125 L12.05625,9.1875 L10.4375,10.8 L8.25,8.6125 Z M13.25,15.4875 L11.475,13.7125 L8.35,15.5875 L7.8875,15.125 L13.875,9.13125 L16.74375,12 L13.25,15.4875 Z M19.1375,17.88125 C18.9030397,18.1159713 18.5848866,18.2478583 18.253125,18.2478583 C17.9213634,18.2478583 17.6032103,18.1159713 17.36875,17.88125 L14.99375,15.5125 L16.7625,13.74375 L19.1375,16.1125 C19.3722213,16.3469603 19.5041083,16.6651134 19.5041083,16.996875 C19.5041083,17.3286366 19.3722213,17.6467897 19.1375,17.88125 L19.1375,17.88125 Z" id="primary" fill="#000000"></path>
    </g>
</svg>