<?xml version="1.0" encoding="UTF-8"?>
<svg width="24px" height="24px" viewBox="0 0 24 24" version="1.1" xmlns="http://www.w3.org/2000/svg" xmlns:xlink="http://www.w3.org/1999/xlink">
    <!-- Generator: Sketch 63.1 (92452) - https://sketch.com -->
    <title>station_picking</title>
    <desc>Created with Sketch.</desc>
    <g id="station_picking" stroke="none" stroke-width="1" fill="none" fill-rule="evenodd">
        <path d="M12.125,2 C12.9977783,2 13.7476635,2.52616842 14.0747505,3.27860041 C14.3840058,3.10094695 14.7427142,3 15.125,3 C16.2986051,3 17.25,3.95139491 17.25,5.125 L17.25,5.125 L17.2505958,5.18766539 C17.5172829,5.0671086 17.8133044,5 18.125,5 C19.2986051,5 20.25,5.95139491 20.25,7.125 L20.25,7.125 L20.25,16.125 C20.25,19.2316017 17.7316017,21.75 14.625,21.75 L14.625,21.75 L11.29,21.75 C7.70796689,21.75 4,17.9135107 4,15.125 L4,15.125 L4,11.125 C4,10.561415 4.22388329,10.0209129 4.62239809,9.62239809 C5.02091289,9.22388329 5.56141496,9 6.125,9 L6.125,9 L7,9 L7,5.125 C7,4.00242122 7.87046339,3.08315005 8.97324118,3.0053355 L9.125,3 C9.50728581,3 9.8659942,3.10094695 10.1759231,3.27763879 C10.5023365,2.52616842 11.2522217,2 12.125,2 Z M16,5.125 C16,4.64175084 15.6082492,4.25 15.125,4.25 C14.6417508,4.25 14.25,4.64175084 14.25,5.125 L14.25,5.125 L14.25,10.125 L13,10.125 L13,4.125 C13,3.64175084 12.6082492,3.25 12.125,3.25 C11.6417508,3.25 11.25,3.64175084 11.25,4.125 L11.25,4.125 L11.25,10.125 L10,10.125 L10,5.125 C10,4.64175084 9.60824916,4.25 9.125,4.25 C8.64175084,4.25 8.25,4.64175084 8.25,5.125 L8.25,5.125 L8.25,14.125 L7,14.125 L7,10.25 L6.125,10.25 C5.93161298,10.25 5.74482648,10.3140189 5.59297417,10.4303205 L5.50628157,10.5062816 C5.34218724,10.6703759 5.25,10.8929356 5.25,11.125 L5.25,11.125 L5.25,15.125 C5.25,17.2325058 8.40803311,20.5 11.29,20.5 L11.29,20.5 L14.625,20.5 C17.0412458,20.5 19,18.5412458 19,16.125 L19,16.125 L19,7.125 C19,6.64175084 18.6082492,6.25 18.125,6.25 C17.6417508,6.25 17.25,6.64175084 17.25,7.125 L17.25,7.125 L17.25,11.125 L16,11.125 Z" id="Combined-Shape" fill="#000000"></path>
    </g>
</svg>