<?xml version="1.0" encoding="UTF-8"?>
<svg width="24px" height="24px" viewBox="0 0 24 24" version="1.1" xmlns="http://www.w3.org/2000/svg" xmlns:xlink="http://www.w3.org/1999/xlink">
    <!-- Generator: Sketch 63.1 (92452) - https://sketch.com -->
    <title>steps</title>
    <desc>Created with Sketch.</desc>
    <g id="steps" stroke="none" stroke-width="1" fill="none" fill-rule="evenodd">
        <path d="M14.7325934,16.7008804 L17.3888894,17.4126328 C17.788989,17.5198392 18.0264258,17.9310919 17.9192195,18.3311915 L17.5633433,19.6593395 C17.2595919,20.7929549 16.0943759,21.4656927 14.9607604,21.1619414 C13.827145,20.85819 13.1544072,19.692974 13.4581585,18.5593585 L13.8140347,17.2312105 C13.9212411,16.8311109 14.3324938,16.5936741 14.7325934,16.7008804 Z M14.8920325,18.0376972 L14.6655658,18.8828823 C14.5404917,19.3496652 14.8175014,19.82946 15.2842843,19.9545341 C15.7510671,20.0796082 16.2308619,19.8025985 16.355936,19.3358157 L16.5824027,18.4906306 L14.8920325,18.0376972 Z M14.8593835,9.17714684 C15.2453,7.73688667 16.7257088,6.88217229 18.1659689,7.26808884 L18.1659689,7.26808884 L18.3436395,7.32169073 L18.5076516,7.38213686 C19.9584765,7.96514181 20.7195351,9.58656626 20.2150396,11.0876952 L20.2150396,11.0876952 L18.4953537,16.2046288 C18.3691858,16.5800423 17.9728669,16.792652 17.5903144,16.6901473 L17.5903144,16.6901473 L14.9061728,15.9709338 C14.5575593,15.8775231 14.3249125,15.5490638 14.3524779,15.1892067 L14.3524779,15.1892067 L14.7752756,9.66970679 C14.7880246,9.50327311 14.8161811,9.33838039 14.8593835,9.17714684 Z M9.91117308,11.7008804 C10.3112727,11.5936741 10.7225254,11.8311109 10.8297317,12.2312105 L10.8297317,12.2312105 L11.1856079,13.5593585 C11.4893593,14.692974 10.8166215,15.85819 9.68300601,16.1619414 C8.54939054,16.4656927 7.38417451,15.7929549 7.08042316,14.6593395 L7.08042316,14.6593395 L6.72454697,13.3311915 C6.61734062,12.9310919 6.85477748,12.5198392 7.25487706,12.4126328 L7.25487706,12.4126328 Z M17.8424451,8.47549613 C17.0690176,8.26825684 16.27403,8.72724311 16.0667908,9.50067065 C16.0435908,9.58725394 16.0284706,9.67580223 16.0216244,9.76517802 L16.0216244,9.76517802 L15.6305203,14.8709269 L17.4601181,15.3611661 L19.0301645,10.6894854 C19.3334199,9.78714757 18.8477676,8.80982119 17.9454298,8.50656582 C17.9114332,8.49514033 17.8770882,8.48477872 17.8424451,8.47549613 Z M9.75173398,13.0376972 L8.06136378,13.4906306 L8.28783044,14.3358157 C8.41290453,14.8025985 8.89269937,15.0796082 9.35948221,14.9545341 C9.82626505,14.82946 10.1032747,14.3496652 9.97820064,13.8828823 L9.97820064,13.8828823 L9.75173398,13.0376972 Z M9.78438299,4.17714684 C9.82758539,4.33838039 9.85574191,4.50327311 9.86849085,4.66970679 L10.2912886,10.1892067 C10.3188539,10.5490638 10.0862072,10.8775231 9.73759362,10.9709338 L7.05345207,11.6901473 C6.6708996,11.792652 6.27458071,11.5800423 6.14841273,11.2046288 L4.42872686,6.08769516 C3.92423133,4.58656626 4.68528993,2.96514181 6.13611486,2.38213686 L6.30012692,2.32169073 L6.47779753,2.26808884 C7.9180577,1.88217229 9.39846644,2.73688667 9.78438299,4.17714684 Z M6.80132134,3.47549613 C6.76667823,3.48477872 6.7323333,3.49514033 6.69833669,3.50656582 C5.79599886,3.80982119 5.31034658,4.78714757 5.61360195,5.6894854 L7.18364837,10.3611661 L9.0132462,9.87092686 L8.62214208,4.76517802 C8.61529583,4.67580223 8.60017563,4.58725394 8.57697571,4.50067065 C8.36973642,3.72724311 7.57474888,3.26825684 6.80132134,3.47549613 Z" id="Combined-Shape" fill="#000000"></path>
    </g>
</svg>