<?xml version="1.0" encoding="UTF-8"?>
<svg width="24px" height="24px" viewBox="0 0 24 24" version="1.1" xmlns="http://www.w3.org/2000/svg" xmlns:xlink="http://www.w3.org/1999/xlink">
    <!-- Generator: Sketch 63.1 (92452) - https://sketch.com -->
    <title>table</title>
    <desc>Created with Sketch.</desc>
    <g id="table" stroke="none" stroke-width="1" fill="none" fill-rule="evenodd">
        <path d="M20.125,5.125 C20.125,4.43464406 19.5653559,3.875 18.875,3.875 L5.125,3.875 C4.43464406,3.875 3.875,4.43464406 3.875,5.125 L3.875,18.875 C3.875,19.5653559 4.43464406,20.125 5.125,20.125 L18.875,20.125 C19.5653559,20.125 20.125,19.5653559 20.125,18.875 L20.125,5.125 Z M18.875,5.125 L18.875,7.625 L5.125,7.625 L5.125,5.125 L18.875,5.125 Z M18.875,18.875 L5.125,18.875 L5.125,16.375 L18.875,16.375 L18.875,18.875 Z M18.875,15.125 L5.125,15.125 L5.125,12.625 L18.875,12.625 L18.875,15.125 Z M18.875,11.375 L5.125,11.375 L5.125,8.875 L18.875,8.875 L18.875,11.375 Z" id="Fill" fill="#000000"></path>
    </g>
</svg>