<?xml version="1.0" encoding="UTF-8"?>
<svg width="24px" height="24px" viewBox="0 0 24 24" version="1.1" xmlns="http://www.w3.org/2000/svg" xmlns:xlink="http://www.w3.org/1999/xlink">
    <!-- Generator: Sketch 63.1 (92452) - https://sketch.com -->
    <title>task</title>
    <desc>Created with Sketch.</desc>
    <g id="task" stroke="none" stroke-width="1" fill="none" fill-rule="evenodd">
        <path d="M10.75,14.6125 L8.50625,12.36875 L7.625,13.25 L10.75,16.375 L16.375,10.75 L15.49375,9.8625 L10.75,14.6125 Z M17.625,5.125 L15.75,5.125 L15.75,4.5 C15.75,3.80964406 15.1903559,3.25 14.5,3.25 L9.5,3.25 C8.80964406,3.25 8.25,3.80964406 8.25,4.5 L8.25,5.125 L6.375,5.125 C5.68464406,5.125 5.125,5.68464406 5.125,6.375 L5.125,19.5 C5.125,20.1903559 5.68464406,20.75 6.375,20.75 L17.625,20.75 C18.3153559,20.75 18.875,20.1903559 18.875,19.5 L18.875,6.375 C18.875,5.68464406 18.3153559,5.125 17.625,5.125 Z M9.5,4.5 L14.5,4.5 L14.5,7 L9.5,7 L9.5,4.5 Z M17.625,19.5 L6.375,19.5 L6.375,6.375 L8.25,6.375 L8.25,8.25 L15.75,8.25 L15.75,6.375 L17.625,6.375 L17.625,19.5 Z" id="primary" fill="#000000"></path>
    </g>
</svg>