<?xml version="1.0" encoding="UTF-8"?>
<svg width="24px" height="24px" viewBox="0 0 24 24" version="1.1" xmlns="http://www.w3.org/2000/svg" xmlns:xlink="http://www.w3.org/1999/xlink">
    <!-- Generator: Sketch 63.1 (92452) - https://sketch.com -->
    <title>thaw</title>
    <desc>Created with Sketch.</desc>
    <g id="thaw" stroke="none" stroke-width="1" fill="none" fill-rule="evenodd">
        <path d="M13.3951052,4.2052869 C13.6269089,4.46105018 13.6074859,4.85630134 13.3517226,5.08810508 C12.3241231,6.01944052 11.6828244,7.30203783 11.5570048,8.62500469 C11.5570048,9.50637097 11.7672519,10.2561595 12.3968091,11.8522402 L12.7536661,12.7555133 C13.3481494,14.2937242 13.5567052,15.1091176 13.5543085,16.1829971 C13.3966255,17.8750573 12.6108194,19.4466697 11.3517809,20.5880522 C11.0960468,20.8198882 10.7007932,20.8005149 10.4689573,20.5447808 C10.2371213,20.2890468 10.2564946,19.8937932 10.5122286,19.6619572 C11.539724,18.7304803 12.1810168,17.4478947 12.3070001,16.1250047 C12.3070001,15.2436384 12.0967576,14.4938499 11.4672004,12.8977692 L11.1103435,11.9944962 C10.51586,10.4562862 10.3073035,9.64090046 10.3096938,8.56709069 C10.4671719,6.87492018 11.2530374,5.30318911 12.512287,4.1619043 C12.7680503,3.93010056 13.1633014,3.94952361 13.3951052,4.2052869 Z M7.70226569,5.70546409 C7.93397157,5.96131603 7.91439732,6.35655974 7.65854537,6.58826562 C6.91387978,7.26265328 6.4275451,8.17210301 6.27983197,9.11476428 L6.25000477,9.35100469 L6.25224942,9.48711867 C6.27342752,10.1185436 6.44764048,10.7118039 6.90895637,11.8828743 L7.23133691,12.6999762 C7.69848119,13.9154496 7.86366622,14.5769451 7.86129639,15.4581265 C7.7310338,16.8528075 7.08281975,18.1480308 6.04453257,19.0882772 C5.78867423,19.319976 5.39343106,19.3003908 5.16173225,19.0445325 C4.93003345,18.7886741 4.94961862,18.393431 5.20547697,18.1617322 C6.01200362,17.4313622 6.51552703,16.4252513 6.61400477,15.4000047 C6.61400477,14.7138181 6.44919999,14.1218374 5.95503063,12.8673319 L5.63262043,12.0502939 C5.19873662,10.922258 5.0251674,10.2773124 5.00258549,9.5264331 L5,9.35100469 L5.00270035,9.29302015 C5.13268998,7.89793928 5.78092671,6.60226909 6.81946417,5.66174377 C7.07531611,5.43003789 7.47055982,5.44961215 7.70226569,5.70546409 Z M18.7021673,5.7053555 C18.9339332,5.96115312 18.9144516,6.35640141 18.658654,6.58816725 C17.8520698,7.31897412 17.348528,8.32543375 17.2500048,9.35100469 C17.2500048,10.0367744 17.4147565,10.6285012 17.9089772,11.8832681 L18.2313693,12.7004905 C18.6985496,13.9161554 18.8636645,14.5773399 18.8612828,15.4582723 C18.7307078,16.8527677 18.0825925,18.1477937 17.0446411,19.0881789 C16.7888371,19.3199376 16.3935893,19.3004451 16.1618306,19.0446411 C15.9300718,18.788837 15.9495644,18.3935893 16.2053684,18.1618305 C17.0117583,17.4312404 17.5152825,16.4251279 17.6140048,15.4000047 C17.6140048,14.714235 17.449253,14.1225082 16.9550324,12.8677413 L16.6326402,12.0505191 C16.1654597,10.8348562 16.0003434,10.1736867 16.002714,9.29287427 C16.1330161,7.89797909 16.7811541,6.60250624 17.8193556,5.66184213 C18.0751532,5.43007628 18.4704015,5.44955788 18.7021673,5.7053555 Z" id="Combined-Shape" fill="#000000"></path>
    </g>
</svg>