<?xml version="1.0" encoding="UTF-8"?>
<svg width="24px" height="24px" viewBox="0 0 24 24" version="1.1" xmlns="http://www.w3.org/2000/svg" xmlns:xlink="http://www.w3.org/1999/xlink">
    <!-- Generator: Sketch 63.1 (92452) - https://sketch.com -->
    <title>trafficlight</title>
    <desc>Created with Sketch.</desc>
    <g id="trafficlight" stroke="none" stroke-width="1" fill="none" fill-rule="evenodd">
        <path d="M14.5,2.875 C15.3974627,2.875 16.125,3.60253728 16.125,4.5 L16.125,4.875 L17.5,4.875 L17.5,6.125 L16.125,6.125 L16.125,9.875 L17.5,9.875 L17.5,11.125 L16.125,11.125 L16.125,14.875 L17.5,14.875 L17.5,16.125 L16.125,16.125 L16.125,19.5 C16.125,20.3974627 15.3974627,21.125 14.5,21.125 L9.5,21.125 C8.60253728,21.125 7.875,20.3974627 7.875,19.5 L7.875,16.125 L6.5,16.125 L6.5,14.875 L7.875,14.875 L7.875,11.125 L6.5,11.125 L6.5,9.875 L7.875,9.875 L7.875,6.125 L6.5,6.125 L6.5,4.875 L7.875,4.875 L7.875,4.5 C7.875,3.60253728 8.60253728,2.875 9.5,2.875 L14.5,2.875 Z M14.5,4.125 L9.5,4.125 C9.29289322,4.125 9.125,4.29289322 9.125,4.5 L9.125,19.5 C9.125,19.7071068 9.29289322,19.875 9.5,19.875 L14.5,19.875 C14.7071068,19.875 14.875,19.7071068 14.875,19.5 L14.875,4.5 C14.875,4.29289322 14.7071068,4.125 14.5,4.125 Z M12,14.875 C13.1736051,14.875 14.125,15.8263949 14.125,17 C14.125,18.1736051 13.1736051,19.125 12,19.125 C10.8263949,19.125 9.875,18.1736051 9.875,17 C9.875,15.8263949 10.8263949,14.875 12,14.875 Z M12,16.125 C11.5167508,16.125 11.125,16.5167508 11.125,17 C11.125,17.4832492 11.5167508,17.875 12,17.875 C12.4832492,17.875 12.875,17.4832492 12.875,17 C12.875,16.5167508 12.4832492,16.125 12,16.125 Z M12,9.875 C13.1736051,9.875 14.125,10.8263949 14.125,12 C14.125,13.1736051 13.1736051,14.125 12,14.125 C10.8263949,14.125 9.875,13.1736051 9.875,12 C9.875,10.8263949 10.8263949,9.875 12,9.875 Z M12,11.125 C11.5167508,11.125 11.125,11.5167508 11.125,12 C11.125,12.4832492 11.5167508,12.875 12,12.875 C12.4832492,12.875 12.875,12.4832492 12.875,12 C12.875,11.5167508 12.4832492,11.125 12,11.125 Z M12,4.875 C13.1736051,4.875 14.125,5.82639491 14.125,7 C14.125,8.17360509 13.1736051,9.125 12,9.125 C10.8263949,9.125 9.875,8.17360509 9.875,7 C9.875,5.82639491 10.8263949,4.875 12,4.875 Z M12,6.125 C11.5167508,6.125 11.125,6.51675084 11.125,7 C11.125,7.48324916 11.5167508,7.875 12,7.875 C12.4832492,7.875 12.875,7.48324916 12.875,7 C12.875,6.51675084 12.4832492,6.125 12,6.125 Z" id="Combined-Shape" fill="#000000"></path>
    </g>
</svg>