<?xml version="1.0" encoding="UTF-8"?>
<svg width="24px" height="24px" viewBox="0 0 24 24" version="1.1" xmlns="http://www.w3.org/2000/svg" xmlns:xlink="http://www.w3.org/1999/xlink">
    <!-- Generator: Sketch 63.1 (92452) - https://sketch.com -->
    <title>trafficlight_stop</title>
    <desc>Created with Sketch.</desc>
    <g id="trafficlight_stop" stroke="none" stroke-width="1" fill="none" fill-rule="evenodd">
        <path d="M16.5,3.875 C17.3974627,3.875 18.125,4.60253728 18.125,5.5 L18.125,18.5 C18.125,19.3974627 17.3974627,20.125 16.5,20.125 L7.5,20.125 C6.60253728,20.125 5.875,19.3974627 5.875,18.5 L5.875,5.5 C5.875,4.60253728 6.60253728,3.875 7.5,3.875 L16.5,3.875 Z M16.5,5.125 L7.5,5.125 C7.29289322,5.125 7.125,5.29289322 7.125,5.5 L7.125,18.5 C7.125,18.7071068 7.29289322,18.875 7.5,18.875 L16.5,18.875 C16.7071068,18.875 16.875,18.7071068 16.875,18.5 L16.875,5.5 C16.875,5.29289322 16.7071068,5.125 16.5,5.125 Z M12,12.375 C13.4497475,12.375 14.625,13.5502525 14.625,15 C14.625,16.4497475 13.4497475,17.625 12,17.625 C10.5502525,17.625 9.375,16.4497475 9.375,15 C9.375,13.5502525 10.5502525,12.375 12,12.375 Z M12,13.625 C11.2406085,13.625 10.625,14.2406085 10.625,15 C10.625,15.7593915 11.2406085,16.375 12,16.375 C12.7593915,16.375 13.375,15.7593915 13.375,15 C13.375,14.2406085 12.7593915,13.625 12,13.625 Z" id="Combined-Shape" fill="#000000"></path>
        <path d="M12,6.375 C10.5502525,6.375 9.375,7.55025253 9.375,9 C9.375,10.4497475 10.5502525,11.625 12,11.625 C13.4497475,11.625 14.625,10.4497475 14.625,9 C14.625,7.55025253 13.4497475,6.375 12,6.375 Z" id="Path" fill="#FF5C49"></path>
    </g>
</svg>