<?xml version="1.0" encoding="UTF-8"?>
<svg width="24px" height="24px" viewBox="0 0 24 24" version="1.1" xmlns="http://www.w3.org/2000/svg" xmlns:xlink="http://www.w3.org/1999/xlink">
    <!-- Generator: Sketch 63.1 (92452) - https://sketch.com -->
    <title>type_material</title>
    <desc>Created with Sketch.</desc>
    <g id="type_material" stroke="none" stroke-width="1" fill="none" fill-rule="evenodd">
        <path d="M12.5048804,2.2953051 L14.8578785,3.67123652 C14.6319334,4.02209748 14.455067,4.40667297 14.336297,4.81476482 L12,3.44811802 L4.55434783,7.80308828 L4.55434783,16.1969117 L12,20.551882 L19.4456522,16.1969117 L19.4461813,9.78976075 C19.8986094,9.64582057 20.3200186,9.42998062 20.6964213,9.15521973 L20.6956522,16.34031 C20.6956522,16.6955598 20.5071803,17.0241407 20.2005326,17.2034994 L12.5048804,21.7046949 C12.1930084,21.8871091 11.8069916,21.8871091 11.4951196,21.7046949 L3.79946743,17.2034994 C3.49281967,17.0241407 3.30434783,16.6955598 3.30434783,16.34031 L3.30434783,7.65968995 C3.30434783,7.30444023 3.49281967,6.97585926 3.79946743,6.79650064 L11.4951196,2.2953051 C11.8069916,2.11289085 12.1930084,2.11289085 12.5048804,2.2953051 Z M11.120363,7.45958541 L12.3012212,8.63825896 C12.2019857,8.62948202 12.1015163,8.625 12,8.625 C10.136039,8.625 8.625,10.136039 8.625,12 C8.625,13.863961 10.136039,15.375 12,15.375 C13.863961,15.375 15.375,13.863961 15.375,12 C15.375,11.8984837 15.370518,11.7980143 15.361741,11.6987788 L16.5414681,12.8795655 C16.1306715,15.013233 14.2535599,16.625 12,16.625 C9.44568303,16.625 7.375,14.554317 7.375,12 C7.375,9.80044928 8.91043703,7.95951909 10.9679413,7.4905792 L11.120363,7.45958541 Z" id="Combined-Shape" fill="#000000"></path>
        <path d="M19.9794833,4.08343088 L20.1152843,4.2013094 L20.1849276,4.26843254 L20.1849276,4.26843254 L20.2520507,4.33807587 L20.7837723,4.90990057 L21.082166,4.58898192 C21.5558038,4.07908479 22.1848184,3.79984834 22.8283913,3.75646403 L22.8283098,5.01191552 C22.5210408,5.05166148 22.2253561,5.19495442 21.9980129,5.43970191 L21.6367723,5.82790057 L21.9980129,6.21770024 C22.2253561,6.46244773 22.5210408,6.60574067 22.8283098,6.64548664 L22.8283913,7.90093812 C22.2406795,7.8613195 21.6651084,7.62501499 21.2089187,7.19597815 L21.082166,7.06842023 L20.7837723,6.74690057 L20.2520507,7.31932629 C20.2081575,7.36657975 20.1625377,7.41219954 20.1152843,7.45609276 C19.0530869,8.44275607 17.3921572,8.38152364 16.4054938,7.31932629 L15.8727723,6.74690057 L15.5753785,7.06842023 L15.4808549,7.1650654 C15.0164497,7.61605445 14.4280581,7.86080844 13.8290816,7.90098939 L13.8290109,6.64556296 C14.0666701,6.61491745 14.2980335,6.52216158 14.4969175,6.3669116 L14.6100193,6.2683239 L15.0187723,5.82790057 L14.6100193,5.38907825 C14.3887096,5.17416199 14.1136464,5.0486577 13.8295579,5.01190984 L13.8290816,3.75641277 C14.4280581,3.79659372 15.0164497,4.0413477 15.4808549,4.49233676 L15.5753785,4.58898192 L15.8727723,4.90990057 L16.4054938,4.33807587 C17.3510462,3.32013674 18.9158467,3.22148657 19.9794833,4.08343088 Z M17.4222213,5.09062322 L17.3213407,5.18879585 L16.7257723,5.82790057 L17.3213407,6.4686063 C17.8381644,7.02499539 18.7081752,7.05706952 19.2645643,6.54024588 L19.3362038,6.4686063 L19.9307723,5.82790057 L19.3362038,5.18879585 L19.2645643,5.11715628 C18.7429495,4.63263411 17.9456906,4.63054163 17.4222213,5.09062322 Z" id="Combined-Shape-Copy-2" fill="#000000" transform="translate(18.328701, 5.828701) rotate(-45.000000) translate(-18.328701, -5.828701) "></path>
    </g>
</svg>