<?xml version="1.0" encoding="UTF-8"?>
<svg width="24px" height="24px" viewBox="0 0 24 24" version="1.1" xmlns="http://www.w3.org/2000/svg" xmlns:xlink="http://www.w3.org/1999/xlink">
    <!-- Generator: Sketch 63.1 (92452) - https://sketch.com -->
    <title>type_container</title>
    <desc>Created with Sketch.</desc>
    <g id="type_container" stroke="none" stroke-width="1" fill="none" fill-rule="evenodd">
        <path d="M14.4418006,4.49810403 C14.3773878,4.6692417 14.3234343,4.84529607 14.2806732,5.02543791 L14.2250175,5.29861263 L14.2221514,5.31375262 L14.1790242,5.3256573 L13.9192911,5.40982612 C13.6656392,5.50086817 13.422681,5.61462372 13.1924297,5.74962489 L4.5,5.75 L4.5,8.25 L11.91,8.24910295 L13.16,9.49910295 L5.75,9.5 L5.75,19.5 L18.25,19.5 L18.2511273,11.2120696 C18.4558047,10.9120441 18.6220888,10.588073 18.7462708,10.247263 L18.8314552,9.98860929 L18.8452155,9.93398833 L19.1004597,9.8842161 C19.2363787,9.85305331 19.3699681,9.8155271 19.5008831,9.77195726 L19.5,19.5 C19.5,20.1472087 19.0081253,20.6795339 18.3778052,20.7435464 L18.25,20.75 L5.75,20.75 C5.10279131,20.75 4.5704661,20.2581253 4.50645361,19.6278052 L4.5,19.5 L4.5,9.5 C3.85279131,9.5 3.3204661,9.00812534 3.25645361,8.37780524 L3.25,8.25 L3.25,5.75 C3.25,5.10279131 3.74187466,4.5704661 4.37219476,4.50645361 L4.5,4.5 L14.4418006,4.49810403 Z M20.0451696,1.18164678 L20.9328503,2.0694426 C20.743683,2.31481924 20.6359257,2.62522329 20.6482324,2.95904184 L20.6672946,3.48897545 L21.1983603,3.50916974 C21.5321789,3.52147641 21.8425829,3.41371918 22.0879596,3.22455181 L22.9757554,4.11223251 C22.5321658,4.49979289 21.958083,4.73969062 21.3321334,4.75889057 L21.1523086,4.75832115 L20.7139637,4.74196867 L20.7427458,5.5227187 C20.7451219,5.58716913 20.7451219,5.65168525 20.7427458,5.71613569 C20.6893352,7.16489896 19.4715827,8.29605578 18.0228194,8.24264515 L17.2413623,8.21457007 L17.2584218,8.65220795 L17.259922,8.7873847 C17.2504354,9.43466619 17.0074469,10.0237891 16.6123187,10.4757417 L15.7245482,9.58807109 C15.870929,9.39835105 15.9689393,9.16916409 15.9997932,8.91875356 L16.0100562,8.76906648 L15.9876619,8.16860813 L15.3883357,8.14734592 C15.0798774,8.15186673 14.7966334,8.25762086 14.5697678,8.43251712 L13.6816605,7.54508343 C14.1336131,7.14995529 14.722736,6.9069668 15.3700175,6.89748015 L15.5051942,6.89898031 L15.9424071,6.91561491 L15.914757,6.13458276 C15.8635718,4.74618462 16.9002967,3.56994737 18.261888,3.4273294 L18.4412665,3.41465631 L18.537975,3.41287427 L18.6346835,3.41465631 L19.4150085,3.44301351 L19.399081,3.00509351 C19.3734418,2.3096293 19.6207723,1.66739882 20.0451696,1.18164678 Z M18.5886318,4.66380772 L18.4873181,4.66380772 C17.7758719,4.69003615 17.2106451,5.25230369 17.1658232,5.94777924 L17.1639084,6.0885311 L17.1946932,6.96157685 L18.0688711,6.99349374 C18.8277471,7.02147074 19.4656174,6.42896002 19.4935944,5.67008402 L19.4935944,5.56877036 L19.4609704,4.69529962 L18.5886318,4.66380772 Z" id="primary" fill="#000000"></path>
    </g>
</svg>