<?xml version="1.0" encoding="UTF-8"?>
<svg width="24px" height="24px" viewBox="0 0 24 24" version="1.1" xmlns="http://www.w3.org/2000/svg" xmlns:xlink="http://www.w3.org/1999/xlink">
    <!-- Generator: Sketch 63.1 (92452) - https://sketch.com -->
    <title>type_shelf_foundation</title>
    <desc>Created with Sketch.</desc>
    <g id="type_shelf_foundation" stroke="none" stroke-width="1" fill="none" fill-rule="evenodd">
        <path d="M19,13 C19.6472087,13 20.1795339,13.4918747 20.2435464,14.1221948 L20.25,14.25 L20.25,17 L20.243,17.125 L20.25,17.125 L20.25,20.125 L19,20.125 L19,18.25 L5.25,18.25 L5.25,20.125 L4,20.125 L4,17.125 L4.006,17.125 L4,17 L4,14.25 C4,13.6027913 4.49187466,13.0704661 5.12219476,13.0064536 L5.25,13 L19,13 Z M19,14.25 L5.25,14.25 L5.25,17 L19,17 L19,14.25 Z" id="Combined-Shape" fill="#000000"></path>
        <path d="M19.9794833,4.08343088 L20.1152843,4.2013094 L20.1849276,4.26843254 L20.1849276,4.26843254 L20.2520507,4.33807587 L20.7837723,4.90990057 L21.082166,4.58898192 C21.5558038,4.07908479 22.1848184,3.79984834 22.8283913,3.75646403 L22.8283098,5.01191552 C22.5210408,5.05166148 22.2253561,5.19495442 21.9980129,5.43970191 L21.6367723,5.82790057 L21.9980129,6.21770024 C22.2253561,6.46244773 22.5210408,6.60574067 22.8283098,6.64548664 L22.8283913,7.90093812 C22.2406795,7.8613195 21.6651084,7.62501499 21.2089187,7.19597815 L21.082166,7.06842023 L20.7837723,6.74690057 L20.2520507,7.31932629 C20.2081575,7.36657975 20.1625377,7.41219954 20.1152843,7.45609276 C19.0530869,8.44275607 17.3921572,8.38152364 16.4054938,7.31932629 L15.8727723,6.74690057 L15.5753785,7.06842023 L15.4808549,7.1650654 C15.0164497,7.61605445 14.4280581,7.86080844 13.8290816,7.90098939 L13.8290109,6.64556296 C14.0666701,6.61491745 14.2980335,6.52216158 14.4969175,6.3669116 L14.6100193,6.2683239 L15.0187723,5.82790057 L14.6100193,5.38907825 C14.3887096,5.17416199 14.1136464,5.0486577 13.8295579,5.01190984 L13.8290816,3.75641277 C14.4280581,3.79659372 15.0164497,4.0413477 15.4808549,4.49233676 L15.5753785,4.58898192 L15.8727723,4.90990057 L16.4054938,4.33807587 C17.3510462,3.32013674 18.9158467,3.22148657 19.9794833,4.08343088 Z M17.4222213,5.09062322 L17.3213407,5.18879585 L16.7257723,5.82790057 L17.3213407,6.4686063 C17.8381644,7.02499539 18.7081752,7.05706952 19.2645643,6.54024588 L19.3362038,6.4686063 L19.9307723,5.82790057 L19.3362038,5.18879585 L19.2645643,5.11715628 C18.7429495,4.63263411 17.9456906,4.63054163 17.4222213,5.09062322 Z" id="Combined-Shape-Copy-2" fill="#000000" transform="translate(18.328701, 5.828701) rotate(-45.000000) translate(-18.328701, -5.828701) "></path>
    </g>
</svg>