<?xml version="1.0" encoding="UTF-8"?>
<svg width="24px" height="24px" viewBox="0 0 24 24" version="1.1" xmlns="http://www.w3.org/2000/svg" xmlns:xlink="http://www.w3.org/1999/xlink">
    <!-- Generator: Sketch 63.1 (92452) - https://sketch.com -->
    <title>type_agv</title>
    <desc>Created with Sketch.</desc>
    <g id="type_agv" stroke="none" stroke-width="1" fill="none" fill-rule="evenodd">
        <path d="M16.662,12.9996468 L16.6980837,13.0361529 L16.729,12.9996468 L20.25,13 C20.8972087,13 21.4295339,13.4918747 21.4935464,14.1221948 L21.5,14.25 L21.5,18 C21.5,18.6472087 21.0081253,19.1795339 20.3778052,19.2435464 L20.25,19.25 L19.4862059,19.2505597 C19.3615904,20.3752778 18.4079464,21.25 17.25,21.25 C16.0920536,21.25 15.1384096,20.3752778 15.0137941,19.2505597 L8.98620587,19.2505597 C8.8615904,20.3752778 7.90794636,21.25 6.75,21.25 C5.59205364,21.25 4.6384096,20.3752778 4.51379413,19.2505597 L3.75,19.25 C3.10279131,19.25 2.5704661,18.7581253 2.50645361,18.1278052 L2.5,18 L2.5,14.25 C2.5,13.6027913 2.99187466,13.0704661 3.62219476,13.0064536 L3.75,13 L16.662,12.9996468 Z M6.75,18 C6.19771525,18 5.75,18.4477153 5.75,19 C5.75,19.5522847 6.19771525,20 6.75,20 C7.30228475,20 7.75,19.5522847 7.75,19 C7.75,18.4477153 7.30228475,18 6.75,18 Z M17.25,18 C16.6977153,18 16.25,18.4477153 16.25,19 C16.25,19.5522847 16.6977153,20 17.25,20 C17.8022847,20 18.25,19.5522847 18.25,19 C18.25,18.4477153 17.8022847,18 17.25,18 Z M20.25,14.25 L3.75,14.25 L3.75,18 L4.73353347,18.0006974 C5.10157582,17.2594603 5.86629249,16.75 6.75,16.75 C7.63370751,16.75 8.39842418,17.2594603 8.76646653,18.0006974 L15.2335335,18.0006974 C15.6015758,17.2594603 16.3662925,16.75 17.25,16.75 C18.1337075,16.75 18.8984242,17.2594603 19.2664665,18.0006974 L20.25,18 L20.25,14.25 Z M20.0451696,1.18164678 L20.9328503,2.0694426 C20.743683,2.31481924 20.6359257,2.62522329 20.6482324,2.95904184 L20.6672946,3.48897545 L21.1983603,3.50916974 C21.5321789,3.52147641 21.8425829,3.41371918 22.0879596,3.22455181 L22.9757554,4.11223251 C22.5321658,4.49979289 21.958083,4.73969062 21.3321334,4.75889057 L21.1523086,4.75832115 L20.7139637,4.74196867 L20.7427458,5.5227187 C20.7451219,5.58716913 20.7451219,5.65168525 20.7427458,5.71613569 C20.6893352,7.16489896 19.4715827,8.29605578 18.0228194,8.24264515 L17.2413623,8.21457007 L17.2584218,8.65220795 L17.259922,8.7873847 C17.2504354,9.43466619 17.0074469,10.0237891 16.6123187,10.4757417 L15.7245482,9.58807109 C15.870929,9.39835105 15.9689393,9.16916409 15.9997932,8.91875356 L16.0100562,8.76906648 L15.9876619,8.16860813 L15.3883357,8.14734592 C15.0798774,8.15186673 14.7966334,8.25762086 14.5697678,8.43251712 L13.6816605,7.54508343 C14.1336131,7.14995529 14.722736,6.9069668 15.3700175,6.89748015 L15.5051942,6.89898031 L15.9424071,6.91561491 L15.914757,6.13458276 C15.8635718,4.74618462 16.9002967,3.56994737 18.261888,3.4273294 L18.4412665,3.41465631 L18.537975,3.41287427 L18.6346835,3.41465631 L19.4150085,3.44301351 L19.399081,3.00509351 C19.3734418,2.3096293 19.6207723,1.66739882 20.0451696,1.18164678 Z M11.334857,7.67199308 L12.5940358,8.93179074 C12.3998105,8.89418316 12.2009823,8.87483107 12,8.87483107 C11.1096899,8.87483107 10.2616484,9.25457868 9.66875,9.91875 L8.7375,9.08125 C9.41813976,8.31944782 10.3386262,7.82521493 11.334857,7.67199308 Z M12,4.5 C12.7984478,4.5 13.5797025,4.63870745 14.3129705,4.90072554 L14.2656891,5.09080239 L14.2656891,5.09080239 L14.2250175,5.29861263 L14.2221514,5.31375262 L14.1790242,5.3256573 L13.9192911,5.40982612 C13.6076876,5.52166844 13.3122225,5.66778852 13.0366278,5.84546503 C12.6986237,5.78282674 12.3513463,5.75 12,5.75 C10.2294902,5.75 8.5623059,6.58359214 7.5,8 L6.5,7.25 C7.79837388,5.51883483 9.83604354,4.5 12,4.5 Z M18.5886318,4.66380772 L18.4873181,4.66380772 C17.7758719,4.69003615 17.2106451,5.25230369 17.1658232,5.94777924 L17.1639084,6.0885311 L17.1946932,6.96157685 L18.0688711,6.99349374 C18.8277471,7.02147074 19.4656174,6.42896002 19.4935944,5.67008402 L19.4935944,5.56877036 L19.4609704,4.69529962 L18.5886318,4.66380772 Z" id="primary" fill="#000000"></path>
    </g>
</svg>