<?xml version="1.0" encoding="UTF-8"?>
<svg width="24px" height="24px" viewBox="0 0 24 24" version="1.1" xmlns="http://www.w3.org/2000/svg" xmlns:xlink="http://www.w3.org/1999/xlink">
    <!-- Generator: Sketch 63.1 (92452) - https://sketch.com -->
    <title>type_sqw</title>
    <desc>Created with Sketch.</desc>
    <g id="type_sqw" stroke="none" stroke-width="1" fill="none" fill-rule="evenodd">
        <path d="M15.39046,2.99880121 C15.0399328,3.36209935 14.7524186,3.78524336 14.5439818,4.25006609 L12.75,4.25 L12.75,12.5 L19,12.5 L19,9.90380121 L19.1004597,9.8842161 C19.5077878,9.7908261 19.8941926,9.64028578 20.2503979,9.44120216 L20.25,18 C20.25,18.6472087 19.7581253,19.1795339 19.1278052,19.2435464 L19,19.25 L18.62,19.2498012 L18.6198092,19.2790488 C18.5406449,20.4498384 17.565864,21.375 16.375,21.375 C15.1743859,21.375 14.1934076,20.4346269 14.1284268,19.2502424 L10.12,19.2498012 L10.1198092,19.2790488 C10.0406449,20.4498384 9.06586399,21.375 7.875,21.375 C6.67438585,21.375 5.6934076,20.4346269 5.62842683,19.2502424 L5.25,19.25 C4.60279131,19.25 4.0704661,18.7581253 4.00645361,18.1278052 L4,18 L4,4.25 C4,3.60279131 4.49187466,3.0704661 5.12219476,3.00645361 L5.25,3 L15.39046,2.99880121 Z M7.875,18.125 C7.32271525,18.125 6.875,18.5727153 6.875,19.125 C6.875,19.6772847 7.32271525,20.125 7.875,20.125 C8.42728475,20.125 8.875,19.6772847 8.875,19.125 C8.875,18.5727153 8.42728475,18.125 7.875,18.125 Z M16.375,18.125 C15.8227153,18.125 15.375,18.5727153 15.375,19.125 C15.375,19.6772847 15.8227153,20.125 16.375,20.125 C16.9272847,20.125 17.375,19.6772847 17.375,19.125 C17.375,18.5727153 16.9272847,18.125 16.375,18.125 Z M11.5,13.75 L5.25,13.75 L5.25,17.75 L6.09381576,17.7500921 C6.50531355,17.217782 7.15012627,16.875 7.875,16.875 C8.59987373,16.875 9.24468645,17.217782 9.65618424,17.7500921 L11.5,17.75 L11.5,13.75 Z M19,13.75 L12.75,13.75 L12.75,17.75 L14.5938158,17.7500921 C15.0053136,17.217782 15.6501263,16.875 16.375,16.875 C17.0998737,16.875 17.7446864,17.217782 18.1561842,17.7500921 L19,17.75 L19,13.75 Z M11.5,9.5 L5.25,9.5 L5.25,12.5 L11.5,12.5 L11.5,9.5 Z M20.0451696,1.18164678 L20.9328503,2.0694426 C20.743683,2.31481924 20.6359257,2.62522329 20.6482324,2.95904184 L20.6672946,3.48897545 L21.1983603,3.50916974 C21.5321789,3.52147641 21.8425829,3.41371918 22.0879596,3.22455181 L22.9757554,4.11223251 C22.5321658,4.49979289 21.958083,4.73969062 21.3321334,4.75889057 L21.1523086,4.75832115 L20.7139637,4.74196867 L20.7427458,5.5227187 C20.7451219,5.58716913 20.7451219,5.65168525 20.7427458,5.71613569 C20.6893352,7.16489896 19.4715827,8.29605578 18.0228194,8.24264515 L17.2413623,8.21457007 L17.2584218,8.65220795 L17.259922,8.7873847 C17.2504354,9.43466619 17.0074469,10.0237891 16.6123187,10.4757417 L15.7245482,9.58807109 C15.870929,9.39835105 15.9689393,9.16916409 15.9997932,8.91875356 L16.0100562,8.76906648 L15.9876619,8.16860813 L15.3883357,8.14734592 C15.0798774,8.15186673 14.7966334,8.25762086 14.5697678,8.43251712 L13.6816605,7.54508343 C14.1336131,7.14995529 14.722736,6.9069668 15.3700175,6.89748015 L15.5051942,6.89898031 L15.9424071,6.91561491 L15.914757,6.13458276 C15.8635718,4.74618462 16.9002967,3.56994737 18.261888,3.4273294 L18.4412665,3.41465631 L18.537975,3.41287427 L18.6346835,3.41465631 L19.4150085,3.44301351 L19.399081,3.00509351 C19.3734418,2.3096293 19.6207723,1.66739882 20.0451696,1.18164678 Z M11.5,4.25 L5.25,4.25 L5.25,8.25 L11.5,8.25 L11.5,4.25 Z M18.5886318,4.66380772 L18.4873181,4.66380772 C17.7758719,4.69003615 17.2106451,5.25230369 17.1658232,5.94777924 L17.1639084,6.0885311 L17.1946932,6.96157685 L18.0688711,6.99349374 C18.8277471,7.02147074 19.4656174,6.42896002 19.4935944,5.67008402 L19.4935944,5.56877036 L19.4609704,4.69529962 L18.5886318,4.66380772 Z" id="primary" fill="#000000"></path>
    </g>
</svg>