<?xml version="1.0" encoding="UTF-8"?>
<svg width="24px" height="24px" viewBox="0 0 24 24" version="1.1" xmlns="http://www.w3.org/2000/svg" xmlns:xlink="http://www.w3.org/1999/xlink">
    <!-- Generator: Sketch 63.1 (92452) - https://sketch.com -->
    <title>type_container</title>
    <desc>Created with Sketch.</desc>
    <g id="type_container" stroke="none" stroke-width="1" fill="none" fill-rule="evenodd">
        <path d="M14.4418006,4.49810403 C14.3451815,4.75481053 14.2720955,5.02257962 14.2250175,5.29861263 L14.2250175,5.29861263 L14.2221514,5.31375262 L14.1790242,5.3256573 L13.9192911,5.40982612 C13.6656392,5.50086817 13.422681,5.61462372 13.1924297,5.74962489 L4.5,5.75 L4.5,8.25 L11.91,8.24910295 L13.16,9.49910295 L5.75,9.5 L5.75,19.5 L18.25,19.5 L18.2511273,11.2120696 C18.5069741,10.8370378 18.7028312,10.4245908 18.8314552,9.98860929 L18.8314552,9.98860929 L18.8452155,9.93398833 L19.1004597,9.8842161 C19.2363787,9.85305331 19.3699681,9.8155271 19.5008831,9.77195726 L19.5,19.5 C19.5,20.1903559 18.9403559,20.75 18.25,20.75 L18.25,20.75 L5.75,20.75 C5.05964406,20.75 4.5,20.1903559 4.5,19.5 L4.5,19.5 L4.5,9.5 C3.80964406,9.5 3.25,8.94035594 3.25,8.25 L3.25,8.25 L3.25,5.75 C3.25,5.05964406 3.80964406,4.5 4.5,4.5 L4.5,4.5 Z" id="Combined-Shape" fill="#000000"></path>
        <path d="M19.9794833,4.08343088 L20.1152843,4.2013094 L20.1849276,4.26843254 L20.1849276,4.26843254 L20.2520507,4.33807587 L20.7837723,4.90990057 L21.082166,4.58898192 C21.5558038,4.07908479 22.1848184,3.79984834 22.8283913,3.75646403 L22.8283098,5.01191552 C22.5210408,5.05166148 22.2253561,5.19495442 21.9980129,5.43970191 L21.6367723,5.82790057 L21.9980129,6.21770024 C22.2253561,6.46244773 22.5210408,6.60574067 22.8283098,6.64548664 L22.8283913,7.90093812 C22.2406795,7.8613195 21.6651084,7.62501499 21.2089187,7.19597815 L21.082166,7.06842023 L20.7837723,6.74690057 L20.2520507,7.31932629 C20.2081575,7.36657975 20.1625377,7.41219954 20.1152843,7.45609276 C19.0530869,8.44275607 17.3921572,8.38152364 16.4054938,7.31932629 L15.8727723,6.74690057 L15.5753785,7.06842023 L15.4808549,7.1650654 C15.0164497,7.61605445 14.4280581,7.86080844 13.8290816,7.90098939 L13.8290109,6.64556296 C14.0666701,6.61491745 14.2980335,6.52216158 14.4969175,6.3669116 L14.6100193,6.2683239 L15.0187723,5.82790057 L14.6100193,5.38907825 C14.3887096,5.17416199 14.1136464,5.0486577 13.8295579,5.01190984 L13.8290816,3.75641277 C14.4280581,3.79659372 15.0164497,4.0413477 15.4808549,4.49233676 L15.5753785,4.58898192 L15.8727723,4.90990057 L16.4054938,4.33807587 C17.3510462,3.32013674 18.9158467,3.22148657 19.9794833,4.08343088 Z M17.4222213,5.09062322 L17.3213407,5.18879585 L16.7257723,5.82790057 L17.3213407,6.4686063 C17.8381644,7.02499539 18.7081752,7.05706952 19.2645643,6.54024588 L19.3362038,6.4686063 L19.9307723,5.82790057 L19.3362038,5.18879585 L19.2645643,5.11715628 C18.7429495,4.63263411 17.9456906,4.63054163 17.4222213,5.09062322 Z" id="Combined-Shape-Copy-2" fill="#000000" transform="translate(18.328701, 5.828701) rotate(-45.000000) translate(-18.328701, -5.828701) "></path>
    </g>
</svg>