<?xml version="1.0" encoding="UTF-8"?>
<svg width="24px" height="24px" viewBox="0 0 24 24" version="1.1" xmlns="http://www.w3.org/2000/svg" xmlns:xlink="http://www.w3.org/1999/xlink">
    <!-- Generator: Sketch 63.1 (92452) - https://sketch.com -->
    <title>type_agv</title>
    <desc>Created with Sketch.</desc>
    <g id="type_agv" stroke="none" stroke-width="1" fill="none" fill-rule="evenodd">
        <path d="M20.25,13 C20.8972087,13 21.4295339,13.4918747 21.4935464,14.1221948 L21.5,14.25 L21.5,18 C21.5,18.6472087 21.0081253,19.1795339 20.3778052,19.2435464 L20.25,19.25 L19.4862059,19.2505597 C19.3615904,20.3752778 18.4079464,21.25 17.25,21.25 C16.0920536,21.25 15.1384096,20.3752778 15.0137941,19.2505597 L8.98620587,19.2505597 C8.8615904,20.3752778 7.90794636,21.25 6.75,21.25 C5.59205364,21.25 4.6384096,20.3752778 4.51379413,19.2505597 L3.75,19.25 C3.10279131,19.25 2.5704661,18.7581253 2.50645361,18.1278052 L2.5,18 L2.5,14.25 C2.5,13.6027913 2.99187466,13.0704661 3.62219476,13.0064536 L3.75,13 L16.662,13 L16.6980837,13.0361529 L16.729,13 L20.25,13 Z M6.75,18 C6.19771525,18 5.75,18.4477153 5.75,19 C5.75,19.5522847 6.19771525,20 6.75,20 C7.30228475,20 7.75,19.5522847 7.75,19 C7.75,18.4477153 7.30228475,18 6.75,18 Z M17.25,18 C16.6977153,18 16.25,18.4477153 16.25,19 C16.25,19.5522847 16.6977153,20 17.25,20 C17.8022847,20 18.25,19.5522847 18.25,19 C18.25,18.4477153 17.8022847,18 17.25,18 Z M20.25,14.25 L3.75,14.25 L3.75,18 L4.73353347,18.0006974 C5.10157582,17.2594603 5.86629249,16.75 6.75,16.75 C7.63370751,16.75 8.39842418,17.2594603 8.76646653,18.0006974 L15.2335335,18.0006974 C15.6015758,17.2594603 16.3662925,16.75 17.25,16.75 C18.1337075,16.75 18.8984242,17.2594603 19.2664665,18.0006974 L20.25,18 L20.25,14.25 Z M11.3338571,7.67214698 L12.5940358,8.93179074 C12.3998105,8.89418316 12.2009823,8.87483107 12,8.87483107 C11.1096899,8.87483107 10.2616484,9.25457868 9.66875,9.91875 L8.7375,9.08125 C9.41791204,8.31970269 10.3380103,7.82554566 11.3338571,7.67214698 Z M12,4.5 C12.7984478,4.5 13.5797025,4.63870745 14.3129705,4.90072554 L14.2656891,5.09080239 L14.2656891,5.09080239 L14.2250175,5.29861263 L14.2221514,5.31375262 L14.1790242,5.3256573 L13.9192911,5.40982612 C13.6076876,5.52166844 13.3122225,5.66778852 13.0366278,5.84546503 C12.6986237,5.78282674 12.3513463,5.75 12,5.75 C10.2294902,5.75 8.5623059,6.58359214 7.5,8 L6.5,7.25 C7.79837388,5.51883483 9.83604354,4.5 12,4.5 Z" id="Combined-Shape" fill="#000000"></path>
        <path d="M19.9794833,4.08343088 L20.1152843,4.2013094 L20.1849276,4.26843254 L20.1849276,4.26843254 L20.2520507,4.33807587 L20.7837723,4.90990057 L21.082166,4.58898192 C21.5558038,4.07908479 22.1848184,3.79984834 22.8283913,3.75646403 L22.8283098,5.01191552 C22.5210408,5.05166148 22.2253561,5.19495442 21.9980129,5.43970191 L21.6367723,5.82790057 L21.9980129,6.21770024 C22.2253561,6.46244773 22.5210408,6.60574067 22.8283098,6.64548664 L22.8283913,7.90093812 C22.2406795,7.8613195 21.6651084,7.62501499 21.2089187,7.19597815 L21.082166,7.06842023 L20.7837723,6.74690057 L20.2520507,7.31932629 C20.2081575,7.36657975 20.1625377,7.41219954 20.1152843,7.45609276 C19.0530869,8.44275607 17.3921572,8.38152364 16.4054938,7.31932629 L15.8727723,6.74690057 L15.5753785,7.06842023 L15.4808549,7.1650654 C15.0164497,7.61605445 14.4280581,7.86080844 13.8290816,7.90098939 L13.8290109,6.64556296 C14.0666701,6.61491745 14.2980335,6.52216158 14.4969175,6.3669116 L14.6100193,6.2683239 L15.0187723,5.82790057 L14.6100193,5.38907825 C14.3887096,5.17416199 14.1136464,5.0486577 13.8295579,5.01190984 L13.8290816,3.75641277 C14.4280581,3.79659372 15.0164497,4.0413477 15.4808549,4.49233676 L15.5753785,4.58898192 L15.8727723,4.90990057 L16.4054938,4.33807587 C17.3510462,3.32013674 18.9158467,3.22148657 19.9794833,4.08343088 Z M17.4222213,5.09062322 L17.3213407,5.18879585 L16.7257723,5.82790057 L17.3213407,6.4686063 C17.8381644,7.02499539 18.7081752,7.05706952 19.2645643,6.54024588 L19.3362038,6.4686063 L19.9307723,5.82790057 L19.3362038,5.18879585 L19.2645643,5.11715628 C18.7429495,4.63263411 17.9456906,4.63054163 17.4222213,5.09062322 Z" id="Combined-Shape-Copy-2" fill="#000000" transform="translate(18.328701, 5.828701) rotate(-45.000000) translate(-18.328701, -5.828701) "></path>
    </g>
</svg>