<?xml version="1.0" encoding="UTF-8"?>
<svg width="24px" height="24px" viewBox="0 0 24 24" version="1.1" xmlns="http://www.w3.org/2000/svg" xmlns:xlink="http://www.w3.org/1999/xlink">
    <!-- Generator: Sketch 63.1 (92452) - https://sketch.com -->
    <title>type_shelf</title>
    <desc>Created with Sketch.</desc>
    <g id="type_shelf" stroke="none" stroke-width="1" fill="none" fill-rule="evenodd">
        <path d="M15.5158567,2.8739619 C15.1410268,3.23240157 14.83066,3.65618135 14.6021496,4.12563123 L5.125,4.125 L5.125,6.625 L12.074,6.6249619 L10.643,7.8749619 L5.125,7.875 L5.125,10.375 L13.423,10.3749619 L14.961,11.6249619 L5.125,11.625 L5.125,14.125 L18.875,14.125 L18.875,11.625 L17.931,11.6249619 L18.0807782,11.4449163 L18.2437304,11.2228774 C18.4256654,10.9578957 18.5775715,10.6740966 18.6968789,10.3764044 L18.875,10.375 L18.875,9.9279619 L19.1004597,9.8842161 C19.460687,9.80162513 19.80455,9.67433667 20.1256329,9.50830392 L20.125,17.875 C20.125,17.9174678 20.1228822,17.9594409 20.1187465,18.0008195 L20.125,18 L20.125,21 L18.875,21 L18.875,19.125 L5.125,19.125 L5.125,21 L3.875,21 L3.875,18 L3.881,17.9999619 L3.875,17.875 L3.875,4.125 C3.875,3.47779131 4.36687466,2.9454661 4.99719476,2.88145361 L5.125,2.875 L15.5158567,2.8739619 Z M18.875,15.375 L5.125,15.375 L5.125,17.875 L18.875,17.875 L18.875,15.375 Z M20.0451696,1.18164678 L20.9328503,2.0694426 C20.743683,2.31481924 20.6359257,2.62522329 20.6482324,2.95904184 L20.6672946,3.48897545 L21.1983603,3.50916974 C21.5321789,3.52147641 21.8425829,3.41371918 22.0879596,3.22455181 L22.9757554,4.11223251 C22.5321658,4.49979289 21.958083,4.73969062 21.3321334,4.75889057 L21.1523086,4.75832115 L20.7139637,4.74196867 L20.7427458,5.5227187 C20.7451219,5.58716913 20.7451219,5.65168525 20.7427458,5.71613569 C20.6893352,7.16489896 19.4715827,8.29605578 18.0228194,8.24264515 L17.2413623,8.21457007 L17.2584218,8.65220795 L17.259922,8.7873847 C17.2504354,9.43466619 17.0074469,10.0237891 16.6123187,10.4757417 L15.7245482,9.58807109 C15.870929,9.39835105 15.9689393,9.16916409 15.9997932,8.91875356 L16.0100562,8.76906648 L15.9876619,8.16860813 L15.3883357,8.14734592 C15.0798774,8.15186673 14.7966334,8.25762086 14.5697678,8.43251712 L13.6816605,7.54508343 C14.1336131,7.14995529 14.722736,6.9069668 15.3700175,6.89748015 L15.5051942,6.89898031 L15.9424071,6.91561491 L15.914757,6.13458276 C15.8635718,4.74618462 16.9002967,3.56994737 18.261888,3.4273294 L18.4412665,3.41465631 L18.537975,3.41287427 L18.6346835,3.41465631 L19.4150085,3.44301351 L19.399081,3.00509351 C19.3734418,2.3096293 19.6207723,1.66739882 20.0451696,1.18164678 Z M18.5886318,4.66380772 L18.4873181,4.66380772 C17.7758719,4.69003615 17.2106451,5.25230369 17.1658232,5.94777924 L17.1639084,6.0885311 L17.1946932,6.96157685 L18.0688711,6.99349374 C18.8277471,7.02147074 19.4656174,6.42896002 19.4935944,5.67008402 L19.4935944,5.56877036 L19.4609704,4.69529962 L18.5886318,4.66380772 Z" id="primary" fill="#000000"></path>
    </g>
</svg>