<?xml version="1.0" encoding="UTF-8"?>
<svg width="24px" height="24px" viewBox="0 0 24 24" version="1.1" xmlns="http://www.w3.org/2000/svg" xmlns:xlink="http://www.w3.org/1999/xlink">
    <!-- Generator: Sketch 63.1 (92452) - https://sketch.com -->
    <title>type_material</title>
    <desc>Created with Sketch.</desc>
    <g id="type_material" stroke="none" stroke-width="1" fill="none" fill-rule="evenodd">
        <path d="M12.5048804,2.2953051 L14.8578785,3.67123652 C14.6319334,4.02209748 14.455067,4.40667297 14.336297,4.81476482 L12,3.44811802 L4.55434783,7.80308828 L4.55434783,16.1969117 L12,20.551882 L19.4456522,16.1969117 L19.4461813,9.78976075 C19.8986094,9.64582057 20.3200186,9.42998062 20.6964213,9.15521973 L20.6956522,16.34031 C20.6956522,16.6955598 20.5071803,17.0241407 20.2005326,17.2034994 L12.5048804,21.7046949 C12.1930084,21.8871091 11.8069916,21.8871091 11.4951196,21.7046949 L3.79946743,17.2034994 C3.49281967,17.0241407 3.30434783,16.6955598 3.30434783,16.34031 L3.30434783,7.65968995 C3.30434783,7.30444023 3.49281967,6.97585926 3.79946743,6.79650064 L11.4951196,2.2953051 C11.8069916,2.11289085 12.1930084,2.11289085 12.5048804,2.2953051 Z M11.120363,7.45958541 L12.3012212,8.63825896 C12.2019857,8.62948202 12.1015163,8.625 12,8.625 C10.136039,8.625 8.625,10.136039 8.625,12 C8.625,13.863961 10.136039,15.375 12,15.375 C13.863961,15.375 15.375,13.863961 15.375,12 C15.375,11.8984837 15.370518,11.7980143 15.361741,11.6987788 L16.5414681,12.8795655 C16.1306715,15.013233 14.2535599,16.625 12,16.625 C9.44568303,16.625 7.375,14.554317 7.375,12 C7.375,9.80044928 8.91043703,7.95951909 10.9679413,7.4905792 L11.120363,7.45958541 Z M20.0451696,1.18164678 L20.9328503,2.0694426 C20.743683,2.31481924 20.6359257,2.62522329 20.6482324,2.95904184 L20.6672946,3.48897545 L21.1983603,3.50916974 C21.5321789,3.52147641 21.8425829,3.41371918 22.0879596,3.22455181 L22.9757554,4.11223251 C22.5321658,4.49979289 21.958083,4.73969062 21.3321334,4.75889057 L21.1523086,4.75832115 L20.7139637,4.74196867 L20.7427458,5.5227187 C20.7451219,5.58716913 20.7451219,5.65168525 20.7427458,5.71613569 C20.6893352,7.16489896 19.4715827,8.29605578 18.0228194,8.24264515 L17.2413623,8.21457007 L17.2584218,8.65220795 L17.259922,8.7873847 C17.2504354,9.43466619 17.0074469,10.0237891 16.6123187,10.4757417 L15.7245482,9.58807109 C15.870929,9.39835105 15.9689393,9.16916409 15.9997932,8.91875356 L16.0100562,8.76906648 L15.9876619,8.16860813 L15.3883357,8.14734592 C15.0798774,8.15186673 14.7966334,8.25762086 14.5697678,8.43251712 L13.6816605,7.54508343 C14.1336131,7.14995529 14.722736,6.9069668 15.3700175,6.89748015 L15.5051942,6.89898031 L15.9424071,6.91561491 L15.914757,6.13458276 C15.8635718,4.74618462 16.9002967,3.56994737 18.261888,3.4273294 L18.4412665,3.41465631 L18.537975,3.41287427 L18.6346835,3.41465631 L19.4150085,3.44301351 L19.399081,3.00509351 C19.3734418,2.3096293 19.6207723,1.66739882 20.0451696,1.18164678 Z M18.5886318,4.66380772 L18.4873181,4.66380772 C17.7758719,4.69003615 17.2106451,5.25230369 17.1658232,5.94777924 L17.1639084,6.0885311 L17.1946932,6.96157685 L18.0688711,6.99349374 C18.8277471,7.02147074 19.4656174,6.42896002 19.4935944,5.67008402 L19.4935944,5.56877036 L19.4609704,4.69529962 L18.5886318,4.66380772 Z" id="primary" fill="#000000"></path>
    </g>
</svg>