<?xml version="1.0" encoding="UTF-8"?>
<svg width="24px" height="24px" viewBox="0 0 24 24" version="1.1" xmlns="http://www.w3.org/2000/svg" xmlns:xlink="http://www.w3.org/1999/xlink">
    <!-- Generator: Sketch 63.1 (92452) - https://sketch.com -->
    <title>type_dna</title>
    <desc>Created with Sketch.</desc>
    <g id="type_dna" stroke="none" stroke-width="1" fill="none" fill-rule="evenodd">
        <path d="M9.15041205,12.5838792 L9.28621304,12.7017577 L9.35585636,12.7688808 L9.35585636,12.7688808 L9.4229795,12.8385242 L9.95470106,13.4103489 L10.2530948,13.0894302 C10.7267326,12.5795331 11.3557472,12.3002966 11.99932,12.2569123 L11.9992386,13.5123638 C11.6919696,13.5521098 11.3962849,13.6954027 11.1689417,13.9401502 L10.8077011,14.3283489 L11.1689417,14.7181485 C11.3962849,14.962896 11.6919696,15.106189 11.9992386,15.1459349 L11.99932,16.4013864 C11.4116083,16.3617678 10.8360371,16.1254633 10.3798475,15.6964264 L10.2530948,15.5688685 L9.95470106,15.2473489 L9.4229795,15.8197746 C9.37908628,15.867028 9.3334665,15.9126478 9.28621304,15.956541 C8.22401568,16.9432044 6.56308594,16.8819719 5.57642262,15.8197746 L5.04370106,15.2473489 L4.7463073,15.5688685 L4.65178367,15.6655137 C4.18737847,16.1165027 3.59898687,16.3612567 3.00001035,16.4014377 L2.99993968,15.1460112 C3.23759883,15.1153657 3.46896226,15.0226099 3.66784625,14.8673599 L3.78094805,14.7687722 L4.18970106,14.3283489 L3.78094805,13.8895265 C3.55963839,13.6746103 3.28457519,13.549106 3.00048666,13.5123581 L3.00001035,12.2568611 C3.59898687,12.297042 4.18737847,12.541796 4.65178367,12.992785 L4.7463073,13.0894302 L5.04370106,13.4103489 L5.57642262,12.8385242 C6.52197497,11.820585 8.08677547,11.7219349 9.15041205,12.5838792 Z M6.59315005,13.5910715 L6.4922695,13.6892441 L5.89670106,14.3283489 L6.4922695,14.9690546 C7.00909314,15.5254437 7.87910396,15.5575178 8.43549305,15.0406942 L8.50713263,14.9690546 L9.10170106,14.3283489 L8.50713263,13.6892441 L8.43549305,13.6176046 C7.91387828,13.1330824 7.11661941,13.1309899 6.59315005,13.5910715 Z" id="Combined-Shape-Copy-2" fill="#000000" transform="translate(7.499630, 14.329149) rotate(-45.000000) translate(-7.499630, -14.329149) "></path>
    </g>
</svg>