<?xml version="1.0" encoding="UTF-8"?>
<svg width="24px" height="24px" viewBox="0 0 24 24" version="1.1" xmlns="http://www.w3.org/2000/svg" xmlns:xlink="http://www.w3.org/1999/xlink">
    <!-- Generator: Sketch 63.1 (92452) - https://sketch.com -->
    <title>user</title>
    <desc>Created with Sketch.</desc>
    <g id="user" stroke="none" stroke-width="1" fill="none" fill-rule="evenodd">
        <path d="M12,4.5 C13.7258898,4.5 15.125,5.89911016 15.125,7.625 C15.125,9.35088984 13.7258898,10.75 12,10.75 C10.2741102,10.75 8.875,9.35088984 8.875,7.625 C8.875,5.89911016 10.2741102,4.5 12,4.5 L12,4.5 Z M12,3.25 C9.58375422,3.25 7.625,5.20875422 7.625,7.625 C7.625,10.0412458 9.58375422,12 12,12 C14.4162458,12 16.375,10.0412458 16.375,7.625 C16.375,5.20875422 14.4162458,3.25 12,3.25 Z M18.25,20.75 L17,20.75 L17,17.625 C17,16.7961985 16.6707599,16.0013425 16.0847087,15.4152913 C15.4986575,14.8292401 14.7038015,14.5 13.875,14.5 L10.125,14.5 C8.39911016,14.5 7,15.8991102 7,17.625 L7,20.75 L5.75,20.75 L5.75,17.625 C5.75,15.2087542 7.70875422,13.25 10.125,13.25 L13.875,13.25 C16.2912458,13.25 18.25,15.2087542 18.25,17.625 L18.25,20.75 Z" id="Fill" fill="#000000"></path>
    </g>
</svg>