<?xml version="1.0" encoding="UTF-8"?>
<svg width="24px" height="24px" viewBox="0 0 24 24" version="1.1" xmlns="http://www.w3.org/2000/svg" xmlns:xlink="http://www.w3.org/1999/xlink">
    <!-- Generator: Sketch 63.1 (92452) - https://sketch.com -->
    <title>view_autolayout</title>
    <desc>Created with Sketch.</desc>
    <g id="view_autolayout" stroke="none" stroke-width="1" fill="none" fill-rule="evenodd">
        <path d="M18.25,5.75 L18.25,8.25 L5.75,8.25 L5.75,5.75 L18.25,5.75 L18.25,5.75 Z M18.25,4.5 L5.75,4.5 C5.05964406,4.5 4.5,5.05964406 4.5,5.75 L4.5,8.25 C4.5,8.94035594 5.05964406,9.5 5.75,9.5 L18.25,9.5 C18.9403559,9.5 19.5,8.94035594 19.5,8.25 L19.5,5.75 C19.5,5.05964406 18.9403559,4.5 18.25,4.5 Z M8.25,12 L8.25,18.25 L5.75,18.25 L5.75,12 L8.25,12 L8.25,12 Z M8.25,10.75 L5.75,10.75 C5.05964406,10.75 4.5,11.3096441 4.5,12 L4.5,18.25 C4.5,18.9403559 5.05964406,19.5 5.75,19.5 L8.25,19.5 C8.94035594,19.5 9.5,18.9403559 9.5,18.25 L9.5,12 C9.5,11.3096441 8.94035594,10.75 8.25,10.75 Z M18.25,12 L18.25,18.25 L12,18.25 L12,12 L18.25,12 L18.25,12 Z M18.25,10.75 L12,10.75 C11.3096441,10.75 10.75,11.3096441 10.75,12 L10.75,18.25 C10.75,18.9403559 11.3096441,19.5 12,19.5 L18.25,19.5 C18.9403559,19.5 19.5,18.9403559 19.5,18.25 L19.5,12 C19.5,11.3096441 18.9403559,10.75 18.25,10.75 Z" id="primary" fill="#000000"></path>
    </g>
</svg>