<?xml version="1.0" encoding="UTF-8"?>
<svg width="24px" height="24px" viewBox="0 0 24 24" version="1.1" xmlns="http://www.w3.org/2000/svg" xmlns:xlink="http://www.w3.org/1999/xlink">
    <!-- Generator: Sketch 63.1 (92452) - https://sketch.com -->
    <title>view</title>
    <desc>Created with Sketch.</desc>
    <g id="view" stroke="none" stroke-width="1" fill="none" fill-rule="evenodd">
        <path d="M21.3375,11.7875 C19.835019,7.90106328 16.163811,5.28158018 12,5.125 C7.83618899,5.28158018 4.16498097,7.90106328 2.6625,11.7875 C2.61285453,11.9248172 2.61285453,12.0751828 2.6625,12.2125 C4.16498097,16.0989367 7.83618899,18.7184198 12,18.875 C16.163811,18.7184198 19.835019,16.0989367 21.3375,12.2125 C21.3871455,12.0751828 21.3871455,11.9248172 21.3375,11.7875 Z M12,17.625 C8.6875,17.625 5.1875,15.16875 3.91875,12 C5.1875,8.83125 8.6875,6.375 12,6.375 C15.3125,6.375 18.8125,8.83125 20.08125,12 C18.8125,15.16875 15.3125,17.625 12,17.625 Z M12,8.25 C9.92893219,8.25 8.25,9.92893219 8.25,12 C8.25,14.0710678 9.92893219,15.75 12,15.75 C14.0710678,15.75 15.75,14.0710678 15.75,12 C15.75,9.92893219 14.0710678,8.25 12,8.25 Z M12,14.5 C10.6192881,14.5 9.5,13.3807119 9.5,12 C9.5,10.6192881 10.6192881,9.5 12,9.5 C13.3807119,9.5 14.5,10.6192881 14.5,12 C14.5,12.6630412 14.2366079,13.298926 13.767767,13.767767 C13.298926,14.2366079 12.6630412,14.5 12,14.5 Z" id="primary" fill="#000000"></path>
    </g>
</svg>