<?xml version="1.0" encoding="UTF-8"?>
<svg width="24px" height="24px" viewBox="0 0 24 24" version="1.1" xmlns="http://www.w3.org/2000/svg" xmlns:xlink="http://www.w3.org/1999/xlink">
    <!-- Generator: Sketch 63.1 (92452) - https://sketch.com -->
    <title>warning</title>
    <desc>Created with Sketch.</desc>
    <g id="warning" stroke="none" stroke-width="1" fill="none" fill-rule="evenodd">
        <path d="M12,15.75 C11.482233,15.75 11.0625,16.169733 11.0625,16.6875 C11.0625,17.205267 11.482233,17.625 12,17.625 C12.517767,17.625 12.9375,17.205267 12.9375,16.6875 C12.9375,16.169733 12.517767,15.75 12,15.75 Z M11.375,8.875 L12.625,8.875 L12.625,14.5 L11.375,14.5 L11.375,8.875 Z M20.125,20.1250014 L3.875,20.1250014 C3.65656115,20.1254548 3.45373481,20.0118325 3.34003639,19.825316 C3.22633797,19.6387995 3.21826744,19.4064562 3.31875,19.2125 L11.44375,3.5875 C11.550685,3.37877111 11.7654732,3.24747533 12,3.24747533 C12.2345268,3.24747533 12.449315,3.37877111 12.55625,3.5875 L20.68125,19.2125 C20.7817326,19.4064562 20.773662,19.6387995 20.6599636,19.825316 C20.5462652,20.0118325 20.3434389,20.1254548 20.125,20.1250014 Z M4.90625,18.875 L19.09375,18.875 L12,5.23125 L4.90625,18.875 Z" id="primary" fill="#000000"></path>
    </g>
</svg>