<?xml version="1.0" standalone="no"?>
<!DOCTYPE svg PUBLIC "-//W3C//DTD SVG 1.1//EN" "http://www.w3.org/Graphics/SVG/1.1/DTD/svg11.dtd" >
<svg xmlns="http://www.w3.org/2000/svg">
<metadata>Generated by IcoMoon</metadata>
<defs>
<font id="arculus" horiz-adv-x="1024">
<font-face units-per-em="1024" ascent="960" descent="-64" />
<missing-glyph horiz-adv-x="1024" />
<glyph unicode="&#x20;" horiz-adv-x="512" d="" />
<glyph unicode="&#x61;" glyph-name="add_edge" d="M245.333 213.334c29.455 0 53.333-23.878 53.333-53.333s-23.878-53.333-53.333-53.333c-29.455 0-53.333 23.878-53.333 53.333s23.878 53.333 53.333 53.333v0zM245.333 266.667c-58.91 0-106.667-47.756-106.667-106.667s47.756-106.667 106.667-106.667c58.91 0 106.667 47.756 106.667 106.667s-47.756 106.667-106.667 106.667zM512 746.667c29.455 0 53.333-23.878 53.333-53.333s-23.878-53.333-53.333-53.333c-29.455 0-53.333 23.878-53.333 53.333s23.878 53.333 53.333 53.333v0zM512 800c-58.91 0-106.667-47.756-106.667-106.667s47.756-106.667 106.667-106.667c58.91 0 106.667 47.756 106.667 106.667s-47.756 106.667-106.667 106.667zM778.667 746.667c29.455 0 53.333-23.878 53.333-53.333s-23.878-53.333-53.333-53.333c-29.455 0-53.333 23.878-53.333 53.333s23.878 53.333 53.333 53.333v0zM778.667 800c-58.91 0-106.667-47.756-106.667-106.667s47.756-106.667 106.667-106.667c58.91 0 106.667 47.756 106.667 106.667s-47.756 106.667-106.667 106.667zM565.333 213.334v-106.667h-106.667v106.667h106.667zM618.667 266.667h-213.333v-213.333h213.333v213.333zM805.333 262.934v137.067c0 29.455-23.878 53.333-53.333 53.333h-480v133.333h80v213.333h-213.333v-213.333h80v-133.333c0-29.455 23.878-53.333 53.333-53.333h480v-137.067c-52.008-13.428-85.918-63.434-79.15-116.72s52.103-93.226 105.816-93.226c53.714 0 99.048 39.941 105.816 93.226s-27.142 103.292-79.15 116.72zM192 746.667h106.667v-106.667h-106.667v106.667zM778.667 106.667c-29.455 0-53.333 23.878-53.333 53.333s23.878 53.333 53.333 53.333c29.455 0 53.333-23.878 53.333-53.333s-23.878-53.333-53.333-53.333z" />
<glyph unicode="&#x62;" glyph-name="add_row" d="M538.667 453.334v213.333h-53.333v-213.333h-213.333v-53.333h213.333v-213.333h53.333v213.333h213.333v53.333z" />
<glyph unicode="&#x63;" glyph-name="agv" d="M864 426.667c29.455 0 53.333-23.878 53.333-53.333v0-160c0-29.455-23.878-53.333-53.333-53.333v0l-32.589-0.024c-5.317-47.988-46.006-85.309-95.411-85.309s-90.095 37.321-95.411 85.309h-257.177c-5.317-47.988-46.006-85.309-95.411-85.309s-90.095 37.321-95.411 85.309l-32.589 0.024c-29.455 0-53.333 23.878-53.333 53.333v0 160c0 29.455 23.878 53.333 53.333 53.333v0zM288 213.334c-23.564 0-42.667-19.103-42.667-42.667s19.103-42.667 42.667-42.667c23.564 0 42.667 19.103 42.667 42.667s-19.103 42.667-42.667 42.667zM736 213.334c-23.564 0-42.667-19.103-42.667-42.667s19.103-42.667 42.667-42.667c23.564 0 42.667 19.103 42.667 42.667s-19.103 42.667-42.667 42.667zM864 373.334h-704v-160l41.964-0.030c15.703 31.626 48.331 53.363 86.036 53.363s70.333-21.737 86.036-53.363h275.928c15.703 31.626 48.331 53.363 86.036 53.363s70.333-21.737 86.036-53.363l41.964 0.030v160zM372.8 593.867c35.414 39.637 86.047 62.297 139.2 62.297s103.786-22.66 139.2-62.297l-39.733-35.733c-25.297 28.338-61.48 44.541-99.467 44.541s-74.17-16.203-99.467-44.541l-39.733 35.733zM277.333 672c55.397 73.863 142.338 117.333 234.667 117.333s179.269-43.47 234.667-117.333l-42.667-32c-45.325 60.433-116.458 96-192 96s-146.675-35.567-192-96l-42.667 32z" />
<glyph unicode="&#x64;" glyph-name="alert_primaryed" d="M882.133 119.467l-346.667 666.667c-4.655 8.625-13.666 14.001-23.467 14.001s-18.812-5.376-23.467-14.001l-346.667-666.667c-4.764-8.251-4.764-18.416 0-26.667 4.965-8.162 13.916-13.045 23.467-12.8h693.333c9.415 0.002 18.132 4.968 22.933 13.067 4.828 8.088 5.031 18.123 0.533 26.4zM482.133 586.667h60v-266.667h-60v266.667zM512 160c-22.091 0-40 17.909-40 40s17.909 40 40 40c22.091 0 40-17.909 40-40s-17.909-40-40-40z" />
<glyph unicode="&#x65;" glyph-name="analytics" d="M192 800h-53.333v-693.333c0-29.455 23.878-53.333 53.333-53.333h693.333v53.333h-693.333v693.333zM885.333 613.334h-186.667v-53.333h95.733l-202.4-202.4-114.4 114.667c-5.007 5.048-11.823 7.888-18.933 7.888s-13.926-2.84-18.933-7.888l-194.4-194.667 37.6-37.6 175.733 175.733 114.4-114.667c5.007-5.048 11.823-7.888 18.933-7.888s13.926 2.84 18.933 7.888l221.067 221.333v-95.733h53.333v186.667z" />
<glyph unicode="&#x66;" glyph-name="apc" d="M832 773.334c-33.804-0.068-63.893-21.439-75.093-53.333h-88.693c-11.934 47.083-54.308 80.057-102.88 80.057s-90.946-32.973-102.88-80.057h-114.24c-12.897 50.328-60.24 83.995-112.012 79.656s-92.851-45.417-97.19-97.19c-4.339-51.773 29.328-99.116 79.656-112.012v-114.24c-47.083-11.934-80.057-54.308-80.057-102.88s32.973-90.946 80.057-102.88v-88.693c-36.735-12.988-58.77-50.551-52.181-88.953s39.885-66.472 78.848-66.472c38.963 0 72.259 28.070 78.848 66.472s-15.447 75.965-52.181 88.953v88.693c16.599 4.303 31.907 12.566 44.613 24.080l89.707-44.853c-0.527-3.203-0.857-6.436-0.987-9.68-0.151-38.208 26.635-71.234 64.052-78.973s75.106 11.953 90.123 47.086c15.018 35.134 3.207 75.983-28.243 97.681s-73.832 18.238-101.345-8.275l-83.947 41.973c3.848 10.874 5.884 22.306 6.027 33.84-0.144 48.504-33.027 90.791-80 102.88v114.24c37.33 9.732 66.482 38.884 76.213 76.213h114.24c6.649-27.144 23.845-50.516 47.78-64.942s52.634-18.712 79.74-11.912l48.293-84.533c-25.942-29.956-26.472-74.263-1.254-104.831s68.818-38.469 103.158-18.692c34.341 19.776 49.391 61.452 35.609 98.606s-52.369 58.934-91.3 51.531l-47.44 83.040c15.177 13.865 26.006 31.836 31.173 51.733h88.693c13.627-38.256 53.792-60.194 93.345-50.986s65.898 46.631 61.228 86.971c-4.67 40.341-38.869 70.754-79.479 70.682zM298.667 373.334c0-29.455-23.878-53.333-53.333-53.333s-53.333 23.878-53.333 53.333c0 29.455 23.878 53.333 53.333 53.333 29.443-0.029 53.304-23.89 53.333-53.333v0zM245.333 640c-29.455 0-53.333 23.878-53.333 53.333s23.878 53.333 53.333 53.333c29.455 0 53.333-23.878 53.333-53.333-0.029-29.443-23.89-53.304-53.333-53.333v0zM512 693.334c0 29.455 23.878 53.333 53.333 53.333s53.333-23.878 53.333-53.333c0-29.455-23.878-53.333-53.333-53.333-29.443 0.029-53.304 23.89-53.333 53.333v0z" />
<glyph unicode="&#x67;" glyph-name="area" d="M485.333 293.334c0-44.183-35.817-80-80-80h-2.667c-13.69 67.066-75.939 112.871-144.041 105.991s-119.932-64.21-119.932-132.658c0-68.449 51.83-125.778 119.932-132.658s130.351 38.926 144.041 105.991h2.667c35.362 0 69.276 14.048 94.281 39.052s39.052 58.919 39.052 94.281h-53.333zM272 106.667c-44.183 0-80 35.817-80 80s35.817 80 80 80c44.183 0 80-35.817 80-80s-35.817-80-80-80v0zM485.333 506.667h53.333v-160h-53.333v160zM752 800c-63.369 0.013-117.993-44.578-130.667-106.667h-2.667c-73.638 0-133.333-59.695-133.333-133.333h53.333c0 44.183 35.817 80 80 80h2.667c14.033-68.746 78.942-114.854 148.475-105.468s119.895 71.053 115.199 141.059c-4.696 70.006-62.844 124.395-133.007 124.409zM752 586.667c-44.183 0-80 35.817-80 80s35.817 80 80 80c44.183 0 80-35.817 80-80s-35.817-80-80-80v0z" />
<glyph unicode="&#x68;" glyph-name="arrow_direction" d="M512 832l160-160-37.707-37.707-95.627 95.627-0.029-199.94c46.021-11.831 80.029-53.601 80.029-103.314 0-58.91-47.756-106.667-106.667-106.667s-106.667 47.756-106.667 106.667c0 49.713 34.008 91.482 80.029 103.314l-0.029 199.94-95.627-95.627-37.707 37.707 160 160zM512 490.667c35.346 0 64-28.654 64-64s-28.654-64-64-64c-35.346 0-64 28.654-64 64s28.654 64 64 64z" />
<glyph unicode="&#xe908;" d="M485.333 341.334v-217.92l-95.627 95.627-37.707-37.707 160-160 160 160-37.707 37.707-95.627-95.627v217.92z" />
<glyph unicode="&#xe909;" d="M512 832l160-160-37.707-37.707-95.627 95.627-0.029-199.94c46.021-11.831 80.029-53.601 80.029-103.314 0-58.91-47.756-106.667-106.667-106.667s-106.667 47.756-106.667 106.667c0 49.713 34.008 91.482 80.029 103.314l-0.029 199.94-95.627-95.627-37.707 37.707 160 160zM512 490.667c-35.346 0-64-28.654-64-64s28.654-64 64-64c35.346 0 64 28.654 64 64s-28.654 64-64 64z" />
<glyph unicode="&#xe90a;" glyph-name="arrow_down" d="M549.333 704v-431.253l95.627 95.627 37.707-37.707-160-160-160 160 37.707 37.707 95.627-95.627v431.253z" />
<glyph unicode="&#xe90b;" glyph-name="arrow_left" d="M789.333 410.667h-431.253l95.627-95.627-37.707-37.707-160 160 160 160 37.707-37.707-95.627-95.627h431.253z" />
<glyph unicode="&#xe90c;" glyph-name="arrow_minimize" d="M352 426.667l266.667 266.667 37.333-37.333-229.333-229.333 229.333-229.333-37.333-37.333z" />
<glyph unicode="&#xe90d;" glyph-name="arrow_right" d="M256 410.667h431.253l-95.627-95.627 37.707-37.707 160 160-160 160-37.707-37.707 95.627-95.627h-431.253z" />
<glyph unicode="&#xe90e;" glyph-name="arrow_up" d="M549.333 170.667v431.253l95.627-95.627 37.707 37.707-160 160-160-160 37.707-37.707 95.627 95.627v-431.253z" />
<glyph unicode="&#xe90f;" glyph-name="attach" d="M538.667 293.334v-208h208v-53.333h-469.333v53.333h208v208h53.333zM896 85.334v-53.333h-85.333v53.333h85.333zM213.333 85.334v-53.333h-85.333v53.333h85.333zM725.333 768h-426.667c-29.455 0-53.333-23.878-53.333-53.333v-373.333c0-29.455 23.878-53.333 53.333-53.333h426.667c29.455 0 53.333 23.878 53.333 53.333v373.333c0 29.455-23.878 53.333-53.333 53.333zM725.333 714.667v-160h-426.667v160h426.667zM725.333 501.334v-160h-426.667v160h426.667zM378.667 661.334c14.728 0 26.667-11.939 26.667-26.667s-11.939-26.667-26.667-26.667c-14.728 0-26.667 11.939-26.667 26.667s11.939 26.667 26.667 26.667z" />
<glyph unicode="&#xe910;" glyph-name="autolayout" d="M645.333 106.667c29.455 0 53.333 23.878 53.333 53.333s-23.878 53.333-53.333 53.333c-29.455 0-53.333-23.878-53.333-53.333s23.878-53.333 53.333-53.333zM645.333 640c29.455 0 53.333 23.878 53.333 53.333s-23.878 53.333-53.333 53.333c-29.455 0-53.333-23.878-53.333-53.333s23.878-53.333 53.333-53.333zM192 373.334c29.455 0 53.333 23.878 53.333 53.333s-23.878 53.333-53.333 53.333c-29.455 0-53.333-23.878-53.333-53.333s23.878-53.333 53.333-53.333zM832 533.334c-48.504-0.144-90.791-33.027-102.88-80h-114.24c-7.646 30.445-28.421 55.921-56.706 69.535s-61.156 13.961-89.721 0.945l-84.72 105.867c13.936 18.301 21.52 40.65 21.6 63.653 0 58.91-47.756 106.667-106.667 106.667s-106.667-47.756-106.667-106.667c0-58.91 47.756-106.667 106.667-106.667 15.037 0.035 29.892 3.281 43.573 9.52l84.693-105.867c-28.783-37.555-28.783-89.752 0-127.307l-84.693-105.867c-13.681 6.239-28.537 9.485-43.573 9.52-58.91 0-106.667-47.756-106.667-106.667s47.756-106.667 106.667-106.667c58.91 0 106.667 47.756 106.667 106.667-0.078 23.003-7.662 45.353-21.6 63.653l84.693 105.867c28.568-13.026 61.446-12.685 89.738 0.931s49.071 39.097 56.715 69.549h114.24c13.952-53.536 66.579-87.468 121.101-78.083s92.775 58.96 88.024 114.080c-4.75 55.12-50.921 97.419-106.245 97.337zM245.333 693.334c0 29.455 23.878 53.333 53.333 53.333s53.333-23.878 53.333-53.333c0-29.455-23.878-53.333-53.333-53.333-29.443 0.029-53.304 23.89-53.333 53.333v0zM298.667 106.667c-29.455 0-53.333 23.878-53.333 53.333s23.878 53.333 53.333 53.333c29.455 0 53.333-23.878 53.333-53.333-0.029-29.443-23.89-53.304-53.333-53.333zM512 373.334c-29.455 0-53.333 23.878-53.333 53.333s23.878 53.333 53.333 53.333c29.455 0 53.333-23.878 53.333-53.333-0.029-29.443-23.89-53.304-53.333-53.333v0zM832 373.334c-29.455 0-53.333 23.878-53.333 53.333s23.878 53.333 53.333 53.333c29.455 0 53.333-23.878 53.333-53.333-0.029-29.443-23.89-53.304-53.333-53.333v0z" />
<glyph unicode="&#xe911;" glyph-name="axes_xy" d="M217.6 597.334l133.333-133.333-37.707-37.707-67.936 67.915 0.043-344.875h313.92l-68.96 68.96 37.707 37.707 133.333-133.333-133.333-133.333-37.707 37.707 68.96 68.96h-313.92c-27.603 0.028-50.3 21.001-53.053 47.883l-0.28 5.451-0.043 345.941-1.024-0.021-68.96-68.96-37.707 37.707 133.333 133.333zM771.093 229.803l40.619-70.485h0.896l41.216 70.485h48.981l-64.213-101.547 67.797-106.923h-52.565l-45.099 76.757h-0.896l-43.904-76.757h-48.981l66.901 107.819-63.616 100.651h52.864zM176.277 848.47l44.8-83.029h0.597l43.008 83.029h49.28l-71.381-126.635v-81.835h-45.696v81.536l-71.381 126.933h50.773z" />
<glyph unicode="&#xe912;" glyph-name="axes_xyz" d="M217.6 597.334l133.333-133.333-37.707-37.707-67.936 67.915v-301.824l223.669 223.616h-95.627v53.333h186.667v-186.667h-53.333v95.627l-229.035-228.96h281.621l-68.96 68.96 37.707 37.707 133.333-133.333-133.333-133.333-37.707 37.707 68.96 68.96h-313.92c-27.603 0.028-50.3 21.001-53.053 47.883l-0.28 5.451-0.043 345.941-1.024-0.021-68.96-68.96-37.707 37.707 133.333 133.333zM771.093 229.803l40.619-70.485h0.896l41.216 70.485h48.981l-64.213-101.547 67.797-106.923h-52.565l-45.099 76.757h-0.896l-43.904-76.757h-48.981l66.901 107.819-63.616 100.651h52.864zM617.877 677.803l44.8-83.029h0.597l43.008 83.029h49.28l-71.381-126.635v-81.835h-45.696v81.536l-71.381 126.933h50.773zM296.341 848.47v-40.32l-103.040-127.829h105.429v-40.32h-157.995v40.32l102.741 127.829h-97.664v40.32h150.528z" />
<glyph unicode="&#xe913;" glyph-name="axes_xz" d="M217.6 597.334l133.333-133.333-37.707-37.707-67.936 67.915 0.043-344.875h313.92l-68.96 68.96 37.707 37.707 133.333-133.333-133.333-133.333-37.707 37.707 68.96 68.96h-313.92c-27.603 0.028-50.3 21.001-53.053 47.883l-0.28 5.451-0.043 345.941-1.024-0.021-68.96-68.96-37.707 37.707 133.333 133.333zM771.093 229.803l40.619-70.485h0.896l41.216 70.485h48.981l-64.213-101.547 67.797-106.923h-52.565l-45.099 76.757h-0.896l-43.904-76.757h-48.981l66.901 107.819-63.616 100.651h52.864zM296.341 848.47v-40.32l-103.040-127.829h105.429v-40.32h-157.995v40.32l102.741 127.829h-97.664v40.32h150.528z" />
<glyph unicode="&#xe914;" glyph-name="axes_yz" d="M217.6 597.334l133.333-133.333-37.707-37.707-67.936 67.915 0.043-344.875h313.92l-68.96 68.96 37.707 37.707 133.333-133.333-133.333-133.333-37.707 37.707 68.96 68.96h-313.92c-27.603 0.028-50.3 21.001-53.053 47.883l-0.28 5.451-0.043 345.941-1.024-0.021-68.96-68.96-37.707 37.707 133.333 133.333zM767.211 229.803l44.8-83.029h0.597l43.008 83.029h49.28l-71.381-126.635v-81.835h-45.696v81.536l-71.381 126.933h50.773zM296.341 848.47v-40.32l-103.040-127.829h105.429v-40.32h-157.995v40.32l102.741 127.829h-97.664v40.32h150.528z" />
<glyph unicode="&#xe915;" d="M805.333 560h-26.667v26.667c0 29.455-23.878 53.333-53.333 53.333h-48v-53.333h48v-80h80v-160h-80v-80h-48v-53.333h48c29.455 0 53.333 23.878 53.333 53.333v26.667h26.667c29.455 0 53.333 23.878 53.333 53.333v160c0 29.455-23.878 53.333-53.333 53.333zM320 266.667h-74.667v320h74.667v53.333h-74.667c-29.455 0-53.333-23.878-53.333-53.333v-320c0-29.455 23.878-53.333 53.333-53.333h74.667v53.333z" />
<glyph unicode="&#xe916;" d="M609.987 579.661l-115.66-115.66-115.66 115.66-37.333-37.333 115.66-115.66-115.66-115.66 37.333-37.333 115.66 115.66 115.66-115.66 37.333 37.333-115.66 115.66 115.66 115.66z" />
<glyph unicode="&#xe917;" d="M805.333 560h-26.667v26.667c0 29.455-23.878 53.333-53.333 53.333h-106.667v-53.333h106.667v-80h80v-160h-80v-80h-133.333v-53.333h133.333c29.455 0 53.333 23.878 53.333 53.333v26.667h26.667c29.455 0 53.333 23.878 53.333 53.333v160c0 29.455-23.878 53.333-53.333 53.333zM378.667 266.667h-133.333v320h160v53.333h-160c-29.455 0-53.333-23.878-53.333-53.333v-320c0-29.455 23.878-53.333 53.333-53.333h133.333v53.333z" />
<glyph unicode="&#xe918;" d="M480.267 224.534l-43.2 30.933 103.2 144.533h-205.067l182.667 229.867 41.6-33.067-113.867-143.467h198.133z" />
<glyph unicode="&#xe919;" glyph-name="battery_empty" d="M725.333 213.334h-480c-29.443 0.029-53.304 23.89-53.333 53.333v320c0.029 29.443 23.89 53.304 53.333 53.333h480c29.443-0.029 53.304-23.89 53.333-53.333v-26.667h26.667c29.443-0.029 53.304-23.89 53.333-53.333v-160c-0.044-29.437-23.896-53.289-53.333-53.333h-26.667v-26.667c-0.044-29.437-23.896-53.289-53.333-53.333v0zM245.333 586.667v-320h480v80h80v160h-80v80h-480z" />
<glyph unicode="&#xe91a;" d="M725.333 213.334h-480c-29.455 0-53.333 23.878-53.333 53.333v320c0 29.455 23.878 53.333 53.333 53.333h480c29.455 0 53.333-23.878 53.333-53.333v-26.667h26.667c29.455 0 53.333-23.878 53.333-53.333v-160c0-29.455-23.878-53.333-53.333-53.333h-26.667v-26.667c0-29.455-23.878-53.333-53.333-53.333zM245.333 586.667v-320h480v80h80v160h-80v80h-480z" />
<glyph unicode="&#xe91b;" d="M672 533.334v-213.333h-373.333v213.333z" />
<glyph unicode="&#xe91c;" d="M725.333 213.334h-480c-29.455 0-53.333 23.878-53.333 53.333v320c0 29.455 23.878 53.333 53.333 53.333h480c29.455 0 53.333-23.878 53.333-53.333v-26.667h26.667c29.455 0 53.333-23.878 53.333-53.333v-160c0-29.455-23.878-53.333-53.333-53.333h-26.667v-26.667c0-29.455-23.878-53.333-53.333-53.333zM245.333 586.667v-320h480v80h80v160h-80v80h-480z" />
<glyph unicode="&#xe91d;" d="M512 533.334v-213.333h-213.333v213.333z" />
<glyph unicode="&#xe91e;" d="M725.333 213.334h-480c-29.443 0.029-53.304 23.89-53.333 53.333v320c0.029 29.443 23.89 53.304 53.333 53.333h480c29.443-0.029 53.304-23.89 53.333-53.333v-26.667h26.667c29.443-0.029 53.304-23.89 53.333-53.333v-160c-0.044-29.437-23.896-53.289-53.333-53.333h-26.667v-26.667c-0.044-29.437-23.896-53.289-53.333-53.333v0zM245.333 586.667v-320h480v80h80v160h-80v80h-480z" />
<glyph unicode="&#xe91f;" d="M405.333 533.334v-213.333h-106.667v213.333z" />
<glyph unicode="&#xe920;" glyph-name="buffer_shelf" d="M805.333 816c29.455 0 53.333-23.878 53.333-53.333v0-586.667c0-1.812-0.090-3.603-0.267-5.368l0.267 0.035v-128h-53.333v80h-586.667v-80h-53.333v128h0.256l-0.256 5.333v208h53.333v-48h122.667v-53.333h-122.667v-106.667h586.667v106.667h-165.333v53.333h165.333v266.667h-165.333v53.333h165.333v106.667h-586.667v-106.667h122.667v-53.333h-122.667v-48h-53.333v208c0 27.614 20.987 50.327 47.88 53.058l5.453 0.275zM469.333 629.334l160-160-160-160-37.6 37.6 95.467 95.733h-356.533v53.333h356.533l-95.467 95.733 37.6 37.6z" />
<glyph unicode="&#xe921;" glyph-name="bulb" d="M378.667 213.334h266.667v-53.333h-266.667v53.333zM432 106.667h160v-53.333h-160v53.333zM512 800c-147.276 0-266.667-119.391-266.667-266.667-3.658-78.62 30.666-154.212 92.267-203.2 26.667-24.8 41.067-38.933 41.067-63.467h53.333c0 49.067-29.6 76.533-58.4 102.933-50.609 38.755-78.684 100.101-74.933 163.733 0 117.821 95.513 213.333 213.333 213.333s213.333-95.513 213.333-213.333c3.688-63.681-24.491-125.036-75.2-163.733-28.533-26.667-58.133-53.333-58.133-102.933h53.333c0 24.533 14.133 38.667 41.067 63.733 61.558 48.904 95.882 124.397 92.267 202.933 0 70.724-28.095 138.552-78.105 188.562s-117.837 78.105-188.562 78.105z" />
<glyph unicode="&#xe922;" glyph-name="careft_left" d="M592 240l-213.333 186.667 213.333 186.667z" />
<glyph unicode="&#xe923;" glyph-name="caret_down" d="M698.667 533.334l-186.667-213.333-186.667 213.333z" />
<glyph unicode="&#xe924;" glyph-name="caret_right" d="M432 613.334l213.333-186.667-213.333-186.667z" />
<glyph unicode="&#xe925;" glyph-name="caret_sort" d="M325.333 533.334l186.667 213.333 186.667-213.333h-373.333zM698.667 320l-186.667-213.333-186.667 213.333h373.333z" />
<glyph unicode="&#xe926;" glyph-name="caret_sort_down" d="M698.667 320l-186.667-213.333-186.667 213.333z" />
<glyph unicode="&#xe927;" glyph-name="caret_sort_up" d="M325.333 533.334l186.667 213.333 186.667-213.333z" />
<glyph unicode="&#xe928;" glyph-name="caret_up" d="M325.333 320l186.667 213.333 186.667-213.333z" />
<glyph unicode="&#xe929;" glyph-name="change_direction" d="M389.6 144.267l-95.467 95.733h537.867v53.333h-537.867l95.467 95.733-37.6 37.6-160-160 160-160 37.6 37.6zM832 586.667l-160 160-37.6-37.6 95.467-95.733h-537.867v-53.333h537.867l-95.467-95.733 37.6-37.6 160 160z" />
<glyph unicode="&#xe92a;" glyph-name="check" d="M405.333 288l-186.667 186.667-37.333-37.333 224-224 378.667 378.667-37.333 37.333z" />
<glyph unicode="&#xe92b;" glyph-name="chevron-down" d="M512 224l-266.667 266.667 37.333 37.333 229.333-229.333 229.333 229.333 37.333-37.333z" />
<glyph unicode="&#xe92c;" glyph-name="chevron-right" d="M672 426.667l-266.667-266.667-37.333 37.333 229.333 229.333-229.333 229.333 37.333 37.333z" />
<glyph unicode="&#xe92d;" glyph-name="chevron-right-up" d="M512 586.667l266.667-266.667-37.333-37.333-229.333 229.333-229.333-229.333-37.333 37.333z" />
<glyph unicode="&#xe92e;" glyph-name="configure" d="M885.333 666.667h-136c-12.618 62.142-67.256 106.8-130.667 106.8s-118.048-44.658-130.667-106.8h-349.333v-53.333h349.333c12.618-62.142 67.256-106.8 130.667-106.8s118.048 44.658 130.667 106.8h136v53.333zM618.667 560c-44.183 0-80 35.817-80 80s35.817 80 80 80c44.183 0 80-35.817 80-80s-35.817-80-80-80v0zM138.667 186.667h136c12.618-62.142 67.256-106.8 130.667-106.8s118.048 44.658 130.667 106.8h349.333v53.333h-349.333c-12.618 62.142-67.256 106.8-130.667 106.8s-118.048-44.658-130.667-106.8h-136v-53.333zM325.333 213.334c0 44.183 35.817 80 80 80s80-35.817 80-80c0-44.183-35.817-80-80-80s-80 35.817-80 80z" />
<glyph unicode="&#xe92f;" glyph-name="connection" d="M485.333 533.334h53.333v-480h-53.333v480zM387.467 367.467c-39.637 35.414-62.297 86.047-62.297 139.2s22.66 103.786 62.297 139.2l35.733-39.733c-28.338-25.297-44.541-61.48-44.541-99.467s16.203-74.17 44.541-99.467l-35.733-39.733zM636.533 367.467l-35.733 39.733c28.338 25.297 44.541 61.48 44.541 99.467s-16.203 74.17-44.541 99.467l35.733 39.733c39.637-35.414 62.297-86.047 62.297-139.2s-22.66-103.786-62.297-139.2zM309.333 272c-73.863 55.397-117.333 142.338-117.333 234.667s43.47 179.269 117.333 234.667l32-42.667c-60.433-45.325-96-116.458-96-192s35.567-146.675 96-192l-32-42.667zM714.667 272l-32 42.667c60.433 45.325 96 116.458 96 192s-35.567 146.675-96 192l32 42.667c73.863-55.397 117.333-142.338 117.333-234.667s-43.47-179.269-117.333-234.667z" />
<glyph unicode="&#xe930;" glyph-name="container" d="M832 746.667h-640c-29.455 0-53.333-23.878-53.333-53.333v-106.667c0-29.455 23.878-53.333 53.333-53.333v-426.667c0-29.455 23.878-53.333 53.333-53.333h533.333c29.455 0 53.333 23.878 53.333 53.333v426.667c29.455 0 53.333 23.878 53.333 53.333v106.667c0 29.455-23.878 53.333-53.333 53.333zM778.667 106.667h-533.333v426.667h533.333v-426.667zM832 586.667h-640v106.667h640v-106.667z" />
<glyph unicode="&#xe931;" glyph-name="copy" d="M816.933 461.36l-161.547 163.227c-9.721 9.822-22.954 15.369-36.773 15.413h-213.28c-29.443-0.029-53.304-23.89-53.333-53.333v-506.667c0.029-29.443 23.89-53.304 53.333-53.333h373.333c29.443 0.029 53.304 23.89 53.333 53.333v344.613c-0.037 13.745-5.444 26.932-15.067 36.747zM618.667 585.867l157.973-159.2h-157.973v159.2zM405.333 80v506.667h160v-160c0.029-29.443 23.89-53.304 53.333-53.333h160l0.027-293.333h-373.36zM245.333 373.334h-53.333v373.333c0.029 29.443 23.89 53.304 53.333 53.333h373.333v-53.333h-373.333v-373.333z" />
<glyph unicode="&#xe932;" glyph-name="cross" d="M725.333 602.667l-37.333 37.333-176-176-176 176-37.333-37.333 176-176-176-176 37.333-37.333 176 176 176-176 37.333 37.333-176 176z" />
<glyph unicode="&#xe933;" glyph-name="cut" d="M792 329.867l-166.933 96.8 166.933 96.8c47.446 26.712 73.883 79.589 66.783 133.572s-46.311 98.226-99.050 111.761c-11.231 2.948-22.789 4.471-34.4 4.534-47.883 0.165-92.179-25.358-116.049-66.868s-23.648-92.632 0.582-133.933c14.581-25.108 36.958-44.77 63.733-56l-101.867-58.933-379.733 219.733-26.667-46.4 353.067-204.267-353.067-204.8 26.667-46.4 379.733 220.267 101.867-58.933c-26.775-11.23-49.153-30.892-63.733-56-24.229-41.301-24.452-92.423-0.582-133.933s68.165-67.033 116.049-66.868c11.611 0.063 23.169 1.586 34.4 4.534 52.739 13.535 91.95 57.778 99.050 111.761s-19.337 106.86-66.783 133.572v0zM656 599.2c-10.791 18.433-13.762 40.416-8.252 61.053s19.043 38.213 37.586 48.814c18.418 10.599 40.296 13.434 60.807 7.881s37.971-19.038 48.526-37.481c10.706-18.409 13.629-40.328 8.123-60.9s-18.987-38.1-37.457-48.7c-18.386-10.621-40.239-13.497-60.747-7.995s-37.987 18.931-48.587 37.328zM794.667 172.534c-10.556-18.443-28.015-31.928-48.526-37.481s-42.389-2.718-60.807 7.881c-18.543 10.601-32.076 28.178-37.586 48.814s-2.538 42.619 8.252 61.053c10.6 18.397 28.079 31.826 48.587 37.328s42.361 2.626 60.747-7.995c37.678-22.042 50.731-70.219 29.333-108.267v-1.333z" />
<glyph unicode="&#xe934;" glyph-name="dashboard" d="M725.333 293.334h53.333v-133.333h-53.333v133.333zM618.667 426.667h53.333v-266.667h-53.333v266.667zM378.667 160c-73.601 0.088-133.245 59.732-133.333 133.333h53.333c0-44.183 35.817-80 80-80s80 35.817 80 80c0 44.183-35.817 80-80 80v53.333c73.638 0 133.333-59.695 133.333-133.333s-59.695-133.333-133.333-133.333zM832 800h-640c-29.443-0.029-53.304-23.89-53.333-53.333v-640c0.029-29.443 23.89-53.304 53.333-53.333h640c29.437 0.044 53.289 23.896 53.333 53.333v640c-0.029 29.443-23.89 53.304-53.333 53.333zM832 560h-373.333v186.667h373.333v-186.667zM405.333 746.667v-186.667h-213.333v186.667h213.333zM192 106.667v400h640l0.053-400h-640.053z" />
<glyph unicode="&#xe935;" glyph-name="delete" d="M405.333 533.334h53.333v-320h-53.333v320zM565.333 533.334h53.333v-320h-53.333v320zM192 693.334v-53.333h53.333v-533.333c0-29.455 23.878-53.333 53.333-53.333h426.667c29.455 0 53.333 23.878 53.333 53.333v533.333h53.333v53.333h-640zM298.667 106.667v533.333h426.667v-533.333h-426.667zM405.333 800h213.333v-53.333h-213.333v53.333z" />
<glyph unicode="&#xe936;" glyph-name="delete_row" d="M272 453.334h480v-53.333h-480z" />
<glyph unicode="&#xe937;" glyph-name="dependency" d="M832 533.334c29.455 0 53.333 23.878 53.333 53.333v160c0 29.455-23.878 53.333-53.333 53.333h-640c-29.455 0-53.333-23.878-53.333-53.333v-160c0-29.455 23.878-53.333 53.333-53.333h293.333v-106.667h-160c-29.455 0-53.333-23.878-53.333-53.333v-106.667h-80c-29.455 0-53.333-23.878-53.333-53.333v-106.667c0-29.455 23.878-53.333 53.333-53.333h213.333c29.455 0 53.333 23.878 53.333 53.333v106.667c0 29.455-23.878 53.333-53.333 53.333h-80v106.667h373.333v-106.667h-80c-29.455 0-53.333-23.878-53.333-53.333v-106.667c0-29.455 23.878-53.333 53.333-53.333h213.333c29.455 0 53.333 23.878 53.333 53.333v106.667c0 29.455-23.878 53.333-53.333 53.333h-80v106.667c0 29.455-23.878 53.333-53.333 53.333h-160v106.667h293.333zM405.333 106.667h-213.333v106.667h213.333v-106.667zM832 106.667h-213.333v106.667h213.333v-106.667zM192 746.667h640v-160h-640v160z" />
<glyph unicode="&#xe938;" glyph-name="disable" d="M138.667 426.667c0-206.186 167.147-373.333 373.333-373.333s373.333 167.147 373.333 373.333c0 206.186-167.147 373.333-373.333 373.333s-373.333-167.147-373.333-373.333zM756 220l-450.667 450.667c127.151 105.838 314.014 97.309 430.995-19.672s125.51-303.844 19.672-430.995zM305.067 182.4c-134.457 114.182-151.156 315.639-37.333 450.4l450.4-450.4c-119.253-100.766-293.814-100.766-413.067 0v0z" />
<glyph unicode="&#xe939;" glyph-name="document_open" d="M770.667 605.334l-186.667 186.667c-4.753 5.267-11.574 8.19-18.667 8h-266.667c-29.455 0-53.333-23.878-53.333-53.333v-640c0-29.455 23.878-53.333 53.333-53.333h426.667c29.455 0 53.333 23.878 53.333 53.333v480c0.19 7.093-2.733 13.913-8 18.667v0zM565.333 736l149.333-149.333h-149.333v149.333zM725.333 106.667h-426.667v640h213.333v-160c0-29.455 23.878-53.333 53.333-53.333h160v-426.667zM645.333 346.667h-106.667v106.667h-53.333v-106.667h-106.667v-53.333h106.667v-106.667h53.333v106.667h106.667v53.333z" />
<glyph unicode="&#xe93a;" glyph-name="download" d="M778.667 453.334l-37.6 37.6-202.4-202.133v511.2h-53.333v-511.2l-202.4 202.133-37.6-37.6 266.667-266.667 266.667 266.667zM778.667 213.334v-106.667h-533.333v106.667h-53.333v-106.667c0-29.455 23.878-53.333 53.333-53.333h533.333c29.455 0 53.333 23.878 53.333 53.333v106.667h-53.333z" />
<glyph unicode="&#xe93b;" glyph-name="driveway" d="M778.667 693.334h-537.867l95.467 95.733-37.6 37.6-160-160 160-160 37.6 37.6-95.467 95.733h537.867v-186.667h53.333v186.667c0 29.455-23.878 53.333-53.333 53.333zM687.733 309.067l95.467-95.733h-537.867v186.667h-53.333v-186.667c0-29.455 23.878-53.333 53.333-53.333h537.867l-95.467-95.733 37.6-37.6 160 160-160 160-37.6-37.6z" />
<glyph unicode="&#xe93c;" glyph-name="edit" d="M138.667 133.334h746.667v-53.333h-746.667v53.333zM762.933 613.334c10.015 10.004 15.642 23.578 15.642 37.733s-5.627 27.73-15.642 37.733l-95.467 95.467c-10.004 10.015-23.578 15.642-37.733 15.642s-27.73-5.627-37.733-15.642l-400-400v-170.933h170.933l400 400zM629.6 746.667l95.733-95.733-80-80-95.733 95.733 80 80zM245.333 266.667v95.733l266.667 266.667 95.733-95.733-266.667-266.667h-95.733z" />
<glyph unicode="&#xe93d;" glyph-name="emergency_stop" d="M512 800c-206.186 0-373.333-167.147-373.333-373.333s167.147-373.333 373.333-373.333c206.186 0 373.333 167.147 373.333 373.333 0 99.014-39.333 193.973-109.347 263.987s-164.972 109.347-263.987 109.347zM672 320c0-29.455-23.878-53.333-53.333-53.333h-213.333c-29.455 0-53.333 23.878-53.333 53.333v213.333c0 29.455 23.878 53.333 53.333 53.333h213.333c29.455 0 53.333-23.878 53.333-53.333v-213.333z" />
<glyph unicode="&#xe93e;" glyph-name="enter" d="M778.667 53.334h-320c-29.455 0-53.333 23.878-53.333 53.333v80h53.333v-80h320v640h-320v-80h-53.333v80c0 29.455 23.878 53.333 53.333 53.333h320c29.455 0 53.333-23.878 53.333-53.333v-640c0-29.455-23.878-53.333-53.333-53.333zM474.4 304.267l95.467 95.733h-377.867v53.333h377.867l-95.467 95.733 37.6 37.6 160-160-160-160-37.6 37.6z" />
<glyph unicode="&#xe93f;" glyph-name="error" d="M512 810.667c-209.067 0-384-174.933-384-384s174.933-384 384-384c209.067 0 384 170.667 384 384s-170.667 384-384 384zM661.333 234.667l-149.333 149.333-149.333-149.333-42.667 42.667 149.333 149.333-149.333 149.333 42.667 42.667 149.333-149.333 149.333 149.333 42.667-42.667-149.333-149.333 149.333-149.333-42.667-42.667z" />
<glyph unicode="&#xe940;" glyph-name="event" d="M645.333 53.334c-117.821 0-213.333 95.513-213.333 213.333s95.513 213.333 213.333 213.333c117.821 0 213.333-95.513 213.333-213.333s-95.513-213.333-213.333-213.333v0zM645.333 426.667c-88.366 0-160-71.634-160-160s71.634-160 160-160c88.366 0 160 71.634 160 160s-71.634 160-160 160zM687.733 186.667l-69.067 69.067v117.6h53.333v-95.733l53.333-53.333-37.6-37.6zM832 693.334c0 29.455-23.878 53.333-53.333 53.333h-106.667v53.333h-53.333v-53.333h-213.333v53.333h-53.333v-53.333h-106.667c-29.455 0-53.333-23.878-53.333-53.333v-533.333c0-29.455 23.878-53.333 53.333-53.333h106.667v53.333h-106.667v533.333h106.667v-53.333h53.333v53.333h213.333v-53.333h53.333v53.333h106.667v-160h53.333v160z" />
<glyph unicode="&#xe941;" glyph-name="exit" d="M245.333 53.334h320c29.443 0.029 53.304 23.89 53.333 53.333v80h-53.333v-80h-320v640h320v-80h53.333v80c-0.029 29.443-23.89 53.304-53.333 53.333h-320c-29.443-0.029-53.304-23.89-53.333-53.333v-640c0.029-29.443 23.89-53.304 53.333-53.333zM634.293 304.374l95.627 95.627h-377.92v53.333h377.92l-95.627 95.627 37.707 37.707 160-160-160-160-37.707 37.707z" />
<glyph unicode="&#xe942;" glyph-name="export" d="M432 293.334h351.2l-68.8-69.067 37.6-37.6 133.333 133.333-133.333 133.333-37.6-37.6 68.8-69.067h-351.2v-53.333zM672 480v106.667c0.041 7.088-2.742 13.901-7.734 18.933l-186.667 186.667c-5.033 4.992-11.845 7.774-18.933 7.734h-266.667c-29.455 0-53.333-23.879-53.333-53.334v-640c0-29.455 23.878-53.333 53.333-53.333h426.667c29.455 0 53.334 23.878 53.334 53.333v53.333h-53.334v-53.333h-426.667v640h213.333v-160c0-29.455 23.878-53.333 53.333-53.333h160v-53.333h53.334zM458.667 586.667v149.067l149.067-149.067h-149.067z" />
<glyph unicode="&#xe943;" glyph-name="filter" d="M565.333 106.667h-106.667c-29.455 0-53.333 23.878-53.333 53.333v202.4l-197.6 197.6c-10.016 9.956-15.674 23.478-15.733 37.6v95.733c0 29.455 23.878 53.333 53.333 53.333h533.333c29.455 0 53.333-23.878 53.333-53.333v-95.733c-0.060-14.122-5.718-27.644-15.733-37.6l-197.6-197.6v-202.4c0-29.455-23.878-53.333-53.333-53.333zM245.333 693.334v-95.733l213.333-213.333v-224.267h106.667v224.267l213.333 213.333v95.733h-533.333z" />
<glyph unicode="&#xe944;" glyph-name="fork" d="M778.667 53.334h-533.333c-29.455 0-53.333 23.878-53.333 53.333v320c0 29.455 23.878 53.333 53.333 53.333h80v-53.333h-80v-320h533.333v320h-80v53.333h80c29.455 0 53.333-23.878 53.333-53.333v-320c0-29.455-23.878-53.333-53.333-53.333zM432 320h160v-53.333h-160v53.333zM634.4 602.4l-95.733 95.467v-271.2h-53.333v271.2l-95.733-95.467-37.6 37.6 160 160 160-160-37.6-37.6z" />
<glyph unicode="&#xe945;" glyph-name="fork_lift_event" d="M420.742 759.040c12.678 0 24.16-7.484 29.277-19.084l185.077-419.403c51.11-7.902 90.237-52.086 90.237-105.409 0-58.91-47.756-106.667-106.667-106.667-34.898 0-65.882 16.759-85.343 42.669h-255.981c-19.46-25.909-50.444-42.669-85.343-42.669-58.91 0-106.667 47.756-106.667 106.667 0 34.898 16.759 65.882 42.669 85.343l-0.002 426.553c0 17.673 14.327 32 32 32h260.742zM192 268.478c-29.455 0-53.333-23.878-53.333-53.333s23.878-53.333 53.333-53.333c29.455 0 53.333 23.878 53.333 53.333s-23.878 53.333-53.333 53.333zM618.667 268.478c-29.455 0-53.333-23.878-53.333-53.333s23.878-53.333 53.333-53.333c29.455 0 53.333 23.878 53.333 53.333s-23.878 53.333-53.333 53.333zM928 256c0-29.455-23.878-53.333-53.333-53.333v0l-85.664-0.039c0.219 3.541 0.33 7.11 0.33 10.706 0 14.729-1.866 29.022-5.374 42.656zM543.232 396.502h-361.899l-0.001-75.217c3.509 0.348 7.068 0.527 10.668 0.527 58.91 0 106.667-47.756 106.667-106.667 0-3.607-0.179-7.173-0.529-10.688h214.391c-0.35 3.515-0.529 7.081-0.529 10.688 0 45.076 27.961 83.622 67.484 99.24l-36.252 82.117zM672 768l0.031-392.509c-16.789 5.522-34.728 8.509-53.364 8.509v330.667c0 29.455 23.878 53.333 53.333 53.333v0zM406.784 705.726h-225.451v-255.891h338.389l-112.939 255.891z" />
<glyph unicode="&#xe946;" glyph-name="freeze" d="M512 821.334c13.389 0 24.473-9.867 26.378-22.726l0.289-3.941v-95.659l66.477 66.515c9.257 9.257 23.626 10.285 34.019 3.086l3.693-3.086c9.257-9.257 10.285-23.626 3.086-34.019l-3.086-3.693-104.19-104.109v-132.693l214.701 214.739c10.414 10.414 27.298 10.414 37.712 0 9.257-9.257 10.285-23.626 3.086-34.019l-3.086-3.693-214.782-214.701h132.651l104.194 104.19c10.414 10.414 27.298 10.414 37.712 0 9.257-9.257 10.285-23.626 3.086-34.019l-3.086-3.693-66.558-66.477h95.701c14.728 0 26.667-11.939 26.667-26.667 0-13.389-9.867-24.473-22.726-26.378l-3.941-0.289h-95.701l66.558-66.477c9.257-9.257 10.285-23.626 3.086-34.019l-3.086-3.693c-9.257-9.257-23.626-10.285-34.019-3.086l-3.693 3.086-104.152 104.19h-132.651l214.739-214.701c10.414-10.414 10.414-27.298 0-37.712-9.257-9.257-23.626-10.285-34.019-3.086l-3.693 3.086-214.701 214.739v-132.651l104.19-104.152c10.414-10.414 10.414-27.298 0-37.712-9.257-9.257-23.626-10.285-34.019-3.086l-3.693 3.086-66.477 66.558v-95.701c0-14.728-11.939-26.667-26.667-26.667-13.389 0-24.473 9.867-26.378 22.726l-0.289 3.941v95.701l-66.477-66.558c-9.257-9.257-23.626-10.285-34.019-3.086l-3.693 3.086c-9.257 9.257-10.285 23.626-3.086 34.019l3.086 3.693 104.19 104.194v132.608l-214.701-214.739c-10.414-10.414-27.298-10.414-37.712 0-9.257 9.257-10.285 23.626-3.086 34.019l3.086 3.693 214.696 214.701h-132.651l-104.109-104.19c-10.414-10.414-27.298-10.414-37.712 0-9.257 9.257-10.285 23.626-3.086 34.019l3.086 3.693 66.515 66.477h-95.659c-14.728 0-26.667 11.939-26.667 26.667 0 13.389 9.867 24.473 22.726 26.378l3.941 0.289h95.659l-66.515 66.477c-9.257 9.257-10.285 23.626-3.086 34.019l3.086 3.693c9.257 9.257 23.626 10.285 34.019 3.086l3.693-3.086 104.152-104.19h132.651l-214.739 214.701c-10.414 10.414-10.414 27.298 0 37.712 9.257 9.257 23.626 10.285 34.019 3.086l3.693-3.086 214.701-214.739v132.651l-104.19 104.152c-10.414 10.414-10.414 27.298 0 37.712 9.257 9.257 23.626 10.285 34.019 3.086l3.693-3.086 66.477-66.515v95.659c0 14.728 11.939 26.667 26.667 26.667z" />
<glyph unicode="&#xe947;" glyph-name="go" d="M245.333 53.334h-53.333v746.667h640l-154.667-240 154.667-240h-586.667v-266.667zM245.333 373.334h488.8l-120.8 186.667 120.8 186.667h-488.8v-373.333z" />
<glyph unicode="&#xe948;" glyph-name="grab" d="M352 720h106.667v-106.667h-106.667v106.667zM565.333 720h106.667v-106.667h-106.667v106.667zM352 480h106.667v-106.667h-106.667v106.667zM565.333 480h106.667v-106.667h-106.667v106.667zM352 240h106.667v-106.667h-106.667v106.667zM565.333 240h106.667v-106.667h-106.667v106.667z" />
<glyph unicode="&#xe949;" glyph-name="help" d="M512 800c-206.186 0-373.333-167.147-373.333-373.333s167.147-373.333 373.333-373.333c206.186 0 373.333 167.147 373.333 373.333 0 99.014-39.333 193.973-109.347 263.987s-164.972 109.347-263.987 109.347zM512 106.667c-176.731 0-320 143.269-320 320s143.269 320 320 320c176.731 0 320-143.269 320-320s-143.269-320-320-320v0zM512 186.667c22.091 0 40 17.909 40 40s-17.909 40-40 40c-22.091 0-40-17.909-40-40s17.909-40 40-40zM538.667 640.001h-40c-31.848 0.071-62.411-12.549-84.931-35.069s-35.14-53.084-35.069-84.931v-13.333h53.334v13.333c0 36.819 29.848 66.667 66.667 66.667h40c36.819 0 66.667-29.848 66.667-66.667s-29.848-66.667-66.667-66.667h-53.334v-120h53.334v66.667c66.274 0 120 53.726 120 120s-53.726 120-120 120z" />
<glyph unicode="&#xe94a;" glyph-name="import" d="M832 346.667h-351.2l68.8 69.067-37.6 37.6-133.333-133.333 133.333-133.333 37.6 37.6-68.8 69.067h351.2v53.333zM725.334 480v106.667c0.041 7.088-2.742 13.901-7.734 18.933l-186.667 186.667c-5.033 4.992-11.845 7.774-18.933 7.734h-266.667c-29.455 0-53.333-23.879-53.333-53.334v-640c0-29.455 23.878-53.333 53.333-53.333h426.667c29.455 0 53.334 23.878 53.334 53.333v53.333h-53.334v-53.333h-426.667v640h213.333v-160c0-29.455 23.878-53.333 53.333-53.333h160v-53.333h53.334zM512 586.667v149.067l149.067-149.067h-149.067z" />
<glyph unicode="&#xe94b;" glyph-name="info" d="M538.667 266.667v240h-106.667v-53.333h53.333v-186.667h-80v-53.333h213.333v53.333h-80zM512 666.667c-22.091 0-40-17.909-40-40s17.909-40 40-40c22.091 0 40 17.909 40 40s-17.909 40-40 40v0zM512 53.334c-206.186 0-373.333 167.147-373.333 373.333s167.147 373.333 373.333 373.333c206.186 0 373.333-167.147 373.333-373.333s-167.147-373.333-373.333-373.333v0zM512 746.667c-176.731 0-320-143.269-320-320s143.269-320 320-320c176.731 0 320 143.269 320 320s-143.269 320-320 320z" />
<glyph unicode="&#xe94c;" glyph-name="intersection_all" d="M752 560l-37.6-37.6 68.8-69.067h-244.533v244.533l69.067-68.8 37.6 37.6-133.333 133.333-133.333-133.333 37.6-37.6 69.067 68.8v-244.533h-244.533l68.8 69.067-37.6 37.6-133.333-133.333 133.333-133.333 37.6 37.6-68.8 69.067h244.533v-244.533l-69.067 68.8-37.6-37.6 133.333-133.333 133.333 133.333-37.6 37.6-69.067-68.8v244.533h244.533l-68.8-69.067 37.6-37.6 133.333 133.333z" />
<glyph unicode="&#xe94d;" glyph-name="intersection_front_right" d="M752 560l-37.6-37.6 68.8-69.067h-244.533v244.533l69.067-68.8 37.6 37.6-133.333 133.333-133.333-133.333 37.6-37.6 69.067 68.8v-627.733h53.333v329.867h244.533l-68.8-69.067 37.6-37.6 133.333 133.333z" />
<glyph unicode="&#xe94e;" glyph-name="intersection_left" d="M538.667 453.334h-297.867l68.8 69.067-37.6 37.6-133.333-133.333 133.333-133.333 37.6 37.6-68.8 69.067h244.533v-329.867h53.333v329.867z" />
<glyph unicode="&#xe94f;" glyph-name="intersection_left_front" d="M538.667 453.334v244.533l69.067-68.8 37.6 37.6-133.333 133.333-133.333-133.333 37.6-37.6 69.067 68.8v-244.533h-244.533l68.8 69.067-37.6 37.6-133.333-133.333 133.333-133.333 37.6 37.6-68.8 69.067h244.533v-329.867h53.333v329.867z" />
<glyph unicode="&#xe950;" glyph-name="intersection_left_front_right" d="M752 560l-37.6-37.6 68.8-69.067h-244.533v244.533l69.067-68.8 37.6 37.6-133.333 133.333-133.333-133.333 37.6-37.6 69.067 68.8v-244.533h-244.533l68.8 69.067-37.6 37.6-133.333-133.333 133.333-133.333 37.6 37.6-68.8 69.067h244.533v-329.867h53.333v329.867h244.533l-68.8-69.067 37.6-37.6 133.333 133.333z" />
<glyph unicode="&#xe951;" glyph-name="intersection_left_right" d="M752 560l-37.6-37.6 68.8-69.067h-542.4l68.8 69.067-37.6 37.6-133.333-133.333 133.333-133.333 37.6 37.6-68.8 69.067h244.533v-329.867h53.333v329.867h244.533l-68.8-69.067 37.6-37.6 133.333 133.333z" />
<glyph unicode="&#xe952;" glyph-name="intersection_right" d="M752 560l-37.6-37.6 68.8-69.067h-297.867v-383.2h53.333v329.867h244.533l-68.8-69.067 37.6-37.6 133.333 133.333z" />
<glyph unicode="&#xe953;" glyph-name="jobs" d="M352 693.334h480v-53.333h-480v53.333zM352 533.334h480v-53.333h-480v53.333zM485.333 373.334h346.667v-53.333h-346.667v53.333zM352 213.334h480v-53.333h-480v53.333zM192 480l186.667-133.333-186.667-133.333v266.667z" />
<glyph unicode="&#xe954;" glyph-name="label" d="M450.933 525.6l-167.733 167.733h175.467v53.333h-266.667v-266.4l53.333-0.533v176l167.733-167.733 37.867 37.6zM832 586.667h-266.667v-53.333h266.667v-426.667h-426.667v266.667h-53.333v-266.667c0-29.455 23.878-53.333 53.333-53.333h426.667c29.455 0 53.333 23.878 53.333 53.333v426.667c0 29.455-23.878 53.333-53.333 53.333zM592 186.667h53.333v186.667h80v53.333h-213.333v-53.333h80v-186.667z" />
<glyph unicode="&#xe955;" glyph-name="launch" d="M778.667 106.667h-533.333c-29.455 0-53.333 23.878-53.333 53.333v533.333c0 29.455 23.878 53.333 53.333 53.333h240v-53.333h-240v-533.333h533.333v240h53.333v-240c0-29.455-23.878-53.333-53.333-53.333zM645.333 800v-53.333h149.067l-229.067-229.067 37.6-37.6 229.067 229.067v-149.067h53.333v240h-240z" />
<glyph unicode="&#xe956;" glyph-name="layout" d="M512 213.334l-162.4 229.333c-54.26 64.063-66.712 153.672-31.976 230.103s110.431 125.978 194.376 127.231c118.687-1.173 214.074-98.11 213.333-216.8 0.022-49.732-16.909-97.985-48-136.8l-165.333-233.067zM512 746.667c-89.294-1.025-160.889-74.171-160-163.467 0.179-39.142 14.261-76.947 39.733-106.667l120.267-170.4 123.467 173.867c23.469 29.295 36.344 65.664 36.533 103.2 0.889 89.295-70.706 162.441-160 163.467zM512 560c29.455 0 53.333 23.878 53.333 53.333s-23.878 53.333-53.333 53.333c-29.455 0-53.333-23.878-53.333-53.333s23.878-53.333 53.333-53.333zM832 533.334h-53.333v-53.333h53.333v-373.333h-640v373.333h53.333v53.333h-53.333c-29.455 0-53.333-23.878-53.333-53.333v-373.333c0-29.455 23.878-53.333 53.333-53.333h640c29.455 0 53.333 23.878 53.333 53.333v373.333c0 29.455-23.878 53.333-53.333 53.333z" />
<glyph unicode="&#xe957;" glyph-name="lightmode" d="M485.333 800h53.333v-80h-53.333v80zM805.333 453.334h80v-53.333h-80v53.333zM485.333 133.334h53.333v-80h-53.333v80zM138.667 453.334h80v-53.333h-80v53.333zM230.667 669.787l37.707 37.68 56.587-56.533-37.76-37.707-56.533 56.56zM698.667 651.174l56.533 56.56 37.707-37.707-56.56-56.587-37.68 37.733zM698.72 202.24l37.707 37.707 56.587-56.587-37.707-37.707-56.587 56.587zM231.2 183.2l56.533 56.8 37.6-37.867-56.533-56.533-37.6 37.6zM512 640c-117.821 0-213.333-95.513-213.333-213.333s95.513-213.333 213.333-213.333c117.821 0 213.333 95.513 213.333 213.333s-95.513 213.333-213.333 213.333v0zM512 266.667c-88.366 0-160 71.634-160 160s71.634 160 160 160v-320z" />
<glyph unicode="&#xe958;" glyph-name="link" d="M865.333 673.067c-30.022 30.126-70.802 47.060-113.333 47.060s-83.312-16.933-113.333-47.060l37.867-37.867c27.009 27.009 66.376 37.558 103.272 27.672s65.714-38.705 75.6-75.6c9.886-36.895-0.662-76.262-27.672-103.272l-213.333-213.333c-26.962-27.009-66.285-37.583-103.156-27.738s-65.69 38.613-75.6 75.467c-9.91 36.854 0.594 76.196 27.556 103.205l37.6 37.867-37.6 37.867-37.867-37.867c-30.126-30.022-47.060-70.802-47.060-113.333s16.933-83.312 47.060-113.333c30.173-29.787 70.935-46.379 113.333-46.136 42.697-0.173 83.694 16.725 113.867 46.936l213.333 213.333c62.243 62.615 62.004 163.813-0.533 226.133v0zM197.067 191.467c-20.111 20.018-31.418 47.224-31.418 75.6s11.306 55.582 31.418 75.6l213.333 213.333c20.018 20.111 47.224 31.418 75.6 31.418s55.582-11.306 75.6-31.418c19.991-20.182 30.957-47.599 30.4-76 0.164-28.483-11.070-55.848-31.2-76l-56.533-57.333 37.867-37.867 56.533 56.533c62.666 62.666 62.666 164.267 0 226.933s-164.267 62.666-226.933 0l-213.333-213.333c-30.208-30.032-47.193-70.87-47.193-113.467s16.986-83.434 47.193-113.467c30.369-29.559 71.224-45.863 113.6-45.333 42.749-0.041 83.779 16.831 114.133 46.933l-37.867 37.867c-20.018-20.111-47.224-31.418-75.6-31.418s-55.582 11.306-75.6 31.418v0z" />
<glyph unicode="&#xe959;" glyph-name="load" d="M245.333 400l37.6-37.6 202.4 202.133v-511.2h53.333v511.2l202.4-202.133 37.6 37.6-266.667 266.667-266.667-266.667zM245.333 640v106.667h533.333v-106.667h53.333v106.667c0 29.455-23.878 53.333-53.333 53.333h-533.333c-29.455 0-53.333-23.878-53.333-53.333v-106.667h53.333z" />
<glyph unicode="&#xe95a;" glyph-name="location_park" d="M298.667 768c0 23.564 19.103 42.667 42.667 42.667h197.333c132.548 0 240-107.452 240-240s-107.452-240-240-240h-186.667v-288h-53.333v725.333zM538.667 757.334h-186.667v-373.333h186.667c103.093 0 186.667 83.574 186.667 186.667s-83.574 186.667-186.667 186.667z" />
<glyph unicode="&#xe95b;" glyph-name="location_queue" d="M290.667 728c-30.587-23.471-57.544-51.327-80-82.667l42.667-32c19.585 27.162 42.93 51.404 69.333 72l-32 42.667zM208 525.334l-50.667 16c-12.881-36.836-19.199-75.647-18.667-114.667h53.333c-0.108 33.543 5.297 66.876 16 98.667v0zM157.333 309.334c12.367-37.185 30.353-72.258 53.333-104l42.667 32c-19.278 26.992-34.547 56.633-45.333 88l-50.667-16zM293.333 125.334c31.742-22.98 66.815-40.966 104-53.333l16 50.667c-31.367 10.786-61.008 26.055-88 45.333l-32-42.667zM397.333 781.334l16-50.667c31.79 10.703 65.123 16.108 98.667 16v53.333c-39.020 0.532-77.83-5.786-114.667-18.667v0zM730.667 125.334c31.41 23.41 59.256 51.256 82.667 82.667l-42.667 32c-19.832-27.835-44.165-52.168-72-72l32-42.667zM816 328l50.667-16c11.6 37.15 17.885 75.755 18.667 114.667h-53.333c0.108-33.543-5.297-66.876-16-98.667v0zM864 544c-12.367 37.185-30.353 72.258-53.333 104l-42.667-32c19.278-26.992 34.547-56.633 45.333-88l50.667 16zM728 730.667c-31.742 22.98-66.815 40.966-104 53.333l-16-50.667c31.367-10.786 61.008-26.055 88-45.333l32 42.667zM626.667 72l-16 50.667c-31.79-10.703-65.123-16.108-98.667-16v-53.333c38.757 2.309 77.178 8.564 114.667 18.667v0z" />
<glyph unicode="&#xe95c;" glyph-name="location_shelf" d="M632.978 816.007c-6.438-16.858-10.851-34.739-12.936-53.336l-401.375-0.005v-106.667l415.923-0.042c7.807-19.279 18.294-37.215 31.029-53.298l-446.952 0.006v-106.667h523.861v-53.333h-523.861v-106.667h523.861l0.010-16.465 0.521-9.241 1.533-8.368c1.527-6.802 3.679-13.255 6.384-19.304l-532.308 0.044v-106.667h586.667l0.004 57.003c8.444-2.706 17.403-4.139 26.663-4.139v0l7.719 0.333 7.974 1.058c3.762 0.675 7.442 1.587 11.026 2.722l-0.052-56.977c0-1.812-0.090-3.603-0.267-5.368l0.267 0.035v-128h-53.333v80h-586.667v-80h-53.333v128h0.256l-0.256 5.333v586.667c0 29.455 23.878 53.333 53.333 53.333v0zM832 847.531c67.747 0 122.667-54.92 122.667-122.667 0-58.58-41.062-107.569-95.974-119.754v0l-0.026-200.246-0.356-4.368c-1.874-11.37-10.94-20.316-22.37-22.009v0l-3.941-0.289-4.368 0.356c-11.37 1.874-20.316 10.94-22.009 22.37v0l-0.289 3.941 0.016 200.236-7.084 1.794c-51.343 14.655-88.932 61.922-88.932 117.97 0 67.747 54.92 122.667 122.667 122.667z" />
<glyph unicode="&#xe95d;" glyph-name="location_turnover" d="M565.333 106.667c176.731 0 320 143.269 320 320s-143.269 320-320 320c-176.731 0-320-143.269-320-320v-165.333l-96 96-37.333-37.333 160-160 160 160-37.333 37.333-96-96v165.333c0 147.276 119.391 266.667 266.667 266.667s266.667-119.391 266.667-266.667c0-147.276-119.391-266.667-266.667-266.667v-53.333z" />
<glyph unicode="&#xe95e;" glyph-name="log" d="M778.667 800h-480c-29.455 0-53.333-23.878-53.333-53.333v-106.667h-53.333v-53.333h53.333v-133.333h-53.333v-53.333h53.333v-133.333h-53.333v-53.333h53.333v-106.667c0-29.455 23.878-53.333 53.333-53.333h480c29.455 0 53.333 23.878 53.333 53.333v640c0 29.455-23.878 53.333-53.333 53.333zM778.667 106.667h-480v106.667h53.333v53.333h-53.333v133.333h53.333v53.333h-53.333v133.333h53.333v53.333h-53.333v106.667h480v-640zM458.667 640h213.333v-53.333h-213.333v53.333zM458.667 453.334h213.333v-53.333h-213.333v53.333zM458.667 266.667h213.333v-53.333h-213.333v53.333z" />
<glyph unicode="&#xe95f;" glyph-name="material" d="M533.542 840.734l328.348-192.051c13.084-7.653 21.125-21.672 21.125-36.829v-370.373c0-15.157-8.041-29.177-21.125-36.829l-328.348-192.051c-13.307-7.783-29.777-7.783-43.083 0l-328.348 192.051c-13.084 7.653-21.125 21.672-21.125 36.829v370.373c0 15.157 8.041 29.177 21.125 36.829l328.348 192.051c13.307 7.783 29.777 7.783 43.083 0zM512 791.547l-317.681-185.812v-358.136l317.681-185.812 317.681 185.812v358.136l-317.681 185.812zM512 624c108.984 0 197.333-88.349 197.333-197.333s-88.349-197.333-197.333-197.333c-108.984 0-197.333 88.349-197.333 197.333s88.349 197.333 197.333 197.333zM512 570.667c-79.529 0-144-64.471-144-144s64.471-144 144-144c79.529 0 144 64.471 144 144s-64.471 144-144 144z" />
<glyph unicode="&#xe960;" glyph-name="material_add" d="M533.542 840.734l328.348-192.051c13.084-7.653 21.125-21.672 21.125-36.829v-370.373c0-15.157-8.041-29.177-21.125-36.829l-328.348-192.051c-13.307-7.783-29.777-7.783-43.083 0l-328.348 192.051c-13.084 7.653-21.125 21.672-21.125 36.829v370.373c0 15.157 8.041 29.177 21.125 36.829l328.348 192.051c13.307 7.783 29.777 7.783 43.083 0zM512 791.547l-317.681-185.812v-358.136l317.681-185.812 317.681 185.812v358.136l-317.681 185.812zM538.667 554.667v-101.333h101.333v-53.333h-101.333v-101.333h-53.333v101.333h-101.333v53.333h101.333v101.333h53.333z" />
<glyph unicode="&#xe961;" glyph-name="material_mapping" d="M445.333 31.6c-4.608 0-9.137 1.196-13.147 3.467l-226.667 128.4c-8.355 4.735-13.52 13.596-13.52 23.2v266.667c0 9.604 5.165 18.465 13.52 23.2l226.667 128.4c8.157 4.616 18.137 4.616 26.293 0l226.667-128.4c8.355-4.735 13.52-13.596 13.52-23.2v-266.667c0-9.604-5.165-18.465-13.52-23.2l-226.667-128.4c-4.010-2.271-8.539-3.467-13.147-3.467zM245.333 202.214l200-113.28 200 113.28v235.573l-200 113.28-200-113.253v-235.6zM448 384c35.2 0 64-28.8 64-64s-28.8-64-64-64c-35.2 0-64 28.8-64 64s28.8 64 64 64zM591.813 818.267l226.667-128.4c8.355-4.735 13.52-13.596 13.52-23.2v-266.667h-53.333v251.12l-200 113.28-213.52-120.933-26.293 46.4 226.667 128.4c8.157 4.616 18.137 4.616 26.293 0z" />
<glyph unicode="&#xe962;" glyph-name="material_qstatus" d="M533.542 840.734l328.348-192.051c13.084-7.653 21.125-21.672 21.125-36.829v-370.373c0-15.157-8.041-29.177-21.125-36.829l-328.348-192.051c-13.307-7.783-29.777-7.783-43.083 0l-328.348 192.051c-13.084 7.653-21.125 21.672-21.125 36.829v370.373c0 15.157 8.041 29.177 21.125 36.829l328.348 192.051c13.307 7.783 29.777 7.783 43.083 0zM512 791.547l-317.681-185.812v-358.136l317.681-185.812 317.681 185.812v358.136l-317.681 185.812zM512 666.667c85.42 0 154.667-69.247 154.667-154.667v-85.333c0-76.33-55.293-139.746-128.010-152.378l0.010-34.289h58.667v-53.333h-64c-26.51 0-48 21.49-48 48v0l-0.033 39.629c-72.696 12.65-127.967 76.056-127.967 152.371v85.333c0 85.42 69.247 154.667 154.667 154.667zM512 613.334c-55.965 0-101.333-45.368-101.333-101.333v-85.333c0-46.729 31.63-86.070 74.647-97.783l0.019 12.449h53.333l-0.023-12.461c43.039 11.698 74.689 51.050 74.689 97.794v85.333c0 55.965-45.368 101.333-101.333 101.333z" />
<glyph unicode="&#xe963;" glyph-name="material_retreive" d="M533.542 840.734l328.348-192.051c13.084-7.653 21.125-21.672 21.125-36.829v-370.373c0-15.157-8.041-29.177-21.125-36.829l-328.348-192.051c-13.307-7.783-29.777-7.783-43.083 0l-328.348 192.051c-13.084 7.653-21.125 21.672-21.125 36.829v370.373c0 15.157 8.041 29.177 21.125 36.829l328.348 192.051c13.307 7.783 29.777 7.783 43.083 0zM512 791.547l-317.681-185.812v-358.136l317.681-185.812 317.681 185.812v358.136l-317.681 185.812zM512 618.667l160-160-37.707-37.707-95.627 95.627v-260.587h-53.333v260.587l-95.627-95.627-37.707 37.707 160 160z" />
<glyph unicode="&#xe964;" glyph-name="material_visualcontrol" d="M533.542 840.734l328.348-192.051c13.084-7.653 21.125-21.672 21.125-36.829v-370.373c0-15.157-8.041-29.177-21.125-36.829l-328.348-192.051c-13.307-7.783-29.777-7.783-43.083 0l-328.348 192.051c-13.084 7.653-21.125 21.672-21.125 36.829v370.373c0 15.157 8.041 29.177 21.125 36.829l328.348 192.051c13.307 7.783 29.777 7.783 43.083 0zM512 791.547l-317.681-185.812v-358.136l317.681-185.812 317.681 185.812v358.136l-317.681 185.812zM512 621.334c109.341 0 220.795-78.744 267.075-183.927l4.725-10.74-4.725-10.74c-45.708-103.883-160.233-183.927-267.075-183.927-109.341 0-220.795 78.744-267.075 183.927l-4.509 10.248 4.158 10.395c41.772 104.43 156.71 184.763 267.426 184.763zM512 568c-84.937 0-176.261-61.383-213.422-140.891 40.652-81.345 129.548-141.776 213.422-141.776 78.378 0 165.961 56.95 208.485 132.552l4.704 8.804-4.723 8.924c-42.599 76.562-127.852 132.387-208.466 132.387zM512 501.334c41.067 0 74.667-33.6 74.667-74.667s-33.6-74.667-74.667-74.667c-41.067 0-74.667 33.6-74.667 74.667s33.6 74.667 74.667 74.667z" />
<glyph unicode="&#xe965;" glyph-name="move-down" d="M512 346.667l-266.667 266.667 37.6 37.6 229.067-228.8 229.067 228.8 37.6-37.6-266.667-266.667zM192 240h640v-53.333h-640v53.333z" />
<glyph unicode="&#xe966;" glyph-name="move-up" d="M512 506.667l-266.667-266.667 37.6-37.6 229.067 228.8 229.067-228.8 37.6 37.6-266.667 266.667zM192 666.667h640v-53.333h-640v53.333z" />
<glyph unicode="&#xe967;" d="M378.667 613.334c14.728 0 26.667 11.939 26.667 26.667s-11.939 26.667-26.667 26.667c-14.728 0-26.667-11.939-26.667-26.667s11.939-26.667 26.667-26.667zM378.667 400c14.728 0 26.667 11.939 26.667 26.667s-11.939 26.667-26.667 26.667c-14.728 0-26.667-11.939-26.667-26.667s11.939-26.667 26.667-26.667zM378.667 186.667c14.728 0 26.667 11.939 26.667 26.667s-11.939 26.667-26.667 26.667c-14.728 0-26.667-11.939-26.667-26.667s11.939-26.667 26.667-26.667zM725.333 773.334h-426.667c-29.455 0-53.333-23.878-53.333-53.333v-586.667c0-29.455 23.878-53.333 53.333-53.333h213.333v53.333h-213.333v160h480v426.667c0 29.455-23.878 53.333-53.333 53.333zM725.333 346.667h-426.667v160h426.667v-160zM725.333 560h-426.667v160h426.667v-160z" />
<glyph unicode="&#xe968;" d="M698.667 128.534l-69.067 69.067-37.6-37.6 106.667-106.667 186.667 186.667-37.6 37.6z" />
<glyph unicode="&#xe969;" d="M378.667 613.334c14.728 0 26.667 11.939 26.667 26.667s-11.939 26.667-26.667 26.667c-14.728 0-26.667-11.939-26.667-26.667s11.939-26.667 26.667-26.667zM378.667 400c14.728 0 26.667 11.939 26.667 26.667s-11.939 26.667-26.667 26.667c-14.728 0-26.667-11.939-26.667-26.667s11.939-26.667 26.667-26.667zM378.667 186.667c14.728 0 26.667 11.939 26.667 26.667s-11.939 26.667-26.667 26.667c-14.728 0-26.667-11.939-26.667-26.667s11.939-26.667 26.667-26.667zM725.333 773.334h-426.667c-29.455 0-53.333-23.878-53.333-53.333v-586.667c0-29.455 23.878-53.333 53.333-53.333h213.333v53.333h-213.333v160h480v426.667c0 29.455-23.878 53.333-53.333 53.333zM725.333 346.667h-426.667v160h426.667v-160zM725.333 560h-426.667v160h426.667v-160z" />
<glyph unicode="&#xe96a;" d="M865.067 64.534l-75.467 75.467 75.467 75.467-37.6 37.6-75.467-75.2-75.467 75.2-37.6-37.6 75.467-75.467-75.467-75.467 37.6-37.6 75.467 75.467 75.467-75.467 37.6 37.6z" />
<glyph unicode="&#xe96b;" d="M778.667 160h-533.333v533.333h240v53.333h-240c-29.455 0-53.333-23.878-53.333-53.333v-533.333c0-29.455 23.878-53.333 53.333-53.333h533.333c29.455 0 53.333 23.878 53.333 53.333v240h-53.333v-240z" />
<glyph unicode="&#xe96c;" d="M778.667 693.334v106.667h-53.333v-106.667h-106.667v-53.333h106.667v-106.667h53.333v106.667h106.667v53.333z" />
<glyph unicode="&#xe96d;" glyph-name="overflow-menue" d="M512 640c29.455 0 53.333 23.878 53.333 53.333s-23.878 53.333-53.333 53.333c-29.455 0-53.333-23.878-53.333-53.333s23.878-53.333 53.333-53.333zM512 373.334c29.455 0 53.333 23.878 53.333 53.333s-23.878 53.333-53.333 53.333c-29.455 0-53.333-23.878-53.333-53.333s23.878-53.333 53.333-53.333zM512 106.667c29.455 0 53.333 23.878 53.333 53.333s-23.878 53.333-53.333 53.333c-29.455 0-53.333-23.878-53.333-53.333s23.878-53.333 53.333-53.333z" />
<glyph unicode="&#xe96e;" glyph-name="paste" d="M778.667 320h-217.867l68.8 69.067-37.6 37.6-133.333-133.333 133.333-133.333 37.6 37.6-68.8 69.067h217.867v-213.333h53.333v213.333c0 29.455-23.878 53.333-53.333 53.333zM717.6 605.6l-186.667 186.667c-5.033 4.992-11.845 7.774-18.933 7.734h-266.667c-29.455 0-53.333-23.879-53.333-53.334v-640c0-29.455 23.878-53.333 53.333-53.333h213.333v53.333h-213.333v640h213.333v-160c0-29.455 23.878-53.333 53.333-53.333h160v-53.333h53.334v106.667c0.041 7.088-2.742 13.901-7.734 18.933zM512 735.734l149.067-149.067h-149.067v149.067z" />
<glyph unicode="&#xe96f;" glyph-name="path" d="M485.333 293.334c0-44.183-35.817-80-80-80h-2.667c-13.69 67.066-75.939 112.871-144.041 105.991s-119.932-64.21-119.932-132.658c0-68.449 51.83-125.778 119.932-132.658s130.351 38.926 144.041 105.991h2.667c35.362 0 69.276 14.048 94.281 39.052s39.052 58.919 39.052 94.281h-53.333zM272 106.667c-44.183 0-80 35.817-80 80s35.817 80 80 80c44.183 0 80-35.817 80-80s-35.817-80-80-80v0zM485.333 506.667h53.333v-160h-53.333v160zM752 800c-63.369 0.013-117.993-44.578-130.667-106.667h-2.667c-73.638 0-133.333-59.695-133.333-133.333h53.333c0 44.183 35.817 80 80 80h2.667c14.033-68.746 78.942-114.854 148.475-105.468s119.895 71.053 115.199 141.059c-4.696 70.006-62.844 124.395-133.007 124.409zM752 586.667c-44.183 0-80 35.817-80 80s35.817 80 80 80c44.183 0 80-35.817 80-80s-35.817-80-80-80v0z" />
<glyph unicode="&#xe970;" glyph-name="pause" d="M405.333 693.334h-53.333c-29.455 0-53.333-23.878-53.333-53.333v-426.667c0-29.455 23.878-53.333 53.333-53.333h53.333c29.455 0 53.333 23.878 53.333 53.333v426.667c0 29.455-23.878 53.333-53.333 53.333zM672 693.334h-53.333c-29.455 0-53.333-23.878-53.333-53.333v-426.667c0-29.455 23.878-53.333 53.333-53.333h53.333c29.455 0 53.333 23.878 53.333 53.333v426.667c0 29.455-23.878 53.333-53.333 53.333z" />
<glyph unicode="&#xe971;" glyph-name="physical-merge" d="M832 693.334h-266.667v53.333c0 29.455-23.878 53.333-53.333 53.333h-320c-29.455 0-53.333-23.878-53.333-53.333v-533.333c0-29.455 23.878-53.333 53.333-53.333h266.667v-53.333c0-29.455 23.878-53.333 53.333-53.333h320c29.455 0 53.333 23.878 53.333 53.333v533.333c0 29.455-23.878 53.333-53.333 53.333zM192 453.334h164.533l-68.8-69.067 37.6-37.6 133.333 133.333-133.333 133.333-37.6-37.6 68.8-69.067h-164.533v240h320v-533.333h-320v240zM512 106.667v53.333c29.455 0 53.333 23.878 53.333 53.333v426.667h266.667v-240h-164.533l68.8 69.067-37.6 37.6-133.333-133.333 133.333-133.333 37.6 37.6-68.8 69.067h164.533v-240h-320z" />
<glyph unicode="&#xe972;" glyph-name="pin" d="M847.733 498.4l37.6 37.6-266.667 264-34.933-37.867 31.467-31.467-306.4-259.2-45.867 45.6-37.6-37.067 150.933-151.467-237.6-237.333 37.6-37.867 237.6 237.6 151.467-150.933 37.067 37.867-45.6 45.6 259.2 306.4 31.733-31.467zM518.933 261.334l-172.267 172.267 306.4 259.733 125.6-125.6-259.733-306.4z" />
<glyph unicode="&#xe973;" glyph-name="priority_high" d="M549.333 170.667v431.253l95.627-95.627 37.707 37.707-160 160-160-160 37.707-37.707 95.627 95.627v-431.253z" />
<glyph unicode="&#xe974;" glyph-name="priority_low" d="M496 704v-431.253l-95.627 95.627-37.707-37.707 160-160 160 160-37.707 37.707-95.627-95.627v431.253z" />
<glyph unicode="&#xe975;" glyph-name="priority_medium" d="M352.961 229.916l304.942 304.942v-135.237h53.325v226.274h-226.274v-53.325h135.237l-304.942-304.942z" />
<glyph unicode="&#xe976;" glyph-name="product" d="M832 586.667h-160v106.667c0 29.455-23.878 53.333-53.333 53.333h-213.333c-29.455 0-53.333-23.878-53.333-53.333v-106.667h-160c-29.455 0-53.333-23.878-53.333-53.333v-373.333c0-29.455 23.878-53.333 53.333-53.333h640c29.455 0 53.333 23.878 53.333 53.333v373.333c0 29.455-23.878 53.333-53.333 53.333zM405.333 693.334h213.333v-106.667h-213.333v106.667zM192 160v373.333h640v-373.333h-640z" />
<glyph unicode="&#xe977;" glyph-name="production_fleet" d="M864 426.667c27.614 0 50.327-20.987 53.058-47.88l0.275-5.453v-160c0-27.614-20.987-50.327-47.88-53.058l-5.453-0.275-32.589-0.024c-5.317-47.988-46.006-85.309-95.411-85.309s-90.095 37.321-95.411 85.309h-257.177c-5.317-47.988-46.006-85.309-95.411-85.309s-90.095 37.321-95.411 85.309l-32.589 0.024c-27.614 0-50.327 20.987-53.058 47.88l-0.275 5.453v160c0 27.614 20.987 50.327 47.88 53.058l5.453 0.275h704zM288 213.334c-23.564 0-42.667-19.103-42.667-42.667s19.103-42.667 42.667-42.667c23.564 0 42.667 19.103 42.667 42.667s-19.103 42.667-42.667 42.667zM736 213.334c-23.564 0-42.667-19.103-42.667-42.667s19.103-42.667 42.667-42.667c23.564 0 42.667 19.103 42.667 42.667s-19.103 42.667-42.667 42.667zM864 373.334h-704v-160l41.964-0.030c15.703 31.626 48.331 53.363 86.036 53.363s70.333-21.737 86.036-53.363h275.928c15.703 31.626 48.331 53.363 86.036 53.363s70.333-21.737 86.036-53.363l41.964 0.030v160zM512 656.164c53.153 0 103.786-22.66 139.2-62.297l-39.733-35.733c-25.297 28.338-61.48 44.541-99.467 44.541s-74.17-16.203-99.467-44.541l-39.733 35.733c35.414 39.637 86.047 62.297 139.2 62.297zM512 789.334c92.329 0 179.269-43.47 234.667-117.333l-42.667-32c-45.325 60.433-116.458 96-192 96s-146.675-35.567-192-96l-42.667 32c55.397 73.863 142.338 117.333 234.667 117.333z" />
<glyph unicode="&#xe978;" glyph-name="production_modprod" d="M447.915 805.334c52.673 0 96.853-36.361 108.81-85.351l211.275 0.018c36.276 0 66.046-27.86 69.079-63.351l0.254-5.982v-208h101.333v-53.333h-101.333v-80c0-36.276-27.86-66.046-63.351-69.079l-5.982-0.254h-80v-58.667c0-36.276-27.86-66.046-63.351-69.079l-5.982-0.254-61.952-0.024c-11.972-48.969-56.142-85.309-108.8-85.309s-96.828 36.34-108.8 85.309l-83.115 0.024c-36.276 0-66.046 27.86-69.079 63.351l-0.254 5.982v208h-101.333v53.333h101.333v208c0 36.276 27.86 66.046 63.351 69.079l5.982 0.254 83.104-0.018c11.957 48.991 56.137 85.351 108.81 85.351zM447.915 197.334c-32.401 0-58.667-26.266-58.667-58.667s26.266-58.667 58.667-58.667c32.401 0 58.667 26.266 58.667 58.667s-26.266 58.667-58.667 58.667zM618.667 389.334l-89.684-0.048c-11.212-34.044-43.27-58.618-81.068-58.618s-69.856 24.575-81.068 58.618l-126.847 0.048v-208c0-7.732 5.485-14.183 12.775-15.675l3.225-0.325 83.104-0.018c11.957 48.991 56.137 85.351 108.81 85.351s96.853-36.361 108.81-85.351l61.942 0.018c7.732 0 14.183 5.485 15.675 12.775l0.325 3.225v194.133c0 7.986-6.317 13.867-16 13.867zM339.115 666.643l-83.115 0.024c-7.732 0-14.183-5.485-15.675-12.775l-0.325-3.225v-208l126.832 0.005c11.199 34.066 43.269 58.661 81.082 58.661s69.883-24.596 81.082-58.661l89.67-0.005c36.19 0 65.865-25.753 69.050-60.903l0.283-6.297v-82.133h80c7.732 0 14.183 5.485 15.675 12.775l0.325 3.225v341.333c0 7.732-5.485 14.183-12.775 15.675l-3.225 0.325-211.285-0.024c-11.972-48.969-56.142-85.309-108.8-85.309s-96.828 36.34-108.8 85.309zM447.915 752c-32.401 0-58.667-26.266-58.667-58.667s26.266-58.667 58.667-58.667c32.401 0 58.667 26.266 58.667 58.667s-26.266 58.667-58.667 58.667z" />
<glyph unicode="&#xe979;" glyph-name="production_warehouse" d="M489.58 846.968c13.742 8.487 31.098 8.487 44.84 0v0l368-227.281c12.585-7.773 20.247-21.509 20.247-36.301v0-558.173h-53.333v552.223l-357.333 220.693-357.333-220.693v-552.223h-53.333v558.173c0 14.792 7.661 28.529 20.247 36.301v0zM629.333 483.88c17.673 0 32-14.327 32-32v-170.664l74.667-0.003c17.673 0 32-14.327 32-32v-224h-512v224c0 17.673 14.327 32 32 32l74.667 0.003v170.664c0 17.673 14.327 32 32 32h234.667zM485.333 227.88h-176v-149.333h176v149.333zM714.667 227.88h-176v-149.333h176v149.333zM608 430.547h-192v-149.333h192v149.333z" />
<glyph unicode="&#xe97a;" glyph-name="queue_direction" d="M512 800c206.186 0 373.333-167.147 373.333-373.333s-167.147-373.333-373.333-373.333v0 53.333c176.731 0 320 143.269 320 320s-143.269 320-320 320v0zM305.067 182.934c28.73-24.204 61.496-43.16 96.8-56v0l-18.4-49.867c-40.701 14.948-78.438 36.976-111.467 65.067v0zM197.067 373.334c6.252-37.429 18.88-73.508 37.333-106.667v0l-46.133-26.667c-21.857 37.896-36.928 79.319-44.533 122.4v0zM544 597.334l160-160-160-160-37.707 37.707 95.627 95.627h-260.587v53.333h260.587l-95.627 95.627 37.707 37.707zM188.267 613.334l46.133-26.667c-18.164-32.55-30.526-68.012-36.533-104.8v0l-53.333 9.067c7.501 42.993 22.292 84.388 43.733 122.4v0zM382.133 776.267l18.4-49.867c-34.833-12.98-67.139-31.93-95.467-56v0l-33.067 40.8c32.628 27.956 69.903 49.978 110.133 65.067v0z" />
<glyph unicode="&#xe97b;" glyph-name="redo" d="M298.667 456.534c-64 0-119.467-55.467-119.467-115.2 0-64 55.467-115.2 119.467-115.2h170.667v-55.467h-170.667c-98.133 0-170.667 72.533-170.667 170.667 0 93.867 76.8 170.667 170.667 170.667h494.933l-106.667 106.667 38.4 38.4 170.667-170.667-170.667-170.667-38.4 38.4 106.667 106.667h-494.933v-4.267z" />
<glyph unicode="&#xe97c;" glyph-name="reduction" d="M618.667 240h-217.067c-2.641 9.352-6.496 18.317-11.467 26.667l281.867 281.867c16.052-9.85 34.5-15.108 53.333-15.2 55.476-0.18 101.828 42.193 106.615 97.462s-33.591 104.981-88.271 114.341c-54.681 9.36-107.408-24.756-121.277-78.47h-220.8c-13.428 52.008-63.434 85.918-116.72 79.15s-93.231-52.103-93.231-105.817c0-53.714 39.945-99.048 93.231-105.817s103.292 27.142 116.72 79.15h220.8c2.641-9.352 6.496-18.317 11.467-26.667l-281.867-281.867c-16.052 9.85-34.5 15.108-53.333 15.2-55.476 0.18-101.828-42.193-106.615-97.462s33.591-104.981 88.271-114.341c54.681-9.36 107.408 24.756 121.277 78.47h217.067v-80h213.333v213.333h-213.333v-80zM298.667 586.667c-29.455 0-53.333 23.878-53.333 53.333s23.878 53.333 53.333 53.333c29.455 0 53.333-23.878 53.333-53.333 0-14.145-5.619-27.71-15.621-37.712s-23.567-15.621-37.712-15.621zM725.333 693.334c29.455 0 53.333-23.878 53.333-53.333s-23.878-53.333-53.333-53.333c-29.455 0-53.333 23.878-53.333 53.333s23.878 53.333 53.333 53.333zM298.667 160c-29.455 0-53.333 23.878-53.333 53.333s23.878 53.333 53.333 53.333c29.455 0 53.333-23.878 53.333-53.333s-23.878-53.333-53.333-53.333zM672 266.667h106.667v-106.667h-106.667v106.667z" />
<glyph unicode="&#xe97d;" glyph-name="rename" d="M138.667 133.334h746.667v-53.333h-746.667v53.333zM762.933 613.334c10.015 10.004 15.642 23.578 15.642 37.733s-5.627 27.73-15.642 37.733l-95.467 95.467c-10.004 10.015-23.578 15.642-37.733 15.642s-27.73-5.627-37.733-15.642l-400-400v-170.933h170.933l400 400zM629.6 746.667l95.733-95.733-80-80-95.733 95.733 80 80zM245.333 266.667v95.733l266.667 266.667 95.733-95.733-266.667-266.667h-95.733z" />
<glyph unicode="&#xe97e;" glyph-name="reserved" d="M138.667 426.667c0-206.186 167.147-373.333 373.333-373.333s373.333 167.147 373.333 373.333c0 206.186-167.147 373.333-373.333 373.333s-373.333-167.147-373.333-373.333zM756 220l-450.667 450.667c127.151 105.838 314.014 97.309 430.995-19.672s125.51-303.844 19.672-430.995zM305.067 182.4c-134.457 114.182-151.156 315.639-37.333 450.4l450.4-450.4c-119.253-100.766-293.814-100.766-413.067 0v0z" />
<glyph unicode="&#xe97f;" glyph-name="reset" d="M565.333 106.667c176.731 0 320 143.269 320 320s-143.269 320-320 320c-176.731 0-320-143.269-320-320v-165.333l-96 96-37.333-37.333 160-160 160 160-37.333 37.333-96-96v165.333c0 147.276 119.391 266.667 266.667 266.667s266.667-119.391 266.667-266.667c0-147.276-119.391-266.667-266.667-266.667v-53.333z" />
<glyph unicode="&#xe980;" glyph-name="resume" d="M272 106.667c-14.728 0-26.667 11.939-26.667 26.667v586.667c0 9.53 5.094 18.334 13.352 23.093s18.427 4.749 26.675-0.026l506.667-293.333c8.224-4.771 13.286-13.559 13.286-23.067s-5.062-18.296-13.286-23.067l-506.667-293.333c-4.058-2.357-8.667-3.6-13.36-3.6z" />
<glyph unicode="&#xe981;" glyph-name="rotate_clockwise" d="M810.667 64h-320c-29.443 0.029-53.304 23.89-53.333 53.333v320c0.029 29.443 23.89 53.304 53.333 53.333h320c29.443-0.029 53.304-23.89 53.333-53.333v-320c-0.029-29.443-23.89-53.304-53.333-53.333v0zM490.667 437.334v-320h320.027l-0.027 320h-320zM464 810.667l-37.6-37.6 68.8-69.067h-137.867c-103.044-0.118-186.549-83.622-186.667-186.667v-133.333h53.333v133.333c0.088 73.601 59.732 133.245 133.333 133.333h137.867l-68.8-69.067 37.6-37.6 133.333 133.333-133.333 133.333z" />
<glyph unicode="&#xe982;" glyph-name="rotate_counterclockwise" d="M181.333 106.667v320c0.029 29.443 23.89 53.304 53.333 53.333h320c29.443-0.029 53.304-23.89 53.333-53.333v-320c-0.029-29.443-23.89-53.304-53.333-53.333h-320c-29.443 0.029-53.304 23.89-53.333 53.333v0zM234.667 426.667l-0.027-320h320.027v320h-320zM581.333 800l37.6-37.6-68.8-69.067h137.867c103.044-0.118 186.549-83.622 186.667-186.667v-133.333h-53.333v133.333c-0.088 73.601-59.732 133.245-133.333 133.333h-137.867l68.8-69.067-37.6-37.6-133.333 133.333 133.333 133.333z" />
<glyph unicode="&#xe983;" glyph-name="route-view" d="M725.333 320l-37.6-37.6 95.467-95.733h-431.2c-58.91 0-106.667 47.756-106.667 106.667s47.756 106.667 106.667 106.667h320c88.366 0 160 71.634 160 160s-71.634 160-160 160h-431.2l95.467 95.733-37.6 37.6-160-160 160-160 37.6 37.6-95.467 95.733h431.2c58.91 0 106.667-47.756 106.667-106.667s-47.756-106.667-106.667-106.667h-320c-88.366 0-160-71.634-160-160s71.634-160 160-160h431.2l-95.467-95.733 37.6-37.6 160 160-160 160z" />
<glyph unicode="&#xe984;" glyph-name="save" d="M873.6 621.334l-135.467 158.667c-10.114 12.633-25.417 19.99-41.6 20h-504.533c-29.455 0-53.333-23.878-53.333-53.333v-640c0-29.455 23.878-53.333 53.333-53.333h640c29.455 0 53.333 23.878 53.333 53.333v481.333c-0.009 12.122-4.148 23.878-11.733 33.333zM410.667 746.667h245.333v-122.667h-245.333v122.667zM656 106.667h-245.333v245.333h245.333v-245.333zM709.333 106.667v245.333c0 29.455-23.878 53.333-53.333 53.333h-245.333c-29.455 0-53.333-23.878-53.333-53.333v-245.333h-165.333v640h165.333v-122.667c0-29.455 23.878-53.333 53.333-53.333h245.333c29.455 0 53.333 23.878 53.333 53.333v106.667l122.667-142.667v-481.333h-122.667z" />
<glyph unicode="&#xe985;" glyph-name="save_as" d="M660.267 450.667l-92.8 116c-10.114 12.633-25.417 19.99-41.6 20h-333.867c-29.455 0-53.333-23.878-53.333-53.333v-426.667c0-29.455 23.878-53.333 53.333-53.333h426.667c29.455 0 53.333 23.878 53.333 53.333v310.667c-0.009 12.122-4.148 23.878-11.733 33.333zM325.333 533.334h160v-80h-160v80zM485.333 106.667h-160v160h160v-160zM538.667 106.667v160c0 29.455-23.878 53.333-53.333 53.333h-160c-29.455 0-53.333-23.878-53.333-53.333v-160h-80v426.667h80v-80c0-29.455 23.878-53.333 53.333-53.333h160c29.455 0 53.333 23.878 53.333 53.333v64l80-100v-310.667h-80zM832 320h-80v53.333h80v373.333h-373.333v-80h-53.333v80c0 29.455 23.878 53.333 53.333 53.333h373.333c29.455 0 53.333-23.878 53.333-53.333v-373.333c0-29.455-23.878-53.333-53.333-53.333z" />
<glyph unicode="&#xe986;" glyph-name="scope" d="M218.667 186.667v244.587l-95.627-95.627-37.707 37.707 160 160 160-160-37.707-37.707-95.627 95.627v-244.587h320v-53.333h-320c-29.443 0.029-53.304 23.89-53.333 53.333zM725.333 266.667h106.667c29.443-0.029 53.304-23.89 53.333-53.333v-106.667c-0.029-29.443-23.89-53.304-53.333-53.333h-106.667c-29.443 0.029-53.304 23.89-53.333 53.333v106.667c0.029 29.443 23.89 53.304 53.333 53.333v0zM832 106.667v106.667h-106.72l0.053-106.667h106.667zM805.333 693.334v-244.587l95.627 95.627 37.707-37.707-160-160-160 160 37.707 37.707 95.627-95.627v244.587h-320v53.333h320c29.443-0.029 53.304-23.89 53.333-53.333zM138.667 693.334h160v-53.333h-160v53.333zM138.667 800h213.333v-53.333h-213.333v53.333z" />
<glyph unicode="&#xe987;" glyph-name="search" d="M885.333 90.934l-201.333 202.4c99.982 120.636 87.506 298.549-28.333 404.051s-294.142 101.34-404.933-9.451c-110.791-110.791-114.953-289.093-9.451-404.933s283.415-128.316 404.051-28.333l202.4-201.333 37.6 37.6zM218.667 480c0 132.548 107.452 240 240 240s240-107.452 240-240c0-132.548-107.452-240-240-240s-240 107.452-240 240z" />
<glyph unicode="&#xe988;" glyph-name="select" d="M752 496c-13.777-0.050-27.298-3.729-39.2-10.667-14.612 23.176-40.069 37.263-67.467 37.333-13.777-0.050-27.298-3.729-39.2-10.667-19.978 31.436-59.008 44.925-94.133 32.533v138.133c0 44.183-35.817 80-80 80s-80-35.817-80-80v-296l-59.467 40.533c-13.632 10.152-30.203 15.582-47.2 15.467-32.453 0.080-61.738-19.453-74.133-49.446s-5.442-64.501 17.599-87.354l213.333-194.667c30.203-27.033 69.333-41.944 109.867-41.867h133.333c103.093 0 186.667 83.574 186.667 186.667v160c0 44.183-35.817 80-80 80zM778.667 256c0-73.638-59.695-133.333-133.333-133.333h-133.333c-26.955-0.326-53.11 9.151-73.6 26.667l-212 194.667c-4.927 4.967-7.704 11.671-7.733 18.667 0 10.101 5.707 19.334 14.741 23.851s19.845 3.542 27.926-2.518l144-98.667v397.333c0 14.728 11.939 26.667 26.667 26.667s26.667-11.939 26.667-26.667v-293.333h53.333v80c0 14.728 11.939 26.667 26.667 26.667s26.667-11.939 26.667-26.667v-80h53.333v53.333c0 14.728 11.939 26.667 26.667 26.667s26.667-11.939 26.667-26.667v-53.333h53.333v26.667c0 14.728 11.939 26.667 26.667 26.667s26.667-11.939 26.667-26.667v-160z" />
<glyph unicode="&#xe989;" glyph-name="shelf" d="M805.333 816c29.455 0 53.333-23.878 53.333-53.333v0-586.667c0-1.812-0.090-3.603-0.267-5.368l0.267 0.035v-128h-53.333v80h-586.667v-80h-53.333v128h0.256l-0.256 5.333v586.667c0 29.455 23.878 53.333 53.333 53.333v0zM805.333 282.667h-586.667v-106.667h586.667v106.667zM805.333 442.667h-586.667v-106.667h586.667v106.667zM805.333 602.667h-586.667v-106.667h586.667v106.667zM805.333 762.667h-586.667v-106.667h586.667v106.667z" />
<glyph unicode="&#xe98a;" glyph-name="shelf-bays" d="M805.333 816c29.455 0 53.333-23.878 53.333-53.333v0-586.667c0-1.812-0.090-3.603-0.267-5.368l0.267 0.035v-128h-53.333v80h-586.667v-80h-53.333v128h0.256l-0.256 5.333v586.667c0 29.455 23.878 53.333 53.333 53.333v0zM485.333 362.667h-266.667v-186.667h266.667v186.667zM805.333 362.667h-266.667v-186.667h266.667v186.667zM805.333 602.667h-266.667v-186.667h266.667v186.667zM485.333 602.667h-266.667v-186.667h266.667v186.667zM805.333 762.667h-586.667v-106.667h586.667v106.667z" />
<glyph unicode="&#xe98b;" glyph-name="shelf_foundation" d="M810.667 554.667c27.614 0 50.327-20.987 53.058-47.88l0.275-5.453v-117.333l-0.299-5.333h0.299v-128h-53.333v80h-586.667v-80h-53.333v128h0.256l-0.256 5.333v117.333c0 27.614 20.987 50.327 47.88 53.058l5.453 0.275h586.667zM810.667 501.334h-586.667v-117.333h586.667v117.333z" />
<glyph unicode="&#xe98c;" glyph-name="shuffle" d="M687.733 335.734l95.467-95.733h-176.533l-116.533 186.667 116.533 186.667h176.533l-95.467-95.733 37.6-37.6 160 160-160 160-37.6-37.6 95.467-95.733h-176.533c-18.332-0.055-35.351-9.521-45.067-25.067l-102.933-164.533-102.933 164.533c-9.716 15.546-26.735 25.012-45.067 25.067h-172v-53.333h172l116.533-186.667-116.533-186.667h-172v-53.333h172c18.332 0.055 35.351 9.521 45.067 25.067l102.933 164.533 102.933-164.533c9.716-15.546 26.735-25.012 45.067-25.067h176.533l-95.467-95.733 37.6-37.6 160 160-160 160-37.6-37.6z" />
<glyph unicode="&#xe98d;" glyph-name="simulate" d="M811.493 223.52l-192.827 265.147v258h53.333v53.333h-320v-53.333h53.333v-258l-192.827-265.147c-23.716-32.595-27.132-75.742-8.84-111.662s55.197-58.535 95.507-58.524h425.627c40.31-0.010 77.214 22.604 95.507 58.524s14.876 79.068-8.84 111.662h0.027zM458.667 471.334v275.333h106.667v-275.333l71.28-98h-249.227l71.28 98zM724.827 106.667h-425.627c-20.238 0.022-38.755 11.385-47.941 29.418s-7.488 39.693 4.394 56.075l92.96 127.84h326.773l92.987-127.84c11.882-16.382 13.579-38.042 4.394-56.075s-27.703-29.396-47.941-29.418z" />
<glyph unicode="&#xe98e;" glyph-name="smartsite3d" d="M533.542 840.734l328.348-192.051c13.084-7.653 21.125-21.672 21.125-36.829v-370.373c0-15.157-8.041-29.177-21.125-36.829l-328.348-192.051c-13.307-7.783-29.777-7.783-43.083 0l-328.348 192.051c-13.084 7.653-21.125 21.672-21.125 36.829v370.373c0 15.157 8.041 29.177 21.125 36.829l328.348 192.051c13.307 7.783 29.777 7.783 43.083 0zM194.276 577.046l0.043-329.447 290.987-170.18 0.006 354.112-291.035 145.514zM829.668 577.046l-291.023-145.557-0.006-354.070 291.042 170.18-0.013 329.447zM512 791.547l-289.222-169.104 289.243-144.618 289.146 144.618-289.167 169.104z" />
<glyph unicode="&#xe98f;" glyph-name="snap" d="M832 613.334h-373.333v80h-213.333v-213.333h80v-373.333h53.333v373.333h80v80h373.333v53.333zM405.333 533.334h-106.667v106.667h106.667v-106.667z" />
<glyph unicode="&#xe990;" glyph-name="speaker_loud" d="M809.6 637.867l-40.8-34.4c86.728-102.735 83.413-253.964-7.733-352.8l39.2-37.333c109.453 118.605 113.455 300.154 9.333 423.467v1.067zM660.8 533.334c52.024-61.689 49.966-152.465-4.8-211.733l39.2-36.267c72.995 79.106 75.625 200.199 6.133 282.4l-40.533-34.4zM565.333 53.334c-7.127 0.030-13.945 2.911-18.933 8l-203.2 205.333h-177.867c-14.728 0-26.667 11.939-26.667 26.667v266.667c0 14.728 11.939 26.667 26.667 26.667h177.867l203.2 205.333c10.401 10.339 27.199 10.339 37.6 0 5.024-4.923 7.9-11.633 8-18.667v-693.333c0-14.728-11.939-26.667-26.667-26.667v0zM192 320h162.133c7.127-0.030 13.945-2.911 18.933-8l165.6-167.2v563.733l-165.6-167.2c-4.989-5.089-11.807-7.97-18.933-8h-162.133v-213.333z" />
<glyph unicode="&#xe991;" d="M565.333 53.334c-7.127 0.030-13.945 2.911-18.933 8l-203.2 205.333h-177.867c-14.728 0-26.667 11.939-26.667 26.667v266.667c0 14.728 11.939 26.667 26.667 26.667h177.867l203.2 205.333c10.401 10.339 27.199 10.339 37.6 0 5.024-4.923 7.9-11.633 8-18.667v-693.333c0-14.728-11.939-26.667-26.667-26.667v0zM192 320h160c7.774 0.051 15.286-2.802 21.067-8l165.6-167.2v563.733l-165.6-167.2c-5.78-5.198-13.293-8.051-21.067-8h-160v-213.333z" />
<glyph unicode="&#xe992;" d="M912 522.4l-37.6 37.6-95.733-95.733-95.733 95.733-37.6-37.6 95.733-95.733-95.733-95.733 37.6-37.6 95.733 95.733 95.733-95.733 37.6 37.6-95.733 95.733z" />
<glyph unicode="&#xe993;" glyph-name="split" d="M485.333 746.667h53.333v-640h-53.333v640zM352 666.667v-480h-160v480h160zM352 720h-160c-29.455 0-53.333-23.878-53.333-53.333v-480c0-29.455 23.878-53.333 53.333-53.333h160c29.455 0 53.333 23.878 53.333 53.333v480c0 29.455-23.878 53.333-53.333 53.333zM832 666.667v-480h-160v480h160zM832 720h-160c-29.455 0-53.333-23.878-53.333-53.333v-480c0-29.455 23.878-53.333 53.333-53.333h160c29.455 0 53.333 23.878 53.333 53.333v480c0 29.455-23.878 53.333-53.333 53.333z" />
<glyph unicode="&#xe994;" glyph-name="sqw" d="M810.667 810.667c29.455 0 53.333-23.878 53.333-53.333v0-586.667c0-29.455-23.878-53.333-53.333-53.333v0h-16.213l-0.008-1.239c-3.378-49.954-44.968-89.427-95.779-89.427-51.226 0-93.081 40.123-95.854 90.656l-171.026 0.010-0.008-1.239c-3.378-49.954-44.968-89.427-95.779-89.427-51.226 0-93.081 40.123-95.854 90.656l-16.146 0.010c-29.455 0-53.333 23.878-53.333 53.333v0 586.667c0 29.455 23.878 53.333 53.333 53.333v0zM336 165.334c-23.564 0-42.667-19.103-42.667-42.667s19.103-42.667 42.667-42.667c23.564 0 42.667 19.103 42.667 42.667s-19.103 42.667-42.667 42.667zM698.667 165.334c-23.564 0-42.667-19.103-42.667-42.667s19.103-42.667 42.667-42.667c23.564 0 42.667 19.103 42.667 42.667s-19.103 42.667-42.667 42.667zM490.667 352h-266.667v-170.667l36.003-0.004c17.557 22.712 45.069 37.337 75.997 37.337s58.44-14.625 75.997-37.337l78.669 0.004v170.667zM810.667 352h-266.667v-170.667l78.669-0.004c17.557 22.712 45.069 37.337 75.997 37.337s58.44-14.625 75.997-37.337l36.003 0.004v170.667zM810.667 533.334h-266.667v-128h266.667v128zM490.667 533.334h-266.667v-128h266.667v128zM810.667 757.334h-266.667v-170.667h266.667v170.667zM490.667 757.334h-266.667v-170.667h266.667v170.667z" />
<glyph unicode="&#xe995;" glyph-name="station_assembly" d="M854.133 288.8l-102.133 101.333 17.867 17.867c10.339 10.401 10.339 27.199 0 37.6l-160 160c-10.401 10.339-27.199 10.339-37.6 0l-21.067-21.067-180.267 181.067c-10.401 10.339-27.199 10.339-37.6 0l-106.667-106.667-3.2-4-106.667-160c-7.059-10.536-5.721-24.586 3.2-33.6l80-80c5.007-5.048 11.823-7.888 18.933-7.888s13.926 2.84 18.933 7.888l114.133 114.4 55.733-55.733-128-127.733c-10.339-10.401-10.339-27.199 0-37.6l53.333-53.333c4.989-5.089 11.807-7.97 18.933-8 4.902 0.033 9.7 1.417 13.867 4l115.467 69.333 65.067-65.333c10.401-10.339 27.199-10.339 37.6 0l17.867 18.667 101.067-102.133c41.679-41.679 109.254-41.679 150.933 0s41.679 109.254 0 150.933h0.267zM352 571.2l-133.333-133.333-45.6 45.6 93.067 139.733 85.867 85.867 162.4-162.4-69.067-68.8-93.333 93.333zM565.333 277.867l-75.733 75.733-133.333-80-19.733 19.733 255.467 255.733 122.4-122.4-149.067-148.8zM816.533 175.734c-10.004-10.015-23.578-15.642-37.733-15.642s-27.73 5.627-37.733 15.642l-101.333 101.067 75.467 75.467 101.333-101.067c10.015-10.004 15.642-23.578 15.642-37.733s-5.627-27.73-15.642-37.733v0z" />
<glyph unicode="&#xe996;" glyph-name="station_charging" d="M239.681 364.364l-2.072-3.382c-8.922-17.236 3.437-38.784 23.772-38.784l215.296 0.028-54.893-247.229c-6.301-28.356 30.848-44.922 47.731-21.284l310.725 435.014 2.072 3.382c8.922 17.236-3.437 38.784-23.772 38.784l-215.346 0.015 54.943 247.186c6.301 28.356-30.848 44.922-47.731 21.284l-310.725-435.014zM517.636 661.767l-33.708-151.755-0.569-3.821c-1.156-15.169 10.853-28.63 26.6-28.63l196.732 0.015-204.416-286.165 33.715 151.67 0.569 3.821c1.156 15.169-10.853 28.63-26.6 28.63l-196.782 0.028 204.459 286.208z" />
<glyph unicode="&#xe997;" glyph-name="station_picking" d="M517.333 853.334c37.239 0 69.234-22.45 83.189-54.554 13.195 7.58 28.5 11.887 44.811 11.887 50.074 0 90.667-40.593 90.667-90.667v0l0.025-2.674c11.379 5.144 24.009 8.007 37.308 8.007 50.074 0 90.667-40.593 90.667-90.667v0-384c0-132.548-107.452-240-240-240v0h-142.293c-152.833 0-311.040 163.69-311.040 282.667v0 170.667c0 24.046 9.552 47.108 26.556 64.111s40.065 26.556 64.111 26.556v0h37.333v165.333c0 47.897 37.14 87.119 84.192 90.439l6.475 0.228c16.311 0 31.616-4.307 44.839-11.846 13.927 32.063 45.922 54.513 83.161 54.513zM682.667 720c0 20.619-16.715 37.333-37.333 37.333s-37.333-16.715-37.333-37.333v0-213.333h-53.333v256c0 20.619-16.715 37.333-37.333 37.333s-37.333-16.715-37.333-37.333v0-256h-53.333v213.333c0 20.619-16.715 37.333-37.333 37.333s-37.333-16.715-37.333-37.333v0-384h-53.333v165.333h-37.333c-8.251 0-16.221-2.731-22.7-7.694l-3.699-3.241c-7.001-7.001-10.935-16.497-10.935-26.399v0-170.667c0-89.92 134.743-229.333 257.707-229.333v0h142.293c103.093 0 186.667 83.574 186.667 186.667v0 384c0 20.619-16.715 37.333-37.333 37.333s-37.333-16.715-37.333-37.333v0-170.667h-53.333z" />
<glyph unicode="&#xe998;" glyph-name="station_product_handling" d="M544.076 746.656c0.444-17.985 2.86-35.875 7.203-53.353l-145.946 0.031v-106.667l201.899 0.003 38.912-53.333-454.144-0.003v-373.333h640v205.869l53.333 72.96v-278.829c0-27.614-20.987-50.327-47.88-53.058l-5.453-0.275h-640c-29.455 0-53.333 23.878-53.333 53.333v0 373.333c0 29.455 23.878 53.333 53.333 53.333v0h160v106.667c0 29.455 23.878 53.333 53.333 53.333v0zM800.173 885.336c82.983-0.81 149.676-67.785 149.158-149.789 0.015-34.36-11.823-67.699-33.561-94.516l-115.598-161.028-113.547 158.448c-37.937 44.262-46.644 106.173-22.357 158.98s77.211 87.039 135.903 87.905z" />
<glyph unicode="&#xe999;" glyph-name="station_scanning" d="M645.333 80h-426.667c-29.455 0-53.333 23.878-53.333 53.333v586.667c0 29.455 23.878 53.333 53.333 53.333h426.667v-53.333h-426.667v-586.667h426.667v-53.333zM485.333 613.334h53.333v-373.333h-53.333v373.333zM805.333 613.334h53.333v-373.333h-53.333v373.333zM645.333 613.334h53.333v-373.333h-53.333v373.333z" />
<glyph unicode="&#xe99a;" glyph-name="station_service" d="M408 800.002c-51.141 0.173-101.209-14.662-144-42.668l170.667-170.667c11.483-9.797 18.524-23.815 19.528-38.876s-4.114-29.889-14.195-41.124c-11.235-10.081-26.063-15.199-41.124-14.195s-29.079 8.046-38.876 19.528l-176 170.667c-30.43-44.777-46.264-97.87-45.333-152 0.585-148.506 120.827-268.749 269.333-269.333 23.349-0.128 46.627 2.558 69.333 8l178.667-178.667c52.283-52.283 137.050-52.283 189.333 0s52.283 137.050 0 189.333l-178.667 178.667c5.442 22.706 8.128 45.985 8 69.333 1.433 71.644-26.028 140.85-76.194 192.019s-118.815 79.995-190.473 79.982zM621.333 530.667c-0.039-18.949-2.732-37.798-8-56l-8-29.333 200-200c15.379-14.559 24.063-34.823 24-56 0.608-21.285-8.168-41.761-24-56-14.596-15.326-34.836-24-56-24s-41.404 8.674-56 24l-200 200-29.333-8c-18.202-5.268-37.051-7.961-56-8-56.665 0.157-111.095 22.12-152 61.333-41.832 39.362-65.078 94.571-64 152 0.037 19.825 2.727 39.556 8 58.667l117.333-117.333c20.028-21.794 47.968-34.633 77.549-35.636s58.327 9.915 79.784 30.302c20.388 21.457 31.305 50.203 30.302 79.784s-13.842 57.522-35.636 77.549l-117.333 117.333c17.247 5.454 35.245 8.154 53.333 8.006 56.665-0.164 111.095-22.127 152-61.34 40.943-42.151 63.893-98.571 64-157.333v0z" />
<glyph unicode="&#xe99b;" glyph-name="steps" d="M628.591 226.096l113.335-30.368c17.071-4.574 27.202-22.121 22.627-39.192l-15.184-56.668c-12.96-48.368-62.676-77.071-111.044-64.111s-77.071 62.676-64.111 111.044l15.184 56.668c4.574 17.071 22.121 27.202 39.192 22.627zM635.393 169.059l-9.663-36.061c-5.336-19.916 6.483-40.387 26.399-45.724s40.387 6.483 45.724 26.399l9.663 36.061-72.122 19.325zM634 547.109c16.466 61.451 79.63 97.919 141.081 81.453v0l7.581-2.287 6.998-2.579c61.902-24.875 94.374-94.056 72.849-158.104v0l-73.373-218.323c-5.383-16.018-22.293-25.089-38.615-20.715v0l-114.523 30.686c-14.874 3.986-24.8 18-23.624 33.354v0l18.039 235.499c0.544 7.101 1.745 14.137 3.589 21.016zM422.877 439.429c17.071 4.574 34.618-5.557 39.192-22.627v0l15.184-56.668c12.96-48.368-15.743-98.083-64.111-111.044s-98.083 15.743-111.044 64.111v0l-15.184 56.668c-4.574 17.071 5.557 34.618 22.627 39.192v0zM761.278 577.046c-33 8.842-66.919-10.741-75.761-43.741-0.99-3.694-1.635-7.472-1.927-11.286v0l-16.687-217.845 78.063-20.917 66.989 199.325c12.939 38.5-7.782 80.199-46.282 93.138-1.451 0.487-2.916 0.93-4.394 1.326zM416.074 382.392l-72.122-19.325 9.663-36.061c5.336-19.916 25.808-31.735 45.724-26.399s31.735 25.808 26.399 45.724v0l-9.663 36.061zM417.467 760.442c1.843-6.879 3.045-13.915 3.589-21.016l18.039-235.499c1.176-15.354-8.75-29.368-23.624-33.354l-114.523-30.686c-16.322-4.374-33.232 4.698-38.615 20.715l-73.373 218.323c-21.525 64.048 10.947 133.229 72.849 158.104l6.998 2.579 7.581 2.287c61.451 16.466 124.615-20.002 141.081-81.453zM290.19 790.379c-1.478-0.396-2.943-0.838-4.394-1.326-38.5-12.939-59.221-54.638-46.282-93.138l66.989-199.325 78.063 20.917-16.687 217.845c-0.292 3.813-0.937 7.591-1.927 11.286-8.842 33-42.762 52.583-75.761 43.741z" />
<glyph unicode="&#xe99c;" glyph-name="stop" d="M725.333 693.334h-426.667c-29.455 0-53.333-23.878-53.333-53.333v-426.667c0-29.455 23.878-53.333 53.333-53.333h426.667c29.455 0 53.333 23.878 53.333 53.333v426.667c0 29.455-23.878 53.333-53.333 53.333z" />
<glyph unicode="&#xe99d;" glyph-name="sync_update" d="M725.333 773.334h-426.667c-29.455 0-53.333-23.878-53.333-53.333v-586.667c0-29.455 23.878-53.333 53.333-53.333h426.667c29.455 0 53.333 23.878 53.333 53.333v586.667c0 29.455-23.878 53.333-53.333 53.333zM725.333 720v-160h-426.667v160h426.667zM298.667 346.667v160h426.667v-160h-426.667zM298.667 133.334v160h426.667v-160h-426.667zM378.667 613.334c14.728 0 26.667 11.939 26.667 26.667s-11.939 26.667-26.667 26.667c-14.728 0-26.667-11.939-26.667-26.667s11.939-26.667 26.667-26.667zM378.667 400c14.728 0 26.667 11.939 26.667 26.667s-11.939 26.667-26.667 26.667c-14.728 0-26.667-11.939-26.667-26.667s11.939-26.667 26.667-26.667zM378.667 186.667c14.728 0 26.667 11.939 26.667 26.667s-11.939 26.667-26.667 26.667c-14.728 0-26.667-11.939-26.667-26.667s11.939-26.667 26.667-26.667z" />
<glyph unicode="&#xe99e;" glyph-name="table" d="M858.667 720c0 29.455-23.878 53.333-53.333 53.333h-586.667c-29.455 0-53.333-23.878-53.333-53.333v-586.667c0-29.455 23.878-53.333 53.333-53.333h586.667c29.455 0 53.333 23.878 53.333 53.333v586.667zM805.333 720v-106.667h-586.667v106.667h586.667zM805.333 133.334h-586.667v106.667h586.667v-106.667zM805.333 293.334h-586.667v106.667h586.667v-106.667zM805.333 453.334h-586.667v106.667h586.667v-106.667z" />
<glyph unicode="&#xe99f;" glyph-name="task" d="M458.667 315.2l-95.733 95.733-37.6-37.6 133.333-133.333 240 240-37.6 37.867-202.4-202.667zM752 720h-80v26.667c0 29.455-23.878 53.333-53.333 53.333h-213.333c-29.455 0-53.333-23.878-53.333-53.333v-26.667h-80c-29.455 0-53.333-23.878-53.333-53.333v-560c0-29.455 23.878-53.333 53.333-53.333h480c29.455 0 53.333 23.878 53.333 53.333v560c0 29.455-23.878 53.333-53.333 53.333zM405.333 746.667h213.333v-106.667h-213.333v106.667zM752 106.667h-480v560h80v-80h320v80h80v-560z" />
<glyph unicode="&#xe9a0;" glyph-name="thaw" d="M571.524 759.241c9.89-10.913 9.062-27.777-1.851-37.667-43.844-39.737-71.206-94.461-76.575-150.908 0-37.605 8.971-69.596 35.832-137.695l15.226-38.54c25.365-65.63 34.263-100.42 34.161-146.239-6.728-72.195-40.256-139.25-93.975-187.949-10.911-9.892-27.775-9.065-37.667 1.846s-9.065 27.775 1.846 37.667c43.84 39.743 71.202 94.467 76.577 150.91 0 37.605-8.97 69.596-35.831 137.695l-15.226 38.54c-25.365 65.63-34.263 100.42-34.161 146.236 6.719 72.199 40.249 139.26 93.977 187.955 10.913 9.89 27.777 9.062 37.667-1.851zM328.63 695.234c9.886-10.916 9.051-27.78-1.865-37.666-31.772-28.774-52.523-67.577-58.825-107.797l-1.273-10.080 0.096-5.808c0.904-26.941 8.337-52.253 28.019-102.219l13.755-34.863c19.931-51.86 26.979-80.084 26.878-117.681-5.558-59.506-33.215-114.769-77.515-154.886-10.917-9.886-27.78-9.050-37.666 1.866s-9.050 27.78 1.866 37.666c34.412 31.162 55.895 74.090 60.097 117.834 0 29.277-7.032 54.535-28.116 108.061l-13.756 34.86c-18.512 48.13-25.918 75.647-26.881 107.685l-0.11 7.485 0.115 2.474c5.546 59.523 33.204 114.805 77.515 154.934 10.916 9.886 27.78 9.051 37.666-1.865zM797.959 695.238c9.889-10.914 9.057-27.778-1.857-37.667-34.414-31.181-55.899-74.123-60.102-117.881 0-29.26 7.029-54.507 28.116-108.043l13.755-34.868c19.933-51.868 26.978-80.079 26.876-117.665-5.571-59.498-33.224-114.753-77.51-154.876-10.914-9.888-27.778-9.057-37.667 1.858s-9.057 27.778 1.858 37.667c34.406 31.172 55.89 74.099 60.102 117.838 0 29.26-7.029 54.507-28.116 108.043l-13.755 34.868c-19.933 51.868-26.978 80.078-26.877 117.66 5.56 59.516 33.213 114.789 77.51 154.924 10.914 9.889 27.778 9.057 37.667-1.857z" />
<glyph unicode="&#xe9a1;" glyph-name="trafficlight" d="M618.667 816c38.292 0 69.333-31.042 69.333-69.333v-16h58.667v-53.333h-58.667v-160h58.667v-53.333h-58.667v-160h58.667v-53.333h-58.667v-144c0-38.292-31.042-69.333-69.333-69.333h-213.333c-38.292 0-69.333 31.042-69.333 69.333v144h-58.667v53.333h58.667v160h-58.667v53.333h58.667v160h-58.667v53.333h58.667v16c0 38.292 31.042 69.333 69.333 69.333h213.333zM618.667 762.667h-213.333c-8.837 0-16-7.163-16-16v-640c0-8.837 7.163-16 16-16h213.333c8.837 0 16 7.163 16 16v640c0 8.837-7.163 16-16 16zM512 304c50.074 0 90.667-40.593 90.667-90.667s-40.593-90.667-90.667-90.667c-50.074 0-90.667 40.593-90.667 90.667s40.593 90.667 90.667 90.667zM512 250.667c-20.619 0-37.333-16.715-37.333-37.333s16.715-37.333 37.333-37.333c20.619 0 37.333 16.715 37.333 37.333s-16.715 37.333-37.333 37.333zM512 517.334c50.074 0 90.667-40.593 90.667-90.667s-40.593-90.667-90.667-90.667c-50.074 0-90.667 40.593-90.667 90.667s40.593 90.667 90.667 90.667zM512 464c-20.619 0-37.333-16.715-37.333-37.333s16.715-37.333 37.333-37.333c20.619 0 37.333 16.715 37.333 37.333s-16.715 37.333-37.333 37.333zM512 730.667c50.074 0 90.667-40.593 90.667-90.667s-40.593-90.667-90.667-90.667c-50.074 0-90.667 40.593-90.667 90.667s40.593 90.667 90.667 90.667zM512 677.334c-20.619 0-37.333-16.715-37.333-37.333s16.715-37.333 37.333-37.333c20.619 0 37.333 16.715 37.333 37.333s-16.715 37.333-37.333 37.333z" />
<glyph unicode="&#xe9a2;" d="M704 773.334c38.292 0 69.333-31.042 69.333-69.333v-554.667c0-38.292-31.042-69.333-69.333-69.333h-384c-38.292 0-69.333 31.042-69.333 69.333v554.667c0 38.292 31.042 69.333 69.333 69.333h384zM704 720h-384c-8.837 0-16-7.163-16-16v-554.667c0-8.837 7.163-16 16-16h384c8.837 0 16 7.163 16 16v554.667c0 8.837-7.163 16-16 16zM512 666.667c61.856 0 112-50.144 112-112s-50.144-112-112-112c-61.856 0-112 50.144-112 112s50.144 112 112 112zM512 613.334c-32.401 0-58.667-26.266-58.667-58.667s26.266-58.667 58.667-58.667c32.401 0 58.667 26.266 58.667 58.667s-26.266 58.667-58.667 58.667z" />
<glyph unicode="&#xe9a3;" d="M512 410.667c-61.856 0-112-50.144-112-112s50.144-112 112-112c61.856 0 112 50.144 112 112s-50.144 112-112 112z" />
<glyph unicode="&#xe9a4;" d="M704 773.334c38.292 0 69.333-31.042 69.333-69.333v-554.667c0-38.292-31.042-69.333-69.333-69.333h-384c-38.292 0-69.333 31.042-69.333 69.333v554.667c0 38.292 31.042 69.333 69.333 69.333h384zM704 720h-384c-8.837 0-16-7.163-16-16v-554.667c0-8.837 7.163-16 16-16h384c8.837 0 16 7.163 16 16v554.667c0 8.837-7.163 16-16 16zM512 410.667c61.856 0 112-50.144 112-112s-50.144-112-112-112c-61.856 0-112 50.144-112 112s50.144 112 112 112zM512 357.334c-32.401 0-58.667-26.266-58.667-58.667s26.266-58.667 58.667-58.667c32.401 0 58.667 26.266 58.667 58.667s-26.266 58.667-58.667 58.667z" />
<glyph unicode="&#xe9a5;" d="M512 666.667c-61.856 0-112-50.144-112-112s50.144-112 112-112c61.856 0 112 50.144 112 112s-50.144 112-112 112z" />
<glyph unicode="&#xe9a6;" glyph-name="type_agv" d="M710.912 384.015l1.54-1.558 1.319 1.558 150.229-0.015c27.614 0 50.327-20.987 53.058-47.88l0.275-5.453v-160c0-27.614-20.987-50.327-47.88-53.058l-5.453-0.275-32.589-0.024c-5.317-47.988-46.006-85.309-95.411-85.309s-90.095 37.321-95.411 85.309h-257.177c-5.317-47.988-46.006-85.309-95.411-85.309s-90.095 37.321-95.411 85.309l-32.589 0.024c-27.614 0-50.327 20.987-53.058 47.88l-0.275 5.453v160c0 27.614 20.987 50.327 47.88 53.058l5.453 0.275 550.912 0.015zM288 170.667c-23.564 0-42.667-19.103-42.667-42.667s19.103-42.667 42.667-42.667c23.564 0 42.667 19.103 42.667 42.667s-19.103 42.667-42.667 42.667zM736 170.667c-23.564 0-42.667-19.103-42.667-42.667s19.103-42.667 42.667-42.667c23.564 0 42.667 19.103 42.667 42.667s-19.103 42.667-42.667 42.667zM864 330.667h-704v-160l41.964-0.030c15.703 31.626 48.331 53.363 86.036 53.363s70.333-21.737 86.036-53.363h275.928c15.703 31.626 48.331 53.363 86.036 53.363s70.333-21.737 86.036-53.363l41.964 0.030v160zM855.261 888.25l37.874-37.879c-8.071-10.469-12.669-23.713-12.144-37.956l0.813-22.611 22.659-0.862c14.243-0.525 27.487 4.073 37.956 12.144l37.879-37.874c-18.926-16.536-43.421-26.772-70.128-27.591l-7.673 0.024-18.703 0.698 1.228-33.312c0.101-2.75 0.101-5.503 0-8.252-2.279-61.814-54.236-110.077-116.050-107.798l-33.342 1.198 0.728-18.673 0.064-5.768c-0.405-27.617-10.772-52.753-27.631-72.037l-37.878 37.874c6.246 8.095 10.427 17.873 11.744 28.558l0.438 6.387-0.955 25.62-25.571 0.907c-13.161-0.193-25.246-4.705-34.926-12.167l-37.893 37.864c19.283 16.859 44.419 27.226 72.037 27.631l5.768-0.064 18.654-0.71-1.18 33.324c-2.184 59.238 42.050 109.424 100.144 115.509l7.653 0.541 4.126 0.076 4.126-0.076 33.294-1.21-0.68 18.685c-1.094 29.673 9.459 57.075 27.566 77.8zM483.621 611.329l53.725-53.751c-8.287 1.605-16.77 2.43-25.346 2.43-37.987 0-74.17-16.203-99.467-44.541l-39.733 35.733c29.041 32.504 68.315 53.591 110.821 60.128zM512 746.667c34.067 0 67.401-5.918 98.687-17.098l-2.017-8.11-1.735-8.867-0.122-0.646-1.84-0.508-11.082-3.591c-13.295-4.772-25.902-11.006-37.66-18.587-14.422 2.673-29.239 4.073-44.229 4.073-75.542 0-146.675-35.567-192-96l-42.667 32c55.397 73.863 142.338 117.333 234.667 117.333zM793.115 739.678h-4.323c-30.355-1.119-54.471-25.109-56.384-54.783l-0.082-6.005 1.313-37.25 37.298-1.362c32.379-1.194 59.595 24.087 60.788 56.465v4.323l-1.392 37.268-37.22 1.344z" />
<glyph unicode="&#xe9a7;" glyph-name="type_buffer_shelf" d="M858.694 532.979l-0.027-356.979c0-1.812-0.090-3.603-0.267-5.368l0.267 0.035v-128h-53.333v80h-586.667v-80h-53.333v128h0.256l-0.256 5.333v208h53.333v-48h122.667v-53.333h-122.667v-106.667h586.667v106.667h-165.333v53.333h165.333v179.074l9.62 1.866c14.791 3.391 28.935 8.549 42.189 15.246l1.552 0.793zM469.333 629.334l160-160-160-160-37.6 37.6 95.467 95.733h-356.533v53.333h356.533l-95.467 95.733 37.6 37.6zM855.261 888.25l37.874-37.879c-8.071-10.469-12.669-23.713-12.144-37.956l0.813-22.611 22.659-0.862c14.243-0.525 27.487 4.073 37.956 12.144l37.879-37.874c-18.926-16.536-43.421-26.772-70.128-27.591l-7.673 0.024-18.703 0.698 1.228-33.312c0.101-2.75 0.101-5.503 0-8.252-2.279-61.814-54.236-110.077-116.050-107.798l-33.342 1.198 0.728-18.673 0.064-5.768c-0.405-27.617-10.772-52.753-27.631-72.037l-37.878 37.874c6.246 8.095 10.427 17.873 11.744 28.558l0.438 6.387-0.955 25.62-25.571 0.907c-13.161-0.193-25.246-4.705-34.926-12.167l-37.893 37.864c19.283 16.859 44.419 27.226 72.037 27.631l5.768-0.064 18.654-0.71-1.18 33.324c-2.184 59.238 42.050 109.424 100.144 115.509l7.653 0.541 4.126 0.076 4.126-0.076 33.294-1.21-0.68 18.685c-1.094 29.673 9.459 57.075 27.566 77.8zM662.010 816.045l-3.027-2.961c-14.454-14.461-26.518-31.257-35.607-49.727l-0.351-0.717-404.358 0.027v-106.667h122.667v-53.333h-122.667v-48h-53.333v208c0 27.614 20.987 50.327 47.88 53.058l5.453 0.275 443.343 0.044zM793.115 739.678h-4.323c-30.355-1.119-54.471-25.109-56.384-54.783l-0.082-6.005 1.313-37.25 37.298-1.362c32.379-1.194 59.595 24.087 60.788 56.465v4.323l-1.392 37.268-37.22 1.344z" />
<glyph unicode="&#xe9a8;" glyph-name="type_container" d="M616.183 746.748c-2.748-7.302-5.050-14.814-6.875-22.5l-2.375-11.655-0.122-0.646-1.84-0.508-11.082-3.591c-10.822-3.884-21.189-8.738-31.013-14.498l-370.877-0.016v-106.667l316.16 0.038 53.333-53.333-316.16-0.038v-426.667h533.333l0.048 353.618c8.733 12.801 15.828 26.624 21.126 41.165l3.635 11.036 0.587 2.33 10.89 2.124c5.799 1.33 11.499 2.931 17.085 4.79l-0.038-415.063c0-27.614-20.987-50.327-47.88-53.058l-5.453-0.275h-533.333c-27.614 0-50.327 20.987-53.058 47.88l-0.275 5.453v426.667c-27.614 0-50.327 20.987-53.058 47.88l-0.275 5.453v106.667c0 27.614 20.987 50.327 47.88 53.058l5.453 0.275 424.183 0.081zM855.261 888.25l37.874-37.879c-8.071-10.469-12.669-23.713-12.144-37.956l0.813-22.611 22.659-0.862c14.243-0.525 27.487 4.073 37.956 12.144l37.879-37.874c-18.926-16.536-43.421-26.772-70.128-27.591l-7.673 0.024-18.703 0.698 1.228-33.312c0.101-2.75 0.101-5.503 0-8.252-2.279-61.814-54.236-110.077-116.050-107.798l-33.342 1.198 0.728-18.673 0.064-5.768c-0.405-27.617-10.772-52.753-27.631-72.037l-37.878 37.874c6.246 8.095 10.427 17.873 11.744 28.558l0.438 6.387-0.955 25.62-25.571 0.907c-13.161-0.193-25.246-4.705-34.926-12.167l-37.893 37.864c19.283 16.859 44.419 27.226 72.037 27.631l5.768-0.064 18.654-0.71-1.18 33.324c-2.184 59.238 42.050 109.424 100.144 115.509l7.653 0.541 4.126 0.076 4.126-0.076 33.294-1.21-0.68 18.685c-1.094 29.673 9.459 57.075 27.566 77.8zM793.115 739.678h-4.323c-30.355-1.119-54.471-25.109-56.384-54.783l-0.082-6.005 1.313-37.25 37.298-1.362c32.379-1.194 59.595 24.087 60.788 56.465v4.323l-1.392 37.268-37.22 1.344z" />
<glyph unicode="&#xe9a9;" glyph-name="type_material" d="M533.542 840.734l100.395-58.706c-9.64-14.97-17.187-31.379-22.254-48.791l-99.682 58.31-317.681-185.812v-358.136l317.681-185.812 317.681 185.812 0.023 273.372c19.304 6.141 37.284 15.351 53.344 27.074l-0.033-306.564c0-15.157-8.041-29.177-21.125-36.829l-328.348-192.051c-13.307-7.783-29.777-7.783-43.083 0l-328.348 192.051c-13.084 7.653-21.125 21.672-21.125 36.829v370.373c0 15.157 8.041 29.177 21.125 36.829l328.348 192.051c13.307 7.783 29.777 7.783 43.083 0zM474.469 620.391l50.383-50.29c-4.234 0.374-8.521 0.566-12.852 0.566-79.529 0-144-64.471-144-144s64.471-144 144-144c79.529 0 144 64.471 144 144 0 4.331-0.191 8.618-0.566 12.852l50.335-50.38c-17.527-91.036-97.617-159.805-193.769-159.805-108.984 0-197.333 88.349-197.333 197.333 0 93.847 65.512 172.394 153.299 192.402l6.503 1.322zM855.261 888.25l37.874-37.879c-8.071-10.469-12.669-23.713-12.144-37.956l0.813-22.611 22.659-0.862c14.243-0.525 27.487 4.073 37.956 12.144l37.879-37.874c-18.926-16.536-43.421-26.772-70.128-27.591l-7.673 0.024-18.703 0.698 1.228-33.312c0.101-2.75 0.101-5.503 0-8.252-2.279-61.814-54.236-110.077-116.050-107.798l-33.342 1.198 0.728-18.673 0.064-5.768c-0.405-27.617-10.772-52.753-27.631-72.037l-37.878 37.874c6.246 8.095 10.427 17.873 11.744 28.558l0.438 6.387-0.955 25.62-25.571 0.907c-13.161-0.193-25.246-4.705-34.926-12.167l-37.893 37.864c19.283 16.859 44.419 27.226 72.037 27.631l5.768-0.064 18.654-0.71-1.18 33.324c-2.184 59.238 42.050 109.424 100.144 115.509l7.653 0.541 4.126 0.076 4.126-0.076 33.294-1.21-0.68 18.685c-1.094 29.673 9.459 57.075 27.566 77.8zM793.115 739.678h-4.323c-30.355-1.119-54.471-25.109-56.384-54.783l-0.082-6.005 1.313-37.25 37.298-1.362c32.379-1.194 59.595 24.087 60.788 56.465v4.323l-1.392 37.268-37.22 1.344z" />
<glyph unicode="&#xe9aa;" glyph-name="type_shelf" d="M662.010 816.045c-15.993-15.293-29.235-33.375-38.985-53.405l-404.358 0.027v-106.667l296.491 0.002-61.056-53.333-235.435-0.002v-106.667l354.048 0.002 65.621-53.333-419.669-0.002v-106.667h586.667v106.667l-40.277 0.002 6.391 7.682 6.953 9.474c7.763 11.306 14.244 23.415 19.334 36.116l7.6 0.060v19.074l9.62 1.866c15.37 3.524 30.041 8.955 43.741 16.039l-0.027-356.979c0-1.812-0.090-3.603-0.267-5.368l0.267 0.035v-128h-53.333v80h-586.667v-80h-53.333v128l0.256 0.002-0.256 5.332v586.667c0 27.614 20.987 50.327 47.88 53.058l5.453 0.275 443.343 0.044zM805.333 282.667h-586.667v-106.667h586.667v106.667zM855.261 888.25l37.874-37.879c-8.071-10.469-12.669-23.713-12.144-37.956l0.813-22.611 22.659-0.862c14.243-0.525 27.487 4.073 37.956 12.144l37.879-37.874c-18.926-16.536-43.421-26.772-70.128-27.591l-7.673 0.024-18.703 0.698 1.228-33.312c0.101-2.75 0.101-5.503 0-8.252-2.279-61.814-54.236-110.077-116.050-107.798l-33.342 1.198 0.728-18.673 0.064-5.768c-0.405-27.617-10.772-52.753-27.631-72.037l-37.878 37.874c6.246 8.095 10.427 17.873 11.744 28.558l0.438 6.387-0.955 25.62-25.571 0.907c-13.161-0.193-25.246-4.705-34.926-12.167l-37.893 37.864c19.283 16.859 44.419 27.226 72.037 27.631l5.768-0.064 18.654-0.71-1.18 33.324c-2.184 59.238 42.050 109.424 100.144 115.509l7.653 0.541 4.126 0.076 4.126-0.076 33.294-1.21-0.68 18.685c-1.094 29.673 9.459 57.075 27.566 77.8zM793.115 739.678h-4.323c-30.355-1.119-54.471-25.109-56.384-54.783l-0.082-6.005 1.313-37.25 37.298-1.362c32.379-1.194 59.595 24.087 60.788 56.465v4.323l-1.392 37.268-37.22 1.344z" />
</font>
</defs>
</svg>
